%TF.GenerationSoftware,KiCad,Pcbnew,9.0.1-1.fc41*%
%TF.CreationDate,2025-04-10T23:58:52-07:00*%
%TF.ProjectId,Potentiostat KiCAD Prohject,506f7465-6e74-4696-9f73-746174204b69,rev?*%
%TF.SameCoordinates,Original*%
%TF.FileFunction,Copper,L2,Bot*%
%TF.FilePolarity,Positive*%
%FSLAX46Y46*%
G04 Gerber Fmt 4.6, Leading zero omitted, Abs format (unit mm)*
G04 Created by KiCad (PCBNEW 9.0.1-1.fc41) date 2025-04-10 23:58:52*
%MOMM*%
%LPD*%
G01*
G04 APERTURE LIST*
%TA.AperFunction,ComponentPad*%
%ADD10C,3.800000*%
%TD*%
%TA.AperFunction,HeatsinkPad*%
%ADD11O,1.000000X2.100000*%
%TD*%
%TA.AperFunction,HeatsinkPad*%
%ADD12O,1.000000X1.800000*%
%TD*%
%TA.AperFunction,ComponentPad*%
%ADD13C,1.400000*%
%TD*%
%TA.AperFunction,ComponentPad*%
%ADD14R,1.400000X1.400000*%
%TD*%
%TA.AperFunction,ComponentPad*%
%ADD15C,5.918200*%
%TD*%
%TA.AperFunction,ComponentPad*%
%ADD16R,1.700000X1.700000*%
%TD*%
%TA.AperFunction,ComponentPad*%
%ADD17O,1.700000X1.700000*%
%TD*%
%TA.AperFunction,ComponentPad*%
%ADD18R,2.200000X2.200000*%
%TD*%
%TA.AperFunction,ComponentPad*%
%ADD19O,2.200000X2.200000*%
%TD*%
%TA.AperFunction,ViaPad*%
%ADD20C,0.600000*%
%TD*%
%TA.AperFunction,Conductor*%
%ADD21C,0.200000*%
%TD*%
%TA.AperFunction,Conductor*%
%ADD22C,0.350000*%
%TD*%
G04 APERTURE END LIST*
D10*
%TO.P,H4,1,1*%
%TO.N,GND*%
X121000000Y-57500000D03*
%TD*%
%TO.P,H3,1,1*%
%TO.N,GND*%
X121000000Y-105500000D03*
%TD*%
%TO.P,H2,1,1*%
%TO.N,GND*%
X234500000Y-105500000D03*
%TD*%
%TO.P,H1,1,1*%
%TO.N,GND*%
X234500000Y-57500000D03*
%TD*%
D11*
%TO.P,J2,S1,SHIELD*%
%TO.N,GND*%
X150620000Y-102500000D03*
D12*
X150620000Y-106680000D03*
D11*
X159260000Y-102500000D03*
D12*
X159260000Y-106680000D03*
%TD*%
D13*
%TO.P,K1,14*%
%TO.N,GND*%
X207020000Y-68580000D03*
%TO.P,K1,13*%
%TO.N,Net-(J5-Pin_1)*%
X207020000Y-71120000D03*
%TO.P,K1,9*%
%TO.N,N/C*%
X207020000Y-81380000D03*
%TO.P,K1,8*%
%TO.N,Net-(U10-AIN1)*%
X207020000Y-83820000D03*
%TO.P,K1,7*%
X199400000Y-83820000D03*
%TO.P,K1,6*%
%TO.N,Net-(K1-Pad6)*%
X199400000Y-81380000D03*
%TO.P,K1,2*%
%TO.N,Net-(J5-Pin_1)*%
X199400000Y-71120000D03*
D14*
%TO.P,K1,1*%
%TO.N,GND*%
X199400000Y-68580000D03*
%TD*%
D15*
%TO.P,J5,1,Pin_1*%
%TO.N,Net-(J5-Pin_1)*%
X219964000Y-81026000D03*
%TD*%
D16*
%TO.P,J1,1,Pin_1*%
%TO.N,+9V*%
X190500000Y-60960000D03*
D17*
%TO.P,J1,2,Pin_2*%
%TO.N,GND*%
X190500000Y-58420000D03*
%TD*%
D18*
%TO.P,D2,1,K*%
%TO.N,Net-(D2-K)*%
X186339000Y-81280000D03*
D19*
%TO.P,D2,2,A*%
%TO.N,GND*%
X186339000Y-91440000D03*
%TD*%
D15*
%TO.P,J6,1,Pin_1*%
%TO.N,Net-(J6-Pin_1)*%
X219710000Y-97536000D03*
%TD*%
D16*
%TO.P,J3,1,Pin_1*%
%TO.N,GND*%
X195580000Y-58420000D03*
D17*
%TO.P,J3,2,Pin_2*%
%TO.N,-9V*%
X195580000Y-60960000D03*
%TD*%
D15*
%TO.P,J4,1,Pin_1*%
%TO.N,Net-(J4-Pin_1)*%
X219964000Y-65278000D03*
%TD*%
D20*
%TO.N,GND*%
X125000000Y-89500000D03*
X156500000Y-83500000D03*
X155000000Y-85000000D03*
X190500000Y-78500000D03*
X189500000Y-79500000D03*
X191500000Y-81500000D03*
X190500000Y-83500000D03*
X184000000Y-87500000D03*
X186500000Y-87000000D03*
X178000000Y-83000000D03*
X184000000Y-83500000D03*
X183000000Y-85500000D03*
X165500000Y-61500000D03*
X171000000Y-64500000D03*
X165000000Y-62500000D03*
X165500000Y-60500000D03*
X164500000Y-63500000D03*
X164000000Y-64500000D03*
X162500000Y-65000000D03*
X161000000Y-64500000D03*
X160000000Y-64000000D03*
X159500000Y-63500000D03*
X158500000Y-63000000D03*
X157500000Y-62500000D03*
X157000000Y-61500000D03*
X165000000Y-58000000D03*
X159500000Y-58500000D03*
X160000000Y-78000000D03*
X188000000Y-72000000D03*
X190000000Y-66500000D03*
X192000000Y-63500000D03*
X188000000Y-108000000D03*
X190500000Y-105500000D03*
X164000000Y-103500000D03*
%TO.N,Net-(J2-CC2)*%
X149000000Y-105500000D03*
X156500000Y-100500000D03*
%TO.N,Net-(J2-CC1)*%
X145500000Y-104000000D03*
X153000000Y-100500000D03*
%TO.N,+3.3V*%
X139500000Y-94500000D03*
%TO.N,/I2C_SCL*%
X157000000Y-90500000D03*
X154000000Y-90500000D03*
%TO.N,+3.3V*%
X161000000Y-82500000D03*
%TO.N,Net-(U2A-+)*%
X200500000Y-96000000D03*
X199500000Y-94000000D03*
%TO.N,GND*%
X196596000Y-76708000D03*
X171450000Y-92456000D03*
X166116000Y-89662000D03*
X205486000Y-93726000D03*
%TO.N,Net-(D2-K)*%
X186339000Y-75200000D03*
X190987000Y-95524500D03*
%TO.N,Net-(J4-Pin_1)*%
X213868000Y-79756000D03*
X211836000Y-90424000D03*
%TO.N,Net-(R15-Pad1)*%
X186106000Y-104248000D03*
X184109000Y-97330000D03*
%TO.N,Net-(R10-Pad1)*%
X190274000Y-74228700D03*
X192847000Y-88572600D03*
%TO.N,Net-(U2D--)*%
X188227000Y-77329200D03*
X190938000Y-86691200D03*
%TO.N,-9V*%
X173759000Y-107234000D03*
X198120000Y-66040000D03*
X173794000Y-99235000D03*
X193973000Y-98340100D03*
X195758000Y-71055000D03*
%TO.N,+9V*%
X196934000Y-67995000D03*
X170996000Y-99060000D03*
X194650000Y-103505000D03*
X194385000Y-93171100D03*
X173533000Y-93330800D03*
%TO.N,+5V*%
X167550000Y-83580000D03*
X160710000Y-100677000D03*
%TO.N,/ADC_IN3*%
X196518000Y-90215000D03*
X166551000Y-97556300D03*
X196518000Y-80521500D03*
X169267000Y-87466600D03*
%TO.N,/I2C_SDA*%
X170619000Y-104314000D03*
X170374000Y-85860600D03*
X173921000Y-77091000D03*
%TO.N,VCC*%
X166551000Y-95869600D03*
X165912000Y-103228000D03*
%TO.N,Net-(J6-Pin_1)*%
X189992000Y-103540000D03*
X202692000Y-103124000D03*
%TD*%
D21*
%TO.N,GND*%
X190500000Y-105500000D02*
X188000000Y-108000000D01*
%TO.N,Net-(J2-CC2)*%
X149021000Y-105479000D02*
X149000000Y-105500000D01*
X151521000Y-105479000D02*
X149021000Y-105479000D01*
X156500000Y-100500000D02*
X151521000Y-105479000D01*
%TO.N,Net-(J2-CC1)*%
X149000000Y-100500000D02*
X145500000Y-104000000D01*
X153000000Y-100500000D02*
X149000000Y-100500000D01*
%TO.N,+3.3V*%
X146000000Y-88000000D02*
X139500000Y-94500000D01*
X158000000Y-88000000D02*
X146000000Y-88000000D01*
%TO.N,/I2C_SCL*%
X154000000Y-90500000D02*
X157000000Y-90500000D01*
%TO.N,+3.3V*%
X158000000Y-86500000D02*
X158000000Y-88000000D01*
X161000000Y-82500000D02*
X161000000Y-83500000D01*
X161000000Y-83500000D02*
X158000000Y-86500000D01*
%TO.N,Net-(U2A-+)*%
X199500000Y-95000000D02*
X199500000Y-94000000D01*
X200500000Y-96000000D02*
X199500000Y-95000000D01*
%TO.N,GND*%
X205486000Y-93726000D02*
X205486000Y-94234000D01*
X196596000Y-76708000D02*
X197104000Y-77216000D01*
X171450000Y-92456000D02*
X171450000Y-91694000D01*
%TO.N,Net-(D2-K)*%
X186339000Y-81280000D02*
X186339000Y-75200000D01*
X186339000Y-81280000D02*
X186339000Y-82943500D01*
X190987000Y-87591200D02*
X190987000Y-95524500D01*
X186339000Y-82943500D02*
X190987000Y-87591200D01*
%TO.N,Net-(J4-Pin_1)*%
X213868000Y-88392000D02*
X211836000Y-90424000D01*
X213868000Y-79756000D02*
X213868000Y-88392000D01*
%TO.N,Net-(R15-Pad1)*%
X186106000Y-104248000D02*
X186106000Y-99326500D01*
X186106000Y-99326500D02*
X184109000Y-97330000D01*
%TO.N,Net-(R10-Pad1)*%
X190274000Y-74228700D02*
X192847000Y-76802200D01*
X192847000Y-76802200D02*
X192847000Y-88572600D01*
%TO.N,Net-(U2D--)*%
X190938000Y-86691200D02*
X188227000Y-83980400D01*
X188227000Y-83980400D02*
X188227000Y-77329200D01*
D22*
%TO.N,-9V*%
X195758000Y-67853414D02*
X195758000Y-71055000D01*
X198120000Y-66040000D02*
X197571414Y-66040000D01*
X193548000Y-97915100D02*
X193973000Y-98340100D01*
X197571414Y-66040000D02*
X195758000Y-67853414D01*
X173759000Y-99270400D02*
X173794000Y-99235000D01*
X195758000Y-71055000D02*
X193548000Y-73265000D01*
X173759000Y-107234000D02*
X173759000Y-99270400D01*
X193548000Y-73265000D02*
X193548000Y-97915100D01*
%TO.N,+9V*%
X196934000Y-67995000D02*
X196934000Y-71474000D01*
X194650000Y-93436900D02*
X194650000Y-103505000D01*
X173533000Y-93330800D02*
X173533000Y-96522100D01*
X194385000Y-93171100D02*
X194650000Y-93436900D01*
X196934000Y-71474000D02*
X194385000Y-74023100D01*
X194385000Y-74023100D02*
X194385000Y-93171100D01*
X173533000Y-96522100D02*
X170996000Y-99060000D01*
D21*
%TO.N,+5V*%
X167550000Y-93837000D02*
X167550000Y-83580000D01*
X160710000Y-100677000D02*
X167550000Y-93837000D01*
%TO.N,/ADC_IN3*%
X196518000Y-90215000D02*
X196518000Y-80521500D01*
X169267000Y-94840000D02*
X166551000Y-97556300D01*
X169267000Y-87466600D02*
X169267000Y-94840000D01*
%TO.N,/I2C_SDA*%
X170374000Y-85860600D02*
X173921000Y-82313500D01*
X170619000Y-104314000D02*
X170374000Y-104068000D01*
X170374000Y-104068000D02*
X170374000Y-85860600D01*
X173921000Y-82313500D02*
X173921000Y-77091000D01*
%TO.N,VCC*%
X165912000Y-103228000D02*
X165912000Y-96508100D01*
X165912000Y-96508100D02*
X166551000Y-95869600D01*
%TO.N,Net-(J6-Pin_1)*%
X202692000Y-103124000D02*
X201710000Y-104106000D01*
X201710000Y-104106000D02*
X190558000Y-104106000D01*
X190558000Y-104106000D02*
X189992000Y-103540000D01*
%TD*%
%TA.AperFunction,Conductor*%
%TO.N,GND*%
G36*
X233762702Y-53640617D02*
G01*
X234164202Y-53658147D01*
X234174937Y-53659087D01*
X234570693Y-53711189D01*
X234581331Y-53713064D01*
X234971043Y-53799462D01*
X234981483Y-53802260D01*
X235362168Y-53922289D01*
X235372315Y-53925982D01*
X235741102Y-54078739D01*
X235750893Y-54083305D01*
X236104942Y-54267611D01*
X236114310Y-54273019D01*
X236450959Y-54487488D01*
X236459820Y-54493693D01*
X236776487Y-54736680D01*
X236784774Y-54743634D01*
X237079056Y-55013294D01*
X237086705Y-55020943D01*
X237356365Y-55315225D01*
X237363319Y-55323512D01*
X237606306Y-55640179D01*
X237612511Y-55649040D01*
X237826980Y-55985689D01*
X237832388Y-55995057D01*
X238016691Y-56349099D01*
X238021263Y-56358903D01*
X238174013Y-56727674D01*
X238177713Y-56737840D01*
X238297738Y-57118512D01*
X238300538Y-57128960D01*
X238386933Y-57518660D01*
X238388811Y-57529314D01*
X238440910Y-57925042D01*
X238441853Y-57935818D01*
X238459382Y-58337297D01*
X238459500Y-58342706D01*
X238459500Y-104217293D01*
X238459382Y-104222702D01*
X238441853Y-104624181D01*
X238440910Y-104634957D01*
X238388811Y-105030685D01*
X238386933Y-105041339D01*
X238300538Y-105431039D01*
X238297738Y-105441487D01*
X238177713Y-105822159D01*
X238174013Y-105832325D01*
X238021263Y-106201096D01*
X238016691Y-106210900D01*
X237832388Y-106564942D01*
X237826980Y-106574310D01*
X237612511Y-106910959D01*
X237606306Y-106919820D01*
X237363319Y-107236487D01*
X237356365Y-107244774D01*
X237086705Y-107539056D01*
X237079056Y-107546705D01*
X236784774Y-107816365D01*
X236776487Y-107823319D01*
X236459820Y-108066306D01*
X236450959Y-108072511D01*
X236114310Y-108286980D01*
X236104942Y-108292388D01*
X235750900Y-108476691D01*
X235741096Y-108481263D01*
X235372325Y-108634013D01*
X235362159Y-108637713D01*
X234981487Y-108757738D01*
X234971039Y-108760538D01*
X234581339Y-108846933D01*
X234570685Y-108848811D01*
X234174957Y-108900910D01*
X234164181Y-108901853D01*
X233762703Y-108919382D01*
X233757294Y-108919500D01*
X121842706Y-108919500D01*
X121837297Y-108919382D01*
X121435818Y-108901853D01*
X121425042Y-108900910D01*
X121029314Y-108848811D01*
X121018660Y-108846933D01*
X120628960Y-108760538D01*
X120618512Y-108757738D01*
X120237840Y-108637713D01*
X120227674Y-108634013D01*
X119858903Y-108481263D01*
X119849099Y-108476691D01*
X119495057Y-108292388D01*
X119485689Y-108286980D01*
X119149040Y-108072511D01*
X119140179Y-108066306D01*
X118823512Y-107823319D01*
X118815225Y-107816365D01*
X118520943Y-107546705D01*
X118513294Y-107539056D01*
X118243634Y-107244774D01*
X118236680Y-107236487D01*
X118227522Y-107224552D01*
X118174270Y-107155153D01*
X172958500Y-107155153D01*
X172958500Y-107312846D01*
X172989261Y-107467489D01*
X172989264Y-107467501D01*
X173049602Y-107613172D01*
X173049609Y-107613185D01*
X173137210Y-107744288D01*
X173137213Y-107744292D01*
X173248707Y-107855786D01*
X173248711Y-107855789D01*
X173379814Y-107943390D01*
X173379827Y-107943397D01*
X173525498Y-108003735D01*
X173525503Y-108003737D01*
X173680153Y-108034499D01*
X173680156Y-108034500D01*
X173680158Y-108034500D01*
X173837844Y-108034500D01*
X173837845Y-108034499D01*
X173992497Y-108003737D01*
X174138179Y-107943394D01*
X174269289Y-107855789D01*
X174380789Y-107744289D01*
X174468394Y-107613179D01*
X174528737Y-107467497D01*
X174559500Y-107312842D01*
X174559500Y-107155158D01*
X174559500Y-107155155D01*
X174559499Y-107155153D01*
X174528738Y-107000510D01*
X174528737Y-107000503D01*
X174501840Y-106935567D01*
X174468397Y-106854827D01*
X174468390Y-106854814D01*
X174455398Y-106835370D01*
X174434520Y-106768692D01*
X174434500Y-106766479D01*
X174434500Y-99754901D01*
X174454185Y-99687862D01*
X174455398Y-99686010D01*
X174495061Y-99626650D01*
X174503394Y-99614179D01*
X174563737Y-99468497D01*
X174594500Y-99313842D01*
X174594500Y-99156158D01*
X174594500Y-99156155D01*
X174594499Y-99156153D01*
X174582263Y-99094641D01*
X174563737Y-99001503D01*
X174563735Y-99001498D01*
X174503397Y-98855827D01*
X174503390Y-98855814D01*
X174415789Y-98724711D01*
X174415786Y-98724707D01*
X174304292Y-98613213D01*
X174304288Y-98613210D01*
X174173185Y-98525609D01*
X174173172Y-98525602D01*
X174027501Y-98465264D01*
X174027489Y-98465261D01*
X173872845Y-98434500D01*
X173872842Y-98434500D01*
X173715158Y-98434500D01*
X173715155Y-98434500D01*
X173560510Y-98465261D01*
X173560498Y-98465264D01*
X173414827Y-98525602D01*
X173414814Y-98525609D01*
X173283711Y-98613210D01*
X173283707Y-98613213D01*
X173172213Y-98724707D01*
X173172210Y-98724711D01*
X173084609Y-98855814D01*
X173084602Y-98855827D01*
X173024264Y-99001498D01*
X173024261Y-99001510D01*
X172993500Y-99156153D01*
X172993500Y-99313846D01*
X173018431Y-99439179D01*
X173024263Y-99468497D01*
X173068493Y-99575279D01*
X173074061Y-99588720D01*
X173083500Y-99636173D01*
X173083500Y-106766479D01*
X173063815Y-106833518D01*
X173062602Y-106835370D01*
X173049609Y-106854814D01*
X173049602Y-106854827D01*
X172989264Y-107000498D01*
X172989261Y-107000510D01*
X172958500Y-107155153D01*
X118174270Y-107155153D01*
X117993693Y-106919820D01*
X117987488Y-106910959D01*
X117773019Y-106574310D01*
X117767611Y-106564942D01*
X117629951Y-106300500D01*
X117583305Y-106210893D01*
X117578736Y-106201096D01*
X117425982Y-105832315D01*
X117422286Y-105822159D01*
X117394332Y-105733501D01*
X117302260Y-105441483D01*
X117299461Y-105431039D01*
X117297269Y-105421153D01*
X148199500Y-105421153D01*
X148199500Y-105578846D01*
X148230261Y-105733489D01*
X148230264Y-105733501D01*
X148290602Y-105879172D01*
X148290609Y-105879185D01*
X148378210Y-106010288D01*
X148378213Y-106010292D01*
X148489707Y-106121786D01*
X148489711Y-106121789D01*
X148620814Y-106209390D01*
X148620827Y-106209397D01*
X148766498Y-106269735D01*
X148766503Y-106269737D01*
X148921153Y-106300499D01*
X148921156Y-106300500D01*
X148921158Y-106300500D01*
X149078844Y-106300500D01*
X149078845Y-106300499D01*
X149233497Y-106269737D01*
X149379179Y-106209394D01*
X149510289Y-106121789D01*
X149510292Y-106121786D01*
X149516260Y-106115819D01*
X149577583Y-106082334D01*
X149603941Y-106079500D01*
X151434331Y-106079500D01*
X151434347Y-106079501D01*
X151441943Y-106079501D01*
X151600054Y-106079501D01*
X151600057Y-106079501D01*
X151752785Y-106038577D01*
X151802904Y-106009639D01*
X151889716Y-105959520D01*
X152001520Y-105847716D01*
X152001520Y-105847714D01*
X152011728Y-105837507D01*
X152011729Y-105837504D01*
X154918839Y-102930395D01*
X157301300Y-102930395D01*
X157301300Y-103069605D01*
X157337330Y-103204071D01*
X157406935Y-103324629D01*
X157505371Y-103423065D01*
X157625929Y-103492670D01*
X157760395Y-103528700D01*
X157760397Y-103528700D01*
X157899603Y-103528700D01*
X157899605Y-103528700D01*
X158034071Y-103492670D01*
X158154629Y-103423065D01*
X158253065Y-103324629D01*
X158322670Y-103204071D01*
X158358700Y-103069605D01*
X158358700Y-102930395D01*
X158322670Y-102795929D01*
X158253065Y-102675371D01*
X158154629Y-102576935D01*
X158034071Y-102507330D01*
X157899605Y-102471300D01*
X157760395Y-102471300D01*
X157625928Y-102507330D01*
X157505371Y-102576935D01*
X157505368Y-102576937D01*
X157406937Y-102675368D01*
X157406935Y-102675371D01*
X157337330Y-102795928D01*
X157323156Y-102848827D01*
X157301300Y-102930395D01*
X154918839Y-102930395D01*
X156514662Y-101334572D01*
X156575983Y-101301089D01*
X156578150Y-101300638D01*
X156636085Y-101289113D01*
X156733497Y-101269737D01*
X156879179Y-101209394D01*
X157010289Y-101121789D01*
X157121789Y-101010289D01*
X157209394Y-100879179D01*
X157269737Y-100733497D01*
X157296659Y-100598153D01*
X159909500Y-100598153D01*
X159909500Y-100755846D01*
X159940261Y-100910489D01*
X159940264Y-100910501D01*
X160000602Y-101056172D01*
X160000609Y-101056185D01*
X160088210Y-101187288D01*
X160088213Y-101187292D01*
X160199707Y-101298786D01*
X160199711Y-101298789D01*
X160330814Y-101386390D01*
X160330827Y-101386397D01*
X160476498Y-101446735D01*
X160476503Y-101446737D01*
X160631153Y-101477499D01*
X160631156Y-101477500D01*
X160631158Y-101477500D01*
X160788844Y-101477500D01*
X160788845Y-101477499D01*
X160943497Y-101446737D01*
X161089179Y-101386394D01*
X161220289Y-101298789D01*
X161331789Y-101187289D01*
X161419394Y-101056179D01*
X161479737Y-100910497D01*
X161502255Y-100797293D01*
X161510638Y-100755150D01*
X161543023Y-100693239D01*
X161544518Y-100691716D01*
X165099819Y-97136416D01*
X165161142Y-97102931D01*
X165230834Y-97107915D01*
X165286767Y-97149787D01*
X165311184Y-97215251D01*
X165311500Y-97224097D01*
X165311500Y-102648234D01*
X165291815Y-102715273D01*
X165290602Y-102717125D01*
X165202609Y-102848814D01*
X165202602Y-102848827D01*
X165142264Y-102994498D01*
X165142261Y-102994510D01*
X165111500Y-103149153D01*
X165111500Y-103306846D01*
X165142261Y-103461489D01*
X165142264Y-103461501D01*
X165202602Y-103607172D01*
X165202609Y-103607185D01*
X165290210Y-103738288D01*
X165290213Y-103738292D01*
X165401707Y-103849786D01*
X165401711Y-103849789D01*
X165532814Y-103937390D01*
X165532827Y-103937397D01*
X165678498Y-103997735D01*
X165678503Y-103997737D01*
X165833153Y-104028499D01*
X165833156Y-104028500D01*
X165833158Y-104028500D01*
X165990844Y-104028500D01*
X165990845Y-104028499D01*
X166145497Y-103997737D01*
X166291179Y-103937394D01*
X166422289Y-103849789D01*
X166533789Y-103738289D01*
X166621394Y-103607179D01*
X166681737Y-103461497D01*
X166712500Y-103306842D01*
X166712500Y-103149158D01*
X166712500Y-103149155D01*
X166712499Y-103149153D01*
X166707858Y-103125821D01*
X166681737Y-102994503D01*
X166638662Y-102890510D01*
X166621397Y-102848827D01*
X166621390Y-102848814D01*
X166533398Y-102717125D01*
X166512520Y-102650447D01*
X166512500Y-102648234D01*
X166512500Y-98480744D01*
X166532185Y-98413705D01*
X166584989Y-98367950D01*
X166624351Y-98357341D01*
X166629844Y-98356800D01*
X166692041Y-98344427D01*
X166784497Y-98326037D01*
X166930179Y-98265694D01*
X167061289Y-98178089D01*
X167172789Y-98066589D01*
X167260394Y-97935479D01*
X167320737Y-97789797D01*
X167351500Y-97635142D01*
X167351649Y-97634393D01*
X167384034Y-97572482D01*
X167385510Y-97570978D01*
X169561815Y-95394434D01*
X169623135Y-95360946D01*
X169692827Y-95365927D01*
X169748763Y-95407795D01*
X169773184Y-95473258D01*
X169773500Y-95482111D01*
X169773500Y-104067268D01*
X169773340Y-104145834D01*
X169773500Y-104146436D01*
X169773500Y-104147057D01*
X169779421Y-104169153D01*
X169793761Y-104222673D01*
X169793826Y-104222917D01*
X169814340Y-104300106D01*
X169818500Y-104331955D01*
X169818500Y-104392846D01*
X169849261Y-104547489D01*
X169849264Y-104547501D01*
X169909602Y-104693172D01*
X169909609Y-104693185D01*
X169997210Y-104824288D01*
X169997213Y-104824292D01*
X170108707Y-104935786D01*
X170108711Y-104935789D01*
X170239814Y-105023390D01*
X170239827Y-105023397D01*
X170385498Y-105083735D01*
X170385503Y-105083737D01*
X170540153Y-105114499D01*
X170540156Y-105114500D01*
X170540158Y-105114500D01*
X170697844Y-105114500D01*
X170697845Y-105114499D01*
X170852497Y-105083737D01*
X170998179Y-105023394D01*
X171129289Y-104935789D01*
X171240789Y-104824289D01*
X171328394Y-104693179D01*
X171388737Y-104547497D01*
X171419500Y-104392842D01*
X171419500Y-104235158D01*
X171419500Y-104235155D01*
X171419499Y-104235153D01*
X171415946Y-104217293D01*
X171388737Y-104080503D01*
X171376222Y-104050288D01*
X171328397Y-103934827D01*
X171328390Y-103934814D01*
X171240789Y-103803711D01*
X171240786Y-103803707D01*
X171129292Y-103692213D01*
X171129284Y-103692207D01*
X171029610Y-103625607D01*
X170984804Y-103571995D01*
X170974500Y-103522505D01*
X170974500Y-99982223D01*
X170994185Y-99915184D01*
X171046989Y-99869429D01*
X171074309Y-99860606D01*
X171074842Y-99860500D01*
X171229497Y-99829737D01*
X171375179Y-99769394D01*
X171506289Y-99681789D01*
X171617789Y-99570289D01*
X171705394Y-99439179D01*
X171765737Y-99293497D01*
X171770328Y-99270410D01*
X171802710Y-99208499D01*
X171804161Y-99207021D01*
X173759336Y-97251153D01*
X183308500Y-97251153D01*
X183308500Y-97408846D01*
X183339261Y-97563489D01*
X183339264Y-97563501D01*
X183399602Y-97709172D01*
X183399609Y-97709185D01*
X183487210Y-97840288D01*
X183487213Y-97840292D01*
X183598707Y-97951786D01*
X183598711Y-97951789D01*
X183729814Y-98039390D01*
X183729827Y-98039397D01*
X183795483Y-98066592D01*
X183875503Y-98099737D01*
X184030158Y-98130500D01*
X184030977Y-98130663D01*
X184092888Y-98163048D01*
X184094429Y-98164562D01*
X185343929Y-99413748D01*
X185469170Y-99538958D01*
X185502663Y-99600277D01*
X185505500Y-99626650D01*
X185505500Y-103668234D01*
X185485815Y-103735273D01*
X185484602Y-103737125D01*
X185396609Y-103868814D01*
X185396602Y-103868827D01*
X185336264Y-104014498D01*
X185336261Y-104014510D01*
X185305500Y-104169153D01*
X185305500Y-104326846D01*
X185336261Y-104481489D01*
X185336264Y-104481501D01*
X185396602Y-104627172D01*
X185396609Y-104627185D01*
X185484210Y-104758288D01*
X185484213Y-104758292D01*
X185595707Y-104869786D01*
X185595711Y-104869789D01*
X185726814Y-104957390D01*
X185726827Y-104957397D01*
X185872498Y-105017735D01*
X185872503Y-105017737D01*
X186027153Y-105048499D01*
X186027156Y-105048500D01*
X186027158Y-105048500D01*
X186184844Y-105048500D01*
X186184845Y-105048499D01*
X186339497Y-105017737D01*
X186485179Y-104957394D01*
X186616289Y-104869789D01*
X186727789Y-104758289D01*
X186815394Y-104627179D01*
X186875737Y-104481497D01*
X186906500Y-104326842D01*
X186906500Y-104169158D01*
X186906500Y-104169155D01*
X186906499Y-104169153D01*
X186901980Y-104146436D01*
X186875737Y-104014503D01*
X186843796Y-103937390D01*
X186815397Y-103868827D01*
X186815390Y-103868814D01*
X186727398Y-103737125D01*
X186721747Y-103719078D01*
X186711523Y-103703169D01*
X186707071Y-103672207D01*
X186706520Y-103670447D01*
X186706500Y-103668234D01*
X186706500Y-103461153D01*
X189191500Y-103461153D01*
X189191500Y-103618846D01*
X189222261Y-103773489D01*
X189222264Y-103773501D01*
X189282602Y-103919172D01*
X189282609Y-103919185D01*
X189370210Y-104050288D01*
X189370213Y-104050292D01*
X189481707Y-104161786D01*
X189481711Y-104161789D01*
X189612814Y-104249390D01*
X189612827Y-104249397D01*
X189751521Y-104306845D01*
X189758503Y-104309737D01*
X189823147Y-104322595D01*
X189913849Y-104340638D01*
X189930605Y-104349402D01*
X189949085Y-104353423D01*
X189974123Y-104372167D01*
X189975760Y-104373023D01*
X189977339Y-104374574D01*
X190073139Y-104470374D01*
X190073149Y-104470385D01*
X190077479Y-104474715D01*
X190077480Y-104474716D01*
X190189284Y-104586520D01*
X190263881Y-104629588D01*
X190326215Y-104665577D01*
X190478943Y-104706501D01*
X190478946Y-104706501D01*
X190644653Y-104706501D01*
X190644669Y-104706500D01*
X201623331Y-104706500D01*
X201623347Y-104706501D01*
X201630943Y-104706501D01*
X201789054Y-104706501D01*
X201789057Y-104706501D01*
X201941785Y-104665577D01*
X202004119Y-104629588D01*
X202078716Y-104586520D01*
X202190520Y-104474716D01*
X202190520Y-104474714D01*
X202200724Y-104464511D01*
X202200727Y-104464506D01*
X202706665Y-103958570D01*
X202767984Y-103925088D01*
X202770151Y-103924637D01*
X202770840Y-103924500D01*
X202770842Y-103924500D01*
X202925497Y-103893737D01*
X203071179Y-103833394D01*
X203202289Y-103745789D01*
X203313789Y-103634289D01*
X203401394Y-103503179D01*
X203401607Y-103502666D01*
X203434579Y-103423062D01*
X203461737Y-103357497D01*
X203492500Y-103202842D01*
X203492500Y-103045158D01*
X203492500Y-103045155D01*
X203492499Y-103045153D01*
X203467249Y-102918213D01*
X203461737Y-102890503D01*
X203461735Y-102890498D01*
X203401397Y-102744827D01*
X203401390Y-102744814D01*
X203313789Y-102613711D01*
X203313786Y-102613707D01*
X203202292Y-102502213D01*
X203202288Y-102502210D01*
X203071185Y-102414609D01*
X203071172Y-102414602D01*
X202925501Y-102354264D01*
X202925489Y-102354261D01*
X202770845Y-102323500D01*
X202770842Y-102323500D01*
X202613158Y-102323500D01*
X202613155Y-102323500D01*
X202458510Y-102354261D01*
X202458498Y-102354264D01*
X202312827Y-102414602D01*
X202312814Y-102414609D01*
X202181711Y-102502210D01*
X202181707Y-102502213D01*
X202070213Y-102613707D01*
X202070210Y-102613711D01*
X201982609Y-102744814D01*
X201982602Y-102744827D01*
X201922264Y-102890498D01*
X201922261Y-102890508D01*
X201891362Y-103045849D01*
X201858977Y-103107759D01*
X201857426Y-103109338D01*
X201497584Y-103469181D01*
X201436261Y-103502666D01*
X201409903Y-103505500D01*
X195568046Y-103505500D01*
X195501007Y-103485815D01*
X195455252Y-103433011D01*
X195446429Y-103405691D01*
X195419738Y-103271510D01*
X195419737Y-103271503D01*
X195419735Y-103271498D01*
X195359397Y-103125827D01*
X195359390Y-103125814D01*
X195346398Y-103106370D01*
X195325520Y-103039692D01*
X195325500Y-103037479D01*
X195325500Y-97366041D01*
X216250400Y-97366041D01*
X216250400Y-97705959D01*
X216250718Y-97709185D01*
X216283716Y-98044230D01*
X216283719Y-98044247D01*
X216350027Y-98377607D01*
X216350030Y-98377618D01*
X216448706Y-98702911D01*
X216532711Y-98905716D01*
X216572387Y-99001503D01*
X216578788Y-99016955D01*
X216578790Y-99016960D01*
X216739017Y-99316723D01*
X216739034Y-99316751D01*
X216927859Y-99599349D01*
X216927876Y-99599372D01*
X217143518Y-99862132D01*
X217383867Y-100102481D01*
X217383872Y-100102485D01*
X217383873Y-100102486D01*
X217646633Y-100318128D01*
X217646640Y-100318133D01*
X217646650Y-100318140D01*
X217929248Y-100506965D01*
X217929253Y-100506968D01*
X217929265Y-100506976D01*
X217929274Y-100506980D01*
X217929276Y-100506982D01*
X218229039Y-100667209D01*
X218229041Y-100667209D01*
X218229047Y-100667213D01*
X218543090Y-100797294D01*
X218868372Y-100895967D01*
X218868378Y-100895968D01*
X218868381Y-100895969D01*
X218868392Y-100895972D01*
X219077437Y-100937552D01*
X219201759Y-100962282D01*
X219540041Y-100995600D01*
X219540044Y-100995600D01*
X219879956Y-100995600D01*
X219879959Y-100995600D01*
X220218241Y-100962282D01*
X220383258Y-100929457D01*
X220551607Y-100895972D01*
X220551618Y-100895969D01*
X220551618Y-100895968D01*
X220551628Y-100895967D01*
X220876910Y-100797294D01*
X221190953Y-100667213D01*
X221490735Y-100506976D01*
X221773367Y-100318128D01*
X222036127Y-100102486D01*
X222276486Y-99862127D01*
X222492128Y-99599367D01*
X222680976Y-99316735D01*
X222841213Y-99016953D01*
X222971294Y-98702910D01*
X223069967Y-98377628D01*
X223069969Y-98377618D01*
X223069972Y-98377607D01*
X223112650Y-98163048D01*
X223136282Y-98044241D01*
X223169600Y-97705959D01*
X223169600Y-97366041D01*
X223136282Y-97027759D01*
X223094898Y-96819707D01*
X223069972Y-96694392D01*
X223069969Y-96694381D01*
X223069968Y-96694378D01*
X223069967Y-96694372D01*
X222971294Y-96369090D01*
X222841213Y-96055047D01*
X222830386Y-96034792D01*
X222680982Y-95755276D01*
X222680980Y-95755274D01*
X222680976Y-95755265D01*
X222680965Y-95755248D01*
X222492140Y-95472650D01*
X222492133Y-95472640D01*
X222492128Y-95472633D01*
X222276486Y-95209873D01*
X222276485Y-95209872D01*
X222276481Y-95209867D01*
X222036132Y-94969518D01*
X221773372Y-94753876D01*
X221773349Y-94753859D01*
X221490751Y-94565034D01*
X221490723Y-94565017D01*
X221190960Y-94404790D01*
X221190955Y-94404788D01*
X220876911Y-94274706D01*
X220551618Y-94176030D01*
X220551607Y-94176027D01*
X220218247Y-94109719D01*
X220218230Y-94109716D01*
X219962419Y-94084521D01*
X219879959Y-94076400D01*
X219540041Y-94076400D01*
X219463777Y-94083911D01*
X219201769Y-94109716D01*
X219201752Y-94109719D01*
X218868392Y-94176027D01*
X218868381Y-94176030D01*
X218543088Y-94274706D01*
X218229044Y-94404788D01*
X218229039Y-94404790D01*
X217929276Y-94565017D01*
X217929248Y-94565034D01*
X217646650Y-94753859D01*
X217646627Y-94753876D01*
X217383867Y-94969518D01*
X217143518Y-95209867D01*
X216927876Y-95472627D01*
X216927859Y-95472650D01*
X216739034Y-95755248D01*
X216739017Y-95755276D01*
X216578790Y-96055039D01*
X216578788Y-96055044D01*
X216448706Y-96369088D01*
X216350030Y-96694381D01*
X216350027Y-96694392D01*
X216283719Y-97027752D01*
X216283716Y-97027769D01*
X216261715Y-97251158D01*
X216250400Y-97366041D01*
X195325500Y-97366041D01*
X195325500Y-93921153D01*
X198699500Y-93921153D01*
X198699500Y-94078846D01*
X198730261Y-94233489D01*
X198730264Y-94233501D01*
X198790602Y-94379172D01*
X198790609Y-94379185D01*
X198878602Y-94510874D01*
X198899480Y-94577551D01*
X198899500Y-94579765D01*
X198899500Y-94913330D01*
X198899499Y-94913348D01*
X198899499Y-95079054D01*
X198899498Y-95079054D01*
X198940014Y-95230261D01*
X198940423Y-95231785D01*
X198962335Y-95269737D01*
X198980096Y-95300500D01*
X199019479Y-95368714D01*
X199019481Y-95368717D01*
X199138349Y-95487585D01*
X199138355Y-95487590D01*
X199665425Y-96014660D01*
X199698910Y-96075983D01*
X199699361Y-96078149D01*
X199730261Y-96233491D01*
X199730264Y-96233501D01*
X199790602Y-96379172D01*
X199790609Y-96379185D01*
X199878210Y-96510288D01*
X199878213Y-96510292D01*
X199989707Y-96621786D01*
X199989711Y-96621789D01*
X200120814Y-96709390D01*
X200120827Y-96709397D01*
X200266498Y-96769735D01*
X200266503Y-96769737D01*
X200421153Y-96800499D01*
X200421156Y-96800500D01*
X200421158Y-96800500D01*
X200578844Y-96800500D01*
X200578845Y-96800499D01*
X200733497Y-96769737D01*
X200879179Y-96709394D01*
X201010289Y-96621789D01*
X201121789Y-96510289D01*
X201209394Y-96379179D01*
X201269737Y-96233497D01*
X201300500Y-96078842D01*
X201300500Y-95921158D01*
X201300500Y-95921155D01*
X201300499Y-95921153D01*
X201297022Y-95903672D01*
X201269737Y-95766503D01*
X201266214Y-95757997D01*
X201209397Y-95620827D01*
X201209390Y-95620814D01*
X201121789Y-95489711D01*
X201121786Y-95489707D01*
X201010292Y-95378213D01*
X201010288Y-95378210D01*
X200879185Y-95290609D01*
X200879172Y-95290602D01*
X200733501Y-95230264D01*
X200733491Y-95230261D01*
X200578151Y-95199362D01*
X200516241Y-95166977D01*
X200514662Y-95165426D01*
X200136819Y-94787583D01*
X200122115Y-94760655D01*
X200105523Y-94734837D01*
X200104631Y-94728636D01*
X200103334Y-94726260D01*
X200100500Y-94699902D01*
X200100500Y-94579765D01*
X200120185Y-94512726D01*
X200121398Y-94510874D01*
X200209390Y-94379185D01*
X200209390Y-94379184D01*
X200209394Y-94379179D01*
X200269737Y-94233497D01*
X200300500Y-94078842D01*
X200300500Y-93921158D01*
X200300500Y-93921155D01*
X200300499Y-93921153D01*
X200291957Y-93878210D01*
X200269737Y-93766503D01*
X200255147Y-93731280D01*
X200209397Y-93620827D01*
X200209390Y-93620814D01*
X200121789Y-93489711D01*
X200121786Y-93489707D01*
X200010292Y-93378213D01*
X200010288Y-93378210D01*
X199879185Y-93290609D01*
X199879172Y-93290602D01*
X199733501Y-93230264D01*
X199733489Y-93230261D01*
X199578845Y-93199500D01*
X199578842Y-93199500D01*
X199421158Y-93199500D01*
X199421155Y-93199500D01*
X199266510Y-93230261D01*
X199266498Y-93230264D01*
X199120827Y-93290602D01*
X199120814Y-93290609D01*
X198989711Y-93378210D01*
X198989707Y-93378213D01*
X198878213Y-93489707D01*
X198878210Y-93489711D01*
X198790609Y-93620814D01*
X198790602Y-93620827D01*
X198730264Y-93766498D01*
X198730261Y-93766510D01*
X198699500Y-93921153D01*
X195325500Y-93921153D01*
X195325500Y-93437587D01*
X195325600Y-93371387D01*
X195325500Y-93370880D01*
X195325500Y-93370369D01*
X195325500Y-93370366D01*
X195312740Y-93306221D01*
X195312704Y-93306039D01*
X195307119Y-93277745D01*
X195299837Y-93240843D01*
X195299833Y-93240835D01*
X195299833Y-93240832D01*
X195299832Y-93240830D01*
X195299543Y-93239871D01*
X195274287Y-93178898D01*
X195274287Y-93178897D01*
X195274217Y-93178729D01*
X195249101Y-93117834D01*
X195248818Y-93117409D01*
X195248620Y-93116931D01*
X195235502Y-93097298D01*
X195211935Y-93062027D01*
X195211886Y-93061954D01*
X195179284Y-93013001D01*
X195160875Y-92968459D01*
X195157524Y-92951614D01*
X195154737Y-92937603D01*
X195130599Y-92879330D01*
X195094397Y-92791927D01*
X195094390Y-92791914D01*
X195081398Y-92772470D01*
X195060520Y-92705792D01*
X195060500Y-92703579D01*
X195060500Y-80442653D01*
X195717500Y-80442653D01*
X195717500Y-80600346D01*
X195748261Y-80754989D01*
X195748264Y-80755001D01*
X195808602Y-80900672D01*
X195808609Y-80900685D01*
X195896602Y-81032374D01*
X195917480Y-81099051D01*
X195917500Y-81101265D01*
X195917500Y-89635234D01*
X195897815Y-89702273D01*
X195896602Y-89704125D01*
X195808609Y-89835814D01*
X195808602Y-89835827D01*
X195748264Y-89981498D01*
X195748261Y-89981510D01*
X195717500Y-90136153D01*
X195717500Y-90293846D01*
X195748261Y-90448489D01*
X195748264Y-90448501D01*
X195808602Y-90594172D01*
X195808609Y-90594185D01*
X195896210Y-90725288D01*
X195896213Y-90725292D01*
X196007707Y-90836786D01*
X196007711Y-90836789D01*
X196138814Y-90924390D01*
X196138827Y-90924397D01*
X196284498Y-90984735D01*
X196284503Y-90984737D01*
X196412956Y-91010288D01*
X196439153Y-91015499D01*
X196439156Y-91015500D01*
X196439158Y-91015500D01*
X196596844Y-91015500D01*
X196596845Y-91015499D01*
X196751497Y-90984737D01*
X196897179Y-90924394D01*
X197028289Y-90836789D01*
X197139789Y-90725289D01*
X197227394Y-90594179D01*
X197287737Y-90448497D01*
X197308294Y-90345153D01*
X211035500Y-90345153D01*
X211035500Y-90502846D01*
X211066261Y-90657489D01*
X211066264Y-90657501D01*
X211126602Y-90803172D01*
X211126609Y-90803185D01*
X211214210Y-90934288D01*
X211214213Y-90934292D01*
X211325707Y-91045786D01*
X211325711Y-91045789D01*
X211456814Y-91133390D01*
X211456827Y-91133397D01*
X211602498Y-91193735D01*
X211602503Y-91193737D01*
X211757153Y-91224499D01*
X211757156Y-91224500D01*
X211757158Y-91224500D01*
X211914844Y-91224500D01*
X211914845Y-91224499D01*
X212069497Y-91193737D01*
X212215179Y-91133394D01*
X212346289Y-91045789D01*
X212457789Y-90934289D01*
X212545394Y-90803179D01*
X212605737Y-90657497D01*
X212625113Y-90560085D01*
X212636638Y-90502150D01*
X212669023Y-90440239D01*
X212670519Y-90438715D01*
X214226506Y-88882727D01*
X214226511Y-88882724D01*
X214236714Y-88872520D01*
X214236716Y-88872520D01*
X214348520Y-88760716D01*
X214420138Y-88636669D01*
X214427577Y-88623785D01*
X214468501Y-88471057D01*
X214468501Y-88312943D01*
X214468501Y-88305348D01*
X214468500Y-88305330D01*
X214468500Y-80856044D01*
X216504400Y-80856044D01*
X216504400Y-81195955D01*
X216537716Y-81534230D01*
X216537719Y-81534247D01*
X216604027Y-81867607D01*
X216604030Y-81867618D01*
X216702706Y-82192911D01*
X216832788Y-82506955D01*
X216832790Y-82506960D01*
X216993017Y-82806723D01*
X216993034Y-82806751D01*
X217181859Y-83089349D01*
X217181876Y-83089372D01*
X217397516Y-83352130D01*
X217637867Y-83592481D01*
X217637872Y-83592485D01*
X217637873Y-83592486D01*
X217900633Y-83808128D01*
X217900640Y-83808133D01*
X217900650Y-83808140D01*
X218183248Y-83996965D01*
X218183253Y-83996968D01*
X218183265Y-83996976D01*
X218183274Y-83996980D01*
X218183276Y-83996982D01*
X218483039Y-84157209D01*
X218483041Y-84157209D01*
X218483047Y-84157213D01*
X218797090Y-84287294D01*
X219122372Y-84385967D01*
X219122378Y-84385968D01*
X219122381Y-84385969D01*
X219122392Y-84385972D01*
X219331437Y-84427552D01*
X219455759Y-84452282D01*
X219794041Y-84485600D01*
X219794044Y-84485600D01*
X220133956Y-84485600D01*
X220133959Y-84485600D01*
X220472241Y-84452282D01*
X220637258Y-84419457D01*
X220805607Y-84385972D01*
X220805618Y-84385969D01*
X220805618Y-84385968D01*
X220805628Y-84385967D01*
X221130910Y-84287294D01*
X221444953Y-84157213D01*
X221744735Y-83996976D01*
X222027367Y-83808128D01*
X222290127Y-83592486D01*
X222381460Y-83501153D01*
X222530484Y-83352130D01*
X222654660Y-83200821D01*
X222746128Y-83089367D01*
X222934976Y-82806735D01*
X223095213Y-82506953D01*
X223225294Y-82192910D01*
X223323967Y-81867628D01*
X223323969Y-81867618D01*
X223323972Y-81867607D01*
X223357457Y-81699258D01*
X223390282Y-81534241D01*
X223423600Y-81195959D01*
X223423600Y-80856041D01*
X223390282Y-80517759D01*
X223344580Y-80287998D01*
X223323972Y-80184392D01*
X223323969Y-80184381D01*
X223323968Y-80184378D01*
X223323967Y-80184372D01*
X223225294Y-79859090D01*
X223095213Y-79545047D01*
X223083160Y-79522498D01*
X222934982Y-79245276D01*
X222934980Y-79245274D01*
X222934976Y-79245265D01*
X222860774Y-79134213D01*
X222746140Y-78962650D01*
X222746133Y-78962640D01*
X222746128Y-78962633D01*
X222530486Y-78699873D01*
X222530485Y-78699872D01*
X222530481Y-78699867D01*
X222290132Y-78459518D01*
X222027372Y-78243876D01*
X222027349Y-78243859D01*
X221744751Y-78055034D01*
X221744723Y-78055017D01*
X221444960Y-77894790D01*
X221444955Y-77894788D01*
X221130911Y-77764706D01*
X220805618Y-77666030D01*
X220805607Y-77666027D01*
X220472247Y-77599719D01*
X220472230Y-77599716D01*
X220216419Y-77574521D01*
X220133959Y-77566400D01*
X219794041Y-77566400D01*
X219717777Y-77573911D01*
X219455769Y-77599716D01*
X219455752Y-77599719D01*
X219122392Y-77666027D01*
X219122381Y-77666030D01*
X218797088Y-77764706D01*
X218483044Y-77894788D01*
X218483039Y-77894790D01*
X218183276Y-78055017D01*
X218183248Y-78055034D01*
X217900650Y-78243859D01*
X217900627Y-78243876D01*
X217637867Y-78459518D01*
X217397518Y-78699867D01*
X217181876Y-78962627D01*
X217181859Y-78962650D01*
X216993034Y-79245248D01*
X216993017Y-79245276D01*
X216832790Y-79545039D01*
X216832788Y-79545044D01*
X216702706Y-79859088D01*
X216604030Y-80184381D01*
X216604027Y-80184392D01*
X216537719Y-80517752D01*
X216537716Y-80517769D01*
X216504400Y-80856044D01*
X214468500Y-80856044D01*
X214468500Y-80335765D01*
X214488185Y-80268726D01*
X214489398Y-80266874D01*
X214577390Y-80135185D01*
X214577390Y-80135184D01*
X214577394Y-80135179D01*
X214637737Y-79989497D01*
X214668500Y-79834842D01*
X214668500Y-79677158D01*
X214668500Y-79677155D01*
X214668499Y-79677153D01*
X214657827Y-79623504D01*
X214637737Y-79522503D01*
X214637735Y-79522498D01*
X214577397Y-79376827D01*
X214577390Y-79376814D01*
X214489789Y-79245711D01*
X214489786Y-79245707D01*
X214378292Y-79134213D01*
X214378288Y-79134210D01*
X214247185Y-79046609D01*
X214247172Y-79046602D01*
X214101501Y-78986264D01*
X214101489Y-78986261D01*
X213946845Y-78955500D01*
X213946842Y-78955500D01*
X213789158Y-78955500D01*
X213789155Y-78955500D01*
X213634510Y-78986261D01*
X213634498Y-78986264D01*
X213488827Y-79046602D01*
X213488814Y-79046609D01*
X213357711Y-79134210D01*
X213357707Y-79134213D01*
X213246213Y-79245707D01*
X213246210Y-79245711D01*
X213158609Y-79376814D01*
X213158602Y-79376827D01*
X213098264Y-79522498D01*
X213098261Y-79522510D01*
X213067500Y-79677153D01*
X213067500Y-79834846D01*
X213098261Y-79989489D01*
X213098264Y-79989501D01*
X213158602Y-80135172D01*
X213158609Y-80135185D01*
X213246602Y-80266874D01*
X213267480Y-80333551D01*
X213267500Y-80335765D01*
X213267500Y-88091903D01*
X213247815Y-88158942D01*
X213231181Y-88179584D01*
X211821339Y-89589425D01*
X211760016Y-89622910D01*
X211757850Y-89623361D01*
X211602508Y-89654261D01*
X211602498Y-89654264D01*
X211456827Y-89714602D01*
X211456814Y-89714609D01*
X211325711Y-89802210D01*
X211325707Y-89802213D01*
X211214213Y-89913707D01*
X211214210Y-89913711D01*
X211126609Y-90044814D01*
X211126602Y-90044827D01*
X211066264Y-90190498D01*
X211066261Y-90190510D01*
X211035500Y-90345153D01*
X197308294Y-90345153D01*
X197311828Y-90327385D01*
X197314317Y-90314874D01*
X197314317Y-90314873D01*
X197318499Y-90293846D01*
X197318500Y-90293844D01*
X197318500Y-90136155D01*
X197318499Y-90136153D01*
X197300330Y-90044814D01*
X197287737Y-89981503D01*
X197253771Y-89899500D01*
X197227397Y-89835827D01*
X197227390Y-89835814D01*
X197139398Y-89704125D01*
X197118520Y-89637447D01*
X197118500Y-89635234D01*
X197118500Y-81285513D01*
X198199500Y-81285513D01*
X198199500Y-81474486D01*
X198229059Y-81661118D01*
X198287454Y-81840836D01*
X198363308Y-81989707D01*
X198373240Y-82009199D01*
X198484310Y-82162073D01*
X198617927Y-82295690D01*
X198770801Y-82406760D01*
X198799059Y-82421158D01*
X198933217Y-82489515D01*
X198984013Y-82537490D01*
X199000808Y-82605311D01*
X198978271Y-82671445D01*
X198933217Y-82710485D01*
X198770800Y-82793240D01*
X198683579Y-82856610D01*
X198617927Y-82904310D01*
X198617925Y-82904312D01*
X198617924Y-82904312D01*
X198484312Y-83037924D01*
X198484312Y-83037925D01*
X198484310Y-83037927D01*
X198446933Y-83089372D01*
X198373240Y-83190800D01*
X198287454Y-83359163D01*
X198229059Y-83538881D01*
X198199500Y-83725513D01*
X198199500Y-83914486D01*
X198229059Y-84101118D01*
X198287454Y-84280836D01*
X198341024Y-84385972D01*
X198373240Y-84449199D01*
X198484310Y-84602073D01*
X198617927Y-84735690D01*
X198770801Y-84846760D01*
X198850347Y-84887290D01*
X198939163Y-84932545D01*
X198939165Y-84932545D01*
X198939168Y-84932547D01*
X199035497Y-84963846D01*
X199118881Y-84990940D01*
X199305514Y-85020500D01*
X199305519Y-85020500D01*
X199494486Y-85020500D01*
X199681118Y-84990940D01*
X199860832Y-84932547D01*
X200029199Y-84846760D01*
X200182073Y-84735690D01*
X200315690Y-84602073D01*
X200426760Y-84449199D01*
X200512547Y-84280832D01*
X200570940Y-84101118D01*
X200572269Y-84092726D01*
X200600500Y-83914486D01*
X200600500Y-83725513D01*
X200570940Y-83538881D01*
X200512545Y-83359163D01*
X200457567Y-83251264D01*
X200426760Y-83190801D01*
X200315690Y-83037927D01*
X200182073Y-82904310D01*
X200029199Y-82793240D01*
X199866781Y-82710484D01*
X199815986Y-82662511D01*
X199799191Y-82594690D01*
X199821728Y-82528555D01*
X199866781Y-82489515D01*
X200029199Y-82406760D01*
X200182073Y-82295690D01*
X200315690Y-82162073D01*
X200426760Y-82009199D01*
X200512547Y-81840832D01*
X200570940Y-81661118D01*
X200600500Y-81474486D01*
X200600500Y-81285513D01*
X205819500Y-81285513D01*
X205819500Y-81474486D01*
X205849059Y-81661118D01*
X205907454Y-81840836D01*
X205983308Y-81989707D01*
X205993240Y-82009199D01*
X206104310Y-82162073D01*
X206237927Y-82295690D01*
X206390801Y-82406760D01*
X206419059Y-82421158D01*
X206553217Y-82489515D01*
X206604013Y-82537490D01*
X206620808Y-82605311D01*
X206598271Y-82671445D01*
X206553217Y-82710485D01*
X206390800Y-82793240D01*
X206303579Y-82856610D01*
X206237927Y-82904310D01*
X206237925Y-82904312D01*
X206237924Y-82904312D01*
X206104312Y-83037924D01*
X206104312Y-83037925D01*
X206104310Y-83037927D01*
X206066933Y-83089372D01*
X205993240Y-83190800D01*
X205907454Y-83359163D01*
X205849059Y-83538881D01*
X205819500Y-83725513D01*
X205819500Y-83914486D01*
X205849059Y-84101118D01*
X205907454Y-84280836D01*
X205961024Y-84385972D01*
X205993240Y-84449199D01*
X206104310Y-84602073D01*
X206237927Y-84735690D01*
X206390801Y-84846760D01*
X206470347Y-84887290D01*
X206559163Y-84932545D01*
X206559165Y-84932545D01*
X206559168Y-84932547D01*
X206655497Y-84963846D01*
X206738881Y-84990940D01*
X206925514Y-85020500D01*
X206925519Y-85020500D01*
X207114486Y-85020500D01*
X207301118Y-84990940D01*
X207480832Y-84932547D01*
X207649199Y-84846760D01*
X207802073Y-84735690D01*
X207935690Y-84602073D01*
X208046760Y-84449199D01*
X208132547Y-84280832D01*
X208190940Y-84101118D01*
X208192269Y-84092726D01*
X208220500Y-83914486D01*
X208220500Y-83725513D01*
X208190940Y-83538881D01*
X208132545Y-83359163D01*
X208077567Y-83251264D01*
X208046760Y-83190801D01*
X207935690Y-83037927D01*
X207802073Y-82904310D01*
X207649199Y-82793240D01*
X207486781Y-82710484D01*
X207435986Y-82662511D01*
X207419191Y-82594690D01*
X207441728Y-82528555D01*
X207486781Y-82489515D01*
X207649199Y-82406760D01*
X207802073Y-82295690D01*
X207935690Y-82162073D01*
X208046760Y-82009199D01*
X208132547Y-81840832D01*
X208190940Y-81661118D01*
X208220500Y-81474486D01*
X208220500Y-81285513D01*
X208190940Y-81098881D01*
X208132545Y-80919163D01*
X208048900Y-80755001D01*
X208046760Y-80750801D01*
X207935690Y-80597927D01*
X207802073Y-80464310D01*
X207649199Y-80353240D01*
X207480836Y-80267454D01*
X207301118Y-80209059D01*
X207114486Y-80179500D01*
X207114481Y-80179500D01*
X206925519Y-80179500D01*
X206925514Y-80179500D01*
X206738881Y-80209059D01*
X206559163Y-80267454D01*
X206390800Y-80353240D01*
X206303579Y-80416610D01*
X206237927Y-80464310D01*
X206237925Y-80464312D01*
X206237924Y-80464312D01*
X206104312Y-80597924D01*
X206104312Y-80597925D01*
X206104310Y-80597927D01*
X206056610Y-80663579D01*
X205993240Y-80750800D01*
X205907454Y-80919163D01*
X205849059Y-81098881D01*
X205819500Y-81285513D01*
X200600500Y-81285513D01*
X200570940Y-81098881D01*
X200512545Y-80919163D01*
X200428900Y-80755001D01*
X200426760Y-80750801D01*
X200315690Y-80597927D01*
X200182073Y-80464310D01*
X200029199Y-80353240D01*
X199860836Y-80267454D01*
X199681118Y-80209059D01*
X199494486Y-80179500D01*
X199494481Y-80179500D01*
X199305519Y-80179500D01*
X199305514Y-80179500D01*
X199118881Y-80209059D01*
X198939163Y-80267454D01*
X198770800Y-80353240D01*
X198683579Y-80416610D01*
X198617927Y-80464310D01*
X198617925Y-80464312D01*
X198617924Y-80464312D01*
X198484312Y-80597924D01*
X198484312Y-80597925D01*
X198484310Y-80597927D01*
X198436610Y-80663579D01*
X198373240Y-80750800D01*
X198287454Y-80919163D01*
X198229059Y-81098881D01*
X198199500Y-81285513D01*
X197118500Y-81285513D01*
X197118500Y-81101265D01*
X197138185Y-81034226D01*
X197139398Y-81032374D01*
X197227390Y-80900685D01*
X197227390Y-80900684D01*
X197227394Y-80900679D01*
X197287737Y-80754997D01*
X197318500Y-80600342D01*
X197318500Y-80442658D01*
X197318500Y-80442655D01*
X197318499Y-80442653D01*
X197287737Y-80288003D01*
X197279752Y-80268726D01*
X197227397Y-80142327D01*
X197227390Y-80142314D01*
X197139789Y-80011211D01*
X197139786Y-80011207D01*
X197028292Y-79899713D01*
X197028288Y-79899710D01*
X196897185Y-79812109D01*
X196897172Y-79812102D01*
X196751501Y-79751764D01*
X196751489Y-79751761D01*
X196596845Y-79721000D01*
X196596842Y-79721000D01*
X196439158Y-79721000D01*
X196439155Y-79721000D01*
X196284510Y-79751761D01*
X196284498Y-79751764D01*
X196138827Y-79812102D01*
X196138814Y-79812109D01*
X196007711Y-79899710D01*
X196007707Y-79899713D01*
X195896213Y-80011207D01*
X195896210Y-80011211D01*
X195808609Y-80142314D01*
X195808602Y-80142327D01*
X195748264Y-80287998D01*
X195748261Y-80288010D01*
X195717500Y-80442653D01*
X195060500Y-80442653D01*
X195060500Y-74354254D01*
X195080185Y-74287215D01*
X195096814Y-74266576D01*
X197433039Y-71930260D01*
X197433041Y-71930260D01*
X197455348Y-71907953D01*
X197458062Y-71905438D01*
X197458198Y-71905294D01*
X197458691Y-71904609D01*
X197458695Y-71904606D01*
X197458697Y-71904602D01*
X197458704Y-71904596D01*
X197458738Y-71904544D01*
X197460010Y-71902781D01*
X197460021Y-71902765D01*
X197461610Y-71900560D01*
X197463007Y-71898155D01*
X197498223Y-71845447D01*
X197530792Y-71796703D01*
X197532465Y-71794341D01*
X197532617Y-71793972D01*
X197532620Y-71793969D01*
X197532623Y-71793961D01*
X197532626Y-71793957D01*
X197558909Y-71730501D01*
X197581869Y-71675070D01*
X197583021Y-71672545D01*
X197583527Y-71671065D01*
X197583540Y-71671036D01*
X197583541Y-71671029D01*
X197583544Y-71671023D01*
X197583546Y-71671011D01*
X197583729Y-71670478D01*
X197584195Y-71667749D01*
X197601482Y-71580839D01*
X197601483Y-71580832D01*
X197609500Y-71540531D01*
X197609500Y-71540523D01*
X197609501Y-71540518D01*
X197609500Y-71485606D01*
X197609500Y-71025513D01*
X198199500Y-71025513D01*
X198199500Y-71214486D01*
X198229059Y-71401118D01*
X198287454Y-71580836D01*
X198363712Y-71730500D01*
X198373240Y-71749199D01*
X198484310Y-71902073D01*
X198617927Y-72035690D01*
X198770801Y-72146760D01*
X198850347Y-72187290D01*
X198939163Y-72232545D01*
X198939165Y-72232545D01*
X198939168Y-72232547D01*
X199035497Y-72263846D01*
X199118881Y-72290940D01*
X199305514Y-72320500D01*
X199305519Y-72320500D01*
X199494486Y-72320500D01*
X199681118Y-72290940D01*
X199860832Y-72232547D01*
X200029199Y-72146760D01*
X200182073Y-72035690D01*
X200315690Y-71902073D01*
X200426760Y-71749199D01*
X200512547Y-71580832D01*
X200570940Y-71401118D01*
X200600500Y-71214486D01*
X200600500Y-71025513D01*
X205819500Y-71025513D01*
X205819500Y-71214486D01*
X205849059Y-71401118D01*
X205907454Y-71580836D01*
X205983712Y-71730500D01*
X205993240Y-71749199D01*
X206104310Y-71902073D01*
X206237927Y-72035690D01*
X206390801Y-72146760D01*
X206470347Y-72187290D01*
X206559163Y-72232545D01*
X206559165Y-72232545D01*
X206559168Y-72232547D01*
X206655497Y-72263846D01*
X206738881Y-72290940D01*
X206925514Y-72320500D01*
X206925519Y-72320500D01*
X207114486Y-72320500D01*
X207301118Y-72290940D01*
X207480832Y-72232547D01*
X207649199Y-72146760D01*
X207802073Y-72035690D01*
X207935690Y-71902073D01*
X208046760Y-71749199D01*
X208132547Y-71580832D01*
X208190940Y-71401118D01*
X208220500Y-71214486D01*
X208220500Y-71025513D01*
X208190940Y-70838881D01*
X208137958Y-70675821D01*
X208132547Y-70659168D01*
X208132545Y-70659165D01*
X208132545Y-70659163D01*
X208046759Y-70490800D01*
X207935690Y-70337927D01*
X207802073Y-70204310D01*
X207649199Y-70093240D01*
X207480836Y-70007454D01*
X207301118Y-69949059D01*
X207114486Y-69919500D01*
X207114481Y-69919500D01*
X206925519Y-69919500D01*
X206925514Y-69919500D01*
X206738881Y-69949059D01*
X206559163Y-70007454D01*
X206390800Y-70093240D01*
X206303579Y-70156610D01*
X206237927Y-70204310D01*
X206237925Y-70204312D01*
X206237924Y-70204312D01*
X206104312Y-70337924D01*
X206104312Y-70337925D01*
X206104310Y-70337927D01*
X206056610Y-70403579D01*
X205993240Y-70490800D01*
X205907454Y-70659163D01*
X205849059Y-70838881D01*
X205819500Y-71025513D01*
X200600500Y-71025513D01*
X200570940Y-70838881D01*
X200517958Y-70675821D01*
X200512547Y-70659168D01*
X200512545Y-70659165D01*
X200512545Y-70659163D01*
X200426759Y-70490800D01*
X200315690Y-70337927D01*
X200182073Y-70204310D01*
X200029199Y-70093240D01*
X199860836Y-70007454D01*
X199681118Y-69949059D01*
X199494486Y-69919500D01*
X199494481Y-69919500D01*
X199305519Y-69919500D01*
X199305514Y-69919500D01*
X199118881Y-69949059D01*
X198939163Y-70007454D01*
X198770800Y-70093240D01*
X198683579Y-70156610D01*
X198617927Y-70204310D01*
X198617925Y-70204312D01*
X198617924Y-70204312D01*
X198484312Y-70337924D01*
X198484312Y-70337925D01*
X198484310Y-70337927D01*
X198436610Y-70403579D01*
X198373240Y-70490800D01*
X198287454Y-70659163D01*
X198229059Y-70838881D01*
X198199500Y-71025513D01*
X197609500Y-71025513D01*
X197609500Y-68462519D01*
X197629185Y-68395480D01*
X197630398Y-68393628D01*
X197643394Y-68374179D01*
X197703737Y-68228497D01*
X197734500Y-68073842D01*
X197734500Y-67916158D01*
X197734500Y-67916155D01*
X197734499Y-67916153D01*
X197703738Y-67761510D01*
X197703737Y-67761503D01*
X197660196Y-67656385D01*
X197643397Y-67615827D01*
X197643390Y-67615814D01*
X197555789Y-67484711D01*
X197555786Y-67484707D01*
X197444291Y-67373212D01*
X197432556Y-67365371D01*
X197419583Y-67356703D01*
X197374779Y-67303092D01*
X197366071Y-67233767D01*
X197396225Y-67170739D01*
X197400774Y-67165939D01*
X197736329Y-66830384D01*
X197797650Y-66796901D01*
X197867342Y-66801885D01*
X197871457Y-66803505D01*
X197886503Y-66809737D01*
X197886506Y-66809737D01*
X197886511Y-66809739D01*
X198041153Y-66840499D01*
X198041156Y-66840500D01*
X198041158Y-66840500D01*
X198198844Y-66840500D01*
X198198845Y-66840499D01*
X198353497Y-66809737D01*
X198466166Y-66763067D01*
X198499172Y-66749397D01*
X198499172Y-66749396D01*
X198499179Y-66749394D01*
X198630289Y-66661789D01*
X198741789Y-66550289D01*
X198829394Y-66419179D01*
X198889737Y-66273497D01*
X198920500Y-66118842D01*
X198920500Y-65961158D01*
X198920500Y-65961155D01*
X198920499Y-65961153D01*
X198889738Y-65806510D01*
X198889737Y-65806503D01*
X198881340Y-65786230D01*
X198829397Y-65660827D01*
X198829390Y-65660814D01*
X198741789Y-65529711D01*
X198741786Y-65529707D01*
X198630292Y-65418213D01*
X198630288Y-65418210D01*
X198499185Y-65330609D01*
X198499172Y-65330602D01*
X198353501Y-65270264D01*
X198353489Y-65270261D01*
X198198845Y-65239500D01*
X198198842Y-65239500D01*
X198041158Y-65239500D01*
X198041155Y-65239500D01*
X197886510Y-65270261D01*
X197886498Y-65270264D01*
X197740827Y-65330602D01*
X197740813Y-65330610D01*
X197721372Y-65343601D01*
X197654695Y-65364480D01*
X197652480Y-65364500D01*
X197504878Y-65364500D01*
X197374385Y-65390457D01*
X197374377Y-65390459D01*
X197307379Y-65418211D01*
X197251448Y-65441378D01*
X197218288Y-65463535D01*
X197140805Y-65515306D01*
X195233307Y-67422804D01*
X195233304Y-67422808D01*
X195159383Y-67533438D01*
X195159378Y-67533448D01*
X195108459Y-67656377D01*
X195108457Y-67656385D01*
X195082500Y-67786878D01*
X195082500Y-70587479D01*
X195062815Y-70654518D01*
X195061602Y-70656370D01*
X195048609Y-70675814D01*
X195048602Y-70675827D01*
X194988263Y-70821500D01*
X194988262Y-70821503D01*
X194983698Y-70844449D01*
X194951311Y-70906359D01*
X194949762Y-70907935D01*
X193023307Y-72834390D01*
X193023304Y-72834394D01*
X192949383Y-72945024D01*
X192949378Y-72945034D01*
X192898459Y-73067963D01*
X192898457Y-73067971D01*
X192872500Y-73198464D01*
X192872500Y-75678982D01*
X192852815Y-75746021D01*
X192800011Y-75791776D01*
X192730853Y-75801720D01*
X192667297Y-75772695D01*
X192660810Y-75766655D01*
X191502252Y-74607872D01*
X191108583Y-74214127D01*
X191075105Y-74152801D01*
X191074657Y-74150646D01*
X191043738Y-73995210D01*
X191043737Y-73995203D01*
X191043735Y-73995198D01*
X190983397Y-73849527D01*
X190983390Y-73849514D01*
X190895789Y-73718411D01*
X190895786Y-73718407D01*
X190784292Y-73606913D01*
X190784288Y-73606910D01*
X190653185Y-73519309D01*
X190653172Y-73519302D01*
X190507501Y-73458964D01*
X190507489Y-73458961D01*
X190352845Y-73428200D01*
X190352842Y-73428200D01*
X190195158Y-73428200D01*
X190195155Y-73428200D01*
X190040510Y-73458961D01*
X190040498Y-73458964D01*
X189894827Y-73519302D01*
X189894814Y-73519309D01*
X189763711Y-73606910D01*
X189763707Y-73606913D01*
X189652213Y-73718407D01*
X189652210Y-73718411D01*
X189564609Y-73849514D01*
X189564602Y-73849527D01*
X189504264Y-73995198D01*
X189504261Y-73995210D01*
X189473500Y-74149853D01*
X189473500Y-74307546D01*
X189504261Y-74462189D01*
X189504264Y-74462201D01*
X189564602Y-74607872D01*
X189564609Y-74607885D01*
X189652210Y-74738988D01*
X189652213Y-74738992D01*
X189763707Y-74850486D01*
X189763711Y-74850489D01*
X189894814Y-74938090D01*
X189894827Y-74938097D01*
X190040498Y-74998435D01*
X190040503Y-74998437D01*
X190099461Y-75010164D01*
X190195748Y-75029318D01*
X190257659Y-75061703D01*
X190259247Y-75063262D01*
X190775057Y-75579172D01*
X192210191Y-77014584D01*
X192243669Y-77075909D01*
X192246500Y-77102255D01*
X192246500Y-87992834D01*
X192226815Y-88059873D01*
X192225602Y-88061725D01*
X192137609Y-88193414D01*
X192137602Y-88193427D01*
X192077264Y-88339098D01*
X192077261Y-88339110D01*
X192046500Y-88493753D01*
X192046500Y-88651446D01*
X192077261Y-88806089D01*
X192077264Y-88806101D01*
X192137602Y-88951772D01*
X192137609Y-88951785D01*
X192225210Y-89082888D01*
X192225213Y-89082892D01*
X192336707Y-89194386D01*
X192336711Y-89194389D01*
X192467814Y-89281990D01*
X192467827Y-89281997D01*
X192613498Y-89342335D01*
X192613503Y-89342337D01*
X192700681Y-89359677D01*
X192772691Y-89374002D01*
X192834602Y-89406387D01*
X192869176Y-89467102D01*
X192872500Y-89495619D01*
X192872500Y-97981635D01*
X192898457Y-98112128D01*
X192898459Y-98112136D01*
X192949378Y-98235065D01*
X192949383Y-98235075D01*
X193023303Y-98345704D01*
X193023304Y-98345705D01*
X193023305Y-98345706D01*
X193164763Y-98487164D01*
X193198247Y-98548485D01*
X193198698Y-98550651D01*
X193203261Y-98573593D01*
X193203263Y-98573599D01*
X193263602Y-98719272D01*
X193263609Y-98719285D01*
X193351210Y-98850388D01*
X193351213Y-98850392D01*
X193462707Y-98961886D01*
X193462711Y-98961889D01*
X193593814Y-99049490D01*
X193593827Y-99049497D01*
X193702997Y-99094716D01*
X193739503Y-99109837D01*
X193821671Y-99126181D01*
X193874691Y-99136728D01*
X193936602Y-99169113D01*
X193971176Y-99229828D01*
X193974500Y-99258345D01*
X193974500Y-103037479D01*
X193954815Y-103104518D01*
X193953602Y-103106370D01*
X193940609Y-103125814D01*
X193940602Y-103125827D01*
X193880264Y-103271498D01*
X193880261Y-103271510D01*
X193853571Y-103405691D01*
X193821186Y-103467602D01*
X193760471Y-103502176D01*
X193731954Y-103505500D01*
X190903084Y-103505500D01*
X190836045Y-103485815D01*
X190790290Y-103433011D01*
X190781467Y-103405691D01*
X190765343Y-103324631D01*
X190761737Y-103306503D01*
X190719309Y-103204071D01*
X190701397Y-103160827D01*
X190701390Y-103160814D01*
X190613789Y-103029711D01*
X190613786Y-103029707D01*
X190502292Y-102918213D01*
X190502288Y-102918210D01*
X190371185Y-102830609D01*
X190371172Y-102830602D01*
X190225501Y-102770264D01*
X190225489Y-102770261D01*
X190070845Y-102739500D01*
X190070842Y-102739500D01*
X189913158Y-102739500D01*
X189913155Y-102739500D01*
X189758510Y-102770261D01*
X189758498Y-102770264D01*
X189612827Y-102830602D01*
X189612814Y-102830609D01*
X189481711Y-102918210D01*
X189481707Y-102918213D01*
X189370213Y-103029707D01*
X189370210Y-103029711D01*
X189282609Y-103160814D01*
X189282602Y-103160827D01*
X189222264Y-103306498D01*
X189222261Y-103306510D01*
X189191500Y-103461153D01*
X186706500Y-103461153D01*
X186706500Y-99413748D01*
X186706510Y-99413583D01*
X186706509Y-99405485D01*
X186706510Y-99405482D01*
X186706500Y-99322263D01*
X186706500Y-99247443D01*
X186706491Y-99247409D01*
X186706491Y-99247367D01*
X186690256Y-99186811D01*
X186684311Y-99164631D01*
X186684308Y-99164618D01*
X186665578Y-99094720D01*
X186665577Y-99094716D01*
X186665574Y-99094711D01*
X186665550Y-99094653D01*
X186665548Y-99094645D01*
X186626607Y-99027218D01*
X186586520Y-98957784D01*
X186586516Y-98957780D01*
X186586506Y-98957766D01*
X186586478Y-98957729D01*
X186586473Y-98957724D01*
X186534452Y-98905716D01*
X186474716Y-98845980D01*
X186474715Y-98845979D01*
X186469139Y-98840403D01*
X186469006Y-98840287D01*
X185571281Y-97942786D01*
X184943559Y-97315220D01*
X184910066Y-97253901D01*
X184909612Y-97251719D01*
X184881007Y-97107915D01*
X184878737Y-97096503D01*
X184819175Y-96952706D01*
X184818397Y-96950827D01*
X184818390Y-96950814D01*
X184730789Y-96819711D01*
X184730786Y-96819707D01*
X184619292Y-96708213D01*
X184619288Y-96708210D01*
X184488185Y-96620609D01*
X184488172Y-96620602D01*
X184342501Y-96560264D01*
X184342489Y-96560261D01*
X184187845Y-96529500D01*
X184187842Y-96529500D01*
X184030158Y-96529500D01*
X184030155Y-96529500D01*
X183875510Y-96560261D01*
X183875498Y-96560264D01*
X183729827Y-96620602D01*
X183729814Y-96620609D01*
X183598711Y-96708210D01*
X183598707Y-96708213D01*
X183487213Y-96819707D01*
X183487210Y-96819711D01*
X183399609Y-96950814D01*
X183399602Y-96950827D01*
X183339264Y-97096498D01*
X183339261Y-97096510D01*
X183308500Y-97251153D01*
X173759336Y-97251153D01*
X173853056Y-97157400D01*
X173955741Y-97054678D01*
X174009882Y-97000518D01*
X174009884Y-97000515D01*
X174009890Y-97000512D01*
X174009895Y-97000504D01*
X174057695Y-96952706D01*
X174057698Y-96952700D01*
X174057714Y-96952685D01*
X174057756Y-96952634D01*
X174057768Y-96952615D01*
X174057771Y-96952613D01*
X174093464Y-96899171D01*
X174093480Y-96899158D01*
X174093476Y-96899155D01*
X174098915Y-96891013D01*
X174131620Y-96842069D01*
X174131623Y-96842061D01*
X174131628Y-96842054D01*
X174131669Y-96841977D01*
X174131672Y-96841967D01*
X174131676Y-96841963D01*
X174156569Y-96781835D01*
X174182540Y-96719136D01*
X174182541Y-96719130D01*
X174182557Y-96719092D01*
X174182565Y-96719064D01*
X174182572Y-96719027D01*
X174182575Y-96719021D01*
X174195155Y-96655713D01*
X174208500Y-96588631D01*
X174208500Y-96588566D01*
X174208511Y-96588511D01*
X174208500Y-96524872D01*
X174208500Y-93798319D01*
X174228185Y-93731280D01*
X174229398Y-93729428D01*
X174242394Y-93709979D01*
X174302737Y-93564297D01*
X174333500Y-93409642D01*
X174333500Y-93251958D01*
X174333500Y-93251955D01*
X174333499Y-93251953D01*
X174306736Y-93117409D01*
X174302737Y-93097303D01*
X174288060Y-93061870D01*
X174242397Y-92951627D01*
X174242390Y-92951614D01*
X174154789Y-92820511D01*
X174154786Y-92820507D01*
X174043292Y-92709013D01*
X174043288Y-92709010D01*
X173912185Y-92621409D01*
X173912172Y-92621402D01*
X173766501Y-92561064D01*
X173766489Y-92561061D01*
X173611845Y-92530300D01*
X173611842Y-92530300D01*
X173454158Y-92530300D01*
X173454155Y-92530300D01*
X173299510Y-92561061D01*
X173299498Y-92561064D01*
X173153827Y-92621402D01*
X173153814Y-92621409D01*
X173022711Y-92709010D01*
X173022707Y-92709013D01*
X172911213Y-92820507D01*
X172911210Y-92820511D01*
X172823609Y-92951614D01*
X172823602Y-92951627D01*
X172763264Y-93097298D01*
X172763261Y-93097310D01*
X172732500Y-93251953D01*
X172732500Y-93409646D01*
X172763261Y-93564289D01*
X172763264Y-93564301D01*
X172823603Y-93709974D01*
X172823604Y-93709975D01*
X172823606Y-93709979D01*
X172836602Y-93729428D01*
X172857480Y-93796105D01*
X172857500Y-93798319D01*
X172857500Y-96191017D01*
X172837815Y-96258056D01*
X172821197Y-96278683D01*
X171186197Y-97914263D01*
X171124880Y-97947759D01*
X171055187Y-97942786D01*
X170999246Y-97900925D01*
X170974818Y-97835465D01*
X170974500Y-97826597D01*
X170974500Y-86440365D01*
X170994185Y-86373326D01*
X170995398Y-86371474D01*
X171083390Y-86239785D01*
X171083390Y-86239784D01*
X171083394Y-86239779D01*
X171143737Y-86094097D01*
X171166074Y-85981802D01*
X171174641Y-85938735D01*
X171207026Y-85876824D01*
X171208518Y-85875304D01*
X174304236Y-82779500D01*
X174401520Y-82682216D01*
X174480577Y-82545284D01*
X174480577Y-82545280D01*
X174480580Y-82545277D01*
X174502633Y-82462969D01*
X174520545Y-82396120D01*
X174521363Y-82393395D01*
X174521496Y-82392570D01*
X174521500Y-82392557D01*
X174521500Y-82392552D01*
X174521501Y-82392549D01*
X174521500Y-82290130D01*
X174521500Y-80132135D01*
X184738500Y-80132135D01*
X184738500Y-82427870D01*
X184738501Y-82427876D01*
X184744908Y-82487483D01*
X184795202Y-82622328D01*
X184795206Y-82622335D01*
X184881452Y-82737544D01*
X184881455Y-82737547D01*
X184996664Y-82823793D01*
X184996671Y-82823797D01*
X185041618Y-82840561D01*
X185131517Y-82874091D01*
X185191127Y-82880500D01*
X185614500Y-82880499D01*
X185621905Y-82882673D01*
X185629518Y-82881412D01*
X185654955Y-82892377D01*
X185681539Y-82900183D01*
X185686593Y-82906016D01*
X185693680Y-82909071D01*
X185709152Y-82932050D01*
X185727294Y-82952987D01*
X185729375Y-82962086D01*
X185732703Y-82967028D01*
X185737291Y-82996685D01*
X185738472Y-83001847D01*
X185738500Y-83003156D01*
X185738500Y-83022557D01*
X185738501Y-83022564D01*
X185738502Y-83022577D01*
X185738950Y-83024252D01*
X185738951Y-83024253D01*
X185759099Y-83099439D01*
X185759197Y-83099802D01*
X185779423Y-83175284D01*
X185779428Y-83175293D01*
X185779431Y-83175303D01*
X185811551Y-83230932D01*
X185811553Y-83230936D01*
X185858477Y-83312212D01*
X185858486Y-83312223D01*
X185858491Y-83312228D01*
X185858493Y-83312231D01*
X185889602Y-83343338D01*
X185959593Y-83413329D01*
X185975913Y-83429649D01*
X185975956Y-83429687D01*
X187697582Y-85151202D01*
X190066014Y-87519481D01*
X190350178Y-87803626D01*
X190383665Y-87864948D01*
X190386500Y-87891310D01*
X190386500Y-94944734D01*
X190366815Y-95011773D01*
X190365602Y-95013625D01*
X190277609Y-95145314D01*
X190277602Y-95145327D01*
X190217264Y-95290998D01*
X190217261Y-95291010D01*
X190186500Y-95445653D01*
X190186500Y-95603346D01*
X190217261Y-95757989D01*
X190217264Y-95758001D01*
X190277602Y-95903672D01*
X190277609Y-95903685D01*
X190365210Y-96034788D01*
X190365213Y-96034792D01*
X190476707Y-96146286D01*
X190476711Y-96146289D01*
X190607814Y-96233890D01*
X190607827Y-96233897D01*
X190715952Y-96278683D01*
X190753503Y-96294237D01*
X190908153Y-96324999D01*
X190908156Y-96325000D01*
X190908158Y-96325000D01*
X191065844Y-96325000D01*
X191065845Y-96324999D01*
X191220497Y-96294237D01*
X191366179Y-96233894D01*
X191497289Y-96146289D01*
X191608789Y-96034789D01*
X191696394Y-95903679D01*
X191756737Y-95757997D01*
X191787500Y-95603342D01*
X191787500Y-95445658D01*
X191787500Y-95445655D01*
X191787499Y-95445653D01*
X191756737Y-95291003D01*
X191747929Y-95269738D01*
X191696397Y-95145327D01*
X191696390Y-95145314D01*
X191608398Y-95013625D01*
X191587520Y-94946947D01*
X191587500Y-94944734D01*
X191587500Y-87670249D01*
X191587503Y-87670238D01*
X191587500Y-87575369D01*
X191587500Y-87512143D01*
X191587499Y-87512140D01*
X191587498Y-87512131D01*
X191587498Y-87512124D01*
X191563483Y-87422510D01*
X191563483Y-87422508D01*
X191547597Y-87363224D01*
X191547595Y-87363217D01*
X191546574Y-87359406D01*
X191546570Y-87359399D01*
X191546570Y-87359398D01*
X191541188Y-87350078D01*
X191524710Y-87282181D01*
X191547556Y-87216152D01*
X191555958Y-87206218D01*
X191555928Y-87206193D01*
X191559791Y-87201486D01*
X191647390Y-87070385D01*
X191647390Y-87070384D01*
X191647394Y-87070379D01*
X191707737Y-86924697D01*
X191738500Y-86770042D01*
X191738500Y-86612358D01*
X191738500Y-86612355D01*
X191738499Y-86612353D01*
X191707737Y-86457703D01*
X191707735Y-86457698D01*
X191647397Y-86312027D01*
X191647390Y-86312014D01*
X191559789Y-86180911D01*
X191559786Y-86180907D01*
X191448292Y-86069413D01*
X191448288Y-86069410D01*
X191317185Y-85981809D01*
X191317172Y-85981802D01*
X191171501Y-85921464D01*
X191171491Y-85921461D01*
X191016111Y-85890554D01*
X190954200Y-85858169D01*
X190952654Y-85856650D01*
X189376721Y-84280832D01*
X188863822Y-83767970D01*
X188830335Y-83706649D01*
X188827500Y-83680286D01*
X188827500Y-77908965D01*
X188847185Y-77841926D01*
X188848398Y-77840074D01*
X188936390Y-77708385D01*
X188936390Y-77708384D01*
X188936394Y-77708379D01*
X188996737Y-77562697D01*
X189027500Y-77408042D01*
X189027500Y-77250358D01*
X189027500Y-77250355D01*
X189027499Y-77250353D01*
X189011485Y-77169846D01*
X188996737Y-77095703D01*
X188962130Y-77012153D01*
X188936397Y-76950027D01*
X188936390Y-76950014D01*
X188848789Y-76818911D01*
X188848786Y-76818907D01*
X188737292Y-76707413D01*
X188737288Y-76707410D01*
X188606185Y-76619809D01*
X188606172Y-76619802D01*
X188460501Y-76559464D01*
X188460489Y-76559461D01*
X188305845Y-76528700D01*
X188305842Y-76528700D01*
X188148158Y-76528700D01*
X188148155Y-76528700D01*
X187993510Y-76559461D01*
X187993498Y-76559464D01*
X187847827Y-76619802D01*
X187847814Y-76619809D01*
X187716711Y-76707410D01*
X187716707Y-76707413D01*
X187605213Y-76818907D01*
X187605210Y-76818911D01*
X187517609Y-76950014D01*
X187517602Y-76950027D01*
X187457264Y-77095698D01*
X187457261Y-77095710D01*
X187426500Y-77250353D01*
X187426500Y-77408046D01*
X187457261Y-77562689D01*
X187457264Y-77562701D01*
X187517602Y-77708372D01*
X187517609Y-77708385D01*
X187605602Y-77840074D01*
X187626480Y-77906751D01*
X187626500Y-77908965D01*
X187626500Y-79556465D01*
X187606815Y-79623504D01*
X187554011Y-79669259D01*
X187490184Y-79679607D01*
X187490181Y-79679678D01*
X187489858Y-79679660D01*
X187489265Y-79679757D01*
X187486877Y-79679500D01*
X187486873Y-79679500D01*
X187063500Y-79679500D01*
X186996461Y-79659815D01*
X186950706Y-79607011D01*
X186939500Y-79555500D01*
X186939500Y-75779765D01*
X186959185Y-75712726D01*
X186960398Y-75710874D01*
X187048390Y-75579185D01*
X187048390Y-75579184D01*
X187048394Y-75579179D01*
X187108737Y-75433497D01*
X187139500Y-75278842D01*
X187139500Y-75121158D01*
X187139500Y-75121155D01*
X187139499Y-75121153D01*
X187127984Y-75063262D01*
X187108737Y-74966503D01*
X187060682Y-74850486D01*
X187048397Y-74820827D01*
X187048390Y-74820814D01*
X186960789Y-74689711D01*
X186960786Y-74689707D01*
X186849292Y-74578213D01*
X186849288Y-74578210D01*
X186718185Y-74490609D01*
X186718172Y-74490602D01*
X186572501Y-74430264D01*
X186572489Y-74430261D01*
X186417845Y-74399500D01*
X186417842Y-74399500D01*
X186260158Y-74399500D01*
X186260155Y-74399500D01*
X186105510Y-74430261D01*
X186105498Y-74430264D01*
X185959827Y-74490602D01*
X185959814Y-74490609D01*
X185828711Y-74578210D01*
X185828707Y-74578213D01*
X185717213Y-74689707D01*
X185717210Y-74689711D01*
X185629609Y-74820814D01*
X185629602Y-74820827D01*
X185569264Y-74966498D01*
X185569261Y-74966510D01*
X185538500Y-75121153D01*
X185538500Y-75278846D01*
X185569261Y-75433489D01*
X185569264Y-75433501D01*
X185629602Y-75579172D01*
X185629609Y-75579185D01*
X185717602Y-75710874D01*
X185738480Y-75777551D01*
X185738500Y-75779765D01*
X185738500Y-79555500D01*
X185718815Y-79622539D01*
X185666011Y-79668294D01*
X185614500Y-79679500D01*
X185191129Y-79679500D01*
X185191123Y-79679501D01*
X185131516Y-79685908D01*
X184996671Y-79736202D01*
X184996664Y-79736206D01*
X184881455Y-79822452D01*
X184881452Y-79822455D01*
X184795206Y-79937664D01*
X184795202Y-79937671D01*
X184744908Y-80072517D01*
X184738501Y-80132116D01*
X184738500Y-80132135D01*
X174521500Y-80132135D01*
X174521500Y-77670765D01*
X174541185Y-77603726D01*
X174542398Y-77601874D01*
X174630390Y-77470185D01*
X174630390Y-77470184D01*
X174630394Y-77470179D01*
X174690737Y-77324497D01*
X174721500Y-77169842D01*
X174721500Y-77012158D01*
X174721500Y-77012155D01*
X174721499Y-77012153D01*
X174690738Y-76857510D01*
X174690737Y-76857503D01*
X174674750Y-76818907D01*
X174630397Y-76711827D01*
X174630390Y-76711814D01*
X174542789Y-76580711D01*
X174542786Y-76580707D01*
X174431292Y-76469213D01*
X174431288Y-76469210D01*
X174300185Y-76381609D01*
X174300172Y-76381602D01*
X174154501Y-76321264D01*
X174154489Y-76321261D01*
X173999845Y-76290500D01*
X173999842Y-76290500D01*
X173842158Y-76290500D01*
X173842155Y-76290500D01*
X173687510Y-76321261D01*
X173687498Y-76321264D01*
X173541827Y-76381602D01*
X173541814Y-76381609D01*
X173410711Y-76469210D01*
X173410707Y-76469213D01*
X173299213Y-76580707D01*
X173299210Y-76580711D01*
X173211609Y-76711814D01*
X173211602Y-76711827D01*
X173151264Y-76857498D01*
X173151261Y-76857510D01*
X173120500Y-77012153D01*
X173120500Y-77169846D01*
X173151261Y-77324489D01*
X173151264Y-77324501D01*
X173211602Y-77470172D01*
X173211609Y-77470185D01*
X173299602Y-77601874D01*
X173320480Y-77668551D01*
X173320500Y-77670765D01*
X173320500Y-82013408D01*
X173300815Y-82080447D01*
X173284182Y-82101088D01*
X170359325Y-85026027D01*
X170298003Y-85059513D01*
X170295835Y-85059964D01*
X170140508Y-85090861D01*
X170140498Y-85090864D01*
X169994827Y-85151202D01*
X169994814Y-85151209D01*
X169863711Y-85238810D01*
X169863707Y-85238813D01*
X169752213Y-85350307D01*
X169752210Y-85350311D01*
X169664609Y-85481414D01*
X169664602Y-85481427D01*
X169604264Y-85627098D01*
X169604261Y-85627110D01*
X169573500Y-85781753D01*
X169573500Y-85939446D01*
X169604261Y-86094089D01*
X169604264Y-86094101D01*
X169664602Y-86239772D01*
X169664609Y-86239785D01*
X169752602Y-86371474D01*
X169758252Y-86389520D01*
X169768477Y-86405430D01*
X169772928Y-86436389D01*
X169773480Y-86438151D01*
X169773500Y-86440365D01*
X169773500Y-86624365D01*
X169753815Y-86691404D01*
X169701011Y-86737159D01*
X169631853Y-86747103D01*
X169602048Y-86738926D01*
X169500501Y-86696864D01*
X169500489Y-86696861D01*
X169345845Y-86666100D01*
X169345842Y-86666100D01*
X169188158Y-86666100D01*
X169188155Y-86666100D01*
X169033510Y-86696861D01*
X169033498Y-86696864D01*
X168887827Y-86757202D01*
X168887814Y-86757209D01*
X168756711Y-86844810D01*
X168756707Y-86844813D01*
X168645213Y-86956307D01*
X168645210Y-86956311D01*
X168557609Y-87087414D01*
X168557602Y-87087427D01*
X168497264Y-87233098D01*
X168497261Y-87233110D01*
X168466500Y-87387753D01*
X168466500Y-87545446D01*
X168497261Y-87700089D01*
X168497264Y-87700101D01*
X168557602Y-87845772D01*
X168557609Y-87845785D01*
X168645602Y-87977474D01*
X168666480Y-88044151D01*
X168666500Y-88046365D01*
X168666500Y-94539925D01*
X168646815Y-94606964D01*
X168630186Y-94627601D01*
X167534732Y-95723176D01*
X167473411Y-95756665D01*
X167403719Y-95751684D01*
X167347783Y-95709816D01*
X167325429Y-95659691D01*
X167320737Y-95636103D01*
X167307167Y-95603342D01*
X167260397Y-95490427D01*
X167260390Y-95490414D01*
X167172789Y-95359311D01*
X167172786Y-95359307D01*
X167112538Y-95299059D01*
X167079053Y-95237736D01*
X167084037Y-95168044D01*
X167112538Y-95123697D01*
X167509975Y-94726260D01*
X168030520Y-94205716D01*
X168109577Y-94068784D01*
X168150501Y-93916057D01*
X168150501Y-93757942D01*
X168150501Y-93750347D01*
X168150500Y-93750329D01*
X168150500Y-84159765D01*
X168170185Y-84092726D01*
X168171398Y-84090874D01*
X168259390Y-83959185D01*
X168259390Y-83959184D01*
X168259394Y-83959179D01*
X168319737Y-83813497D01*
X168350500Y-83658842D01*
X168350500Y-83501158D01*
X168350500Y-83501155D01*
X168350499Y-83501153D01*
X168336276Y-83429649D01*
X168319737Y-83346503D01*
X168271868Y-83230936D01*
X168259397Y-83200827D01*
X168259390Y-83200814D01*
X168171789Y-83069711D01*
X168171786Y-83069707D01*
X168060292Y-82958213D01*
X168060288Y-82958210D01*
X167929185Y-82870609D01*
X167929172Y-82870602D01*
X167783501Y-82810264D01*
X167783489Y-82810261D01*
X167628845Y-82779500D01*
X167628842Y-82779500D01*
X167471158Y-82779500D01*
X167471155Y-82779500D01*
X167316510Y-82810261D01*
X167316498Y-82810264D01*
X167170827Y-82870602D01*
X167170814Y-82870609D01*
X167039711Y-82958210D01*
X167039707Y-82958213D01*
X166928213Y-83069707D01*
X166928210Y-83069711D01*
X166840609Y-83200814D01*
X166840602Y-83200827D01*
X166780264Y-83346498D01*
X166780261Y-83346510D01*
X166749500Y-83501153D01*
X166749500Y-83658846D01*
X166780261Y-83813489D01*
X166780264Y-83813501D01*
X166840602Y-83959172D01*
X166840609Y-83959185D01*
X166928602Y-84090874D01*
X166949480Y-84157551D01*
X166949500Y-84159765D01*
X166949500Y-93536902D01*
X166929815Y-93603941D01*
X166913181Y-93624583D01*
X160695339Y-99842425D01*
X160634016Y-99875910D01*
X160631850Y-99876361D01*
X160476508Y-99907261D01*
X160476498Y-99907264D01*
X160330827Y-99967602D01*
X160330814Y-99967609D01*
X160199711Y-100055210D01*
X160199707Y-100055213D01*
X160088213Y-100166707D01*
X160088210Y-100166711D01*
X160000609Y-100297814D01*
X160000602Y-100297827D01*
X159940264Y-100443498D01*
X159940261Y-100443510D01*
X159909500Y-100598153D01*
X157296659Y-100598153D01*
X157300500Y-100578842D01*
X157300500Y-100421158D01*
X157300500Y-100421155D01*
X157300499Y-100421153D01*
X157280005Y-100318123D01*
X157269737Y-100266503D01*
X157228402Y-100166711D01*
X157209397Y-100120827D01*
X157209390Y-100120814D01*
X157121789Y-99989711D01*
X157121786Y-99989707D01*
X157010292Y-99878213D01*
X157010288Y-99878210D01*
X156879185Y-99790609D01*
X156879172Y-99790602D01*
X156733501Y-99730264D01*
X156733489Y-99730261D01*
X156578845Y-99699500D01*
X156578842Y-99699500D01*
X156421158Y-99699500D01*
X156421155Y-99699500D01*
X156266510Y-99730261D01*
X156266498Y-99730264D01*
X156120827Y-99790602D01*
X156120814Y-99790609D01*
X155989711Y-99878210D01*
X155989707Y-99878213D01*
X155878213Y-99989707D01*
X155878210Y-99989711D01*
X155790609Y-100120814D01*
X155790602Y-100120827D01*
X155730264Y-100266498D01*
X155730261Y-100266508D01*
X155699361Y-100421850D01*
X155666976Y-100483761D01*
X155665425Y-100485339D01*
X151308584Y-104842181D01*
X151247261Y-104875666D01*
X151220903Y-104878500D01*
X149548337Y-104878500D01*
X149481298Y-104858815D01*
X149479446Y-104857602D01*
X149379185Y-104790609D01*
X149379172Y-104790602D01*
X149233501Y-104730264D01*
X149233489Y-104730261D01*
X149078845Y-104699500D01*
X149078842Y-104699500D01*
X148921158Y-104699500D01*
X148921155Y-104699500D01*
X148766510Y-104730261D01*
X148766498Y-104730264D01*
X148620827Y-104790602D01*
X148620814Y-104790609D01*
X148489711Y-104878210D01*
X148489707Y-104878213D01*
X148378213Y-104989707D01*
X148378210Y-104989711D01*
X148290609Y-105120814D01*
X148290602Y-105120827D01*
X148230264Y-105266498D01*
X148230261Y-105266510D01*
X148199500Y-105421153D01*
X117297269Y-105421153D01*
X117213064Y-105041331D01*
X117211188Y-105030685D01*
X117210228Y-105023390D01*
X117159087Y-104634937D01*
X117158147Y-104624202D01*
X117140617Y-104222673D01*
X117140500Y-104217293D01*
X117140500Y-103921153D01*
X144699500Y-103921153D01*
X144699500Y-104078846D01*
X144730261Y-104233489D01*
X144730264Y-104233501D01*
X144790602Y-104379172D01*
X144790609Y-104379185D01*
X144878210Y-104510288D01*
X144878213Y-104510292D01*
X144989707Y-104621786D01*
X144989711Y-104621789D01*
X145120814Y-104709390D01*
X145120827Y-104709397D01*
X145238872Y-104758292D01*
X145266503Y-104769737D01*
X145421153Y-104800499D01*
X145421156Y-104800500D01*
X145421158Y-104800500D01*
X145578844Y-104800500D01*
X145578845Y-104800499D01*
X145733497Y-104769737D01*
X145879179Y-104709394D01*
X146010289Y-104621789D01*
X146121789Y-104510289D01*
X146209394Y-104379179D01*
X146211302Y-104374574D01*
X146231072Y-104326844D01*
X146269737Y-104233497D01*
X146289113Y-104136085D01*
X146300638Y-104078150D01*
X146333023Y-104016239D01*
X146334518Y-104014716D01*
X147418839Y-102930395D01*
X151521300Y-102930395D01*
X151521300Y-103069605D01*
X151557330Y-103204071D01*
X151626935Y-103324629D01*
X151725371Y-103423065D01*
X151845929Y-103492670D01*
X151980395Y-103528700D01*
X151980397Y-103528700D01*
X152119603Y-103528700D01*
X152119605Y-103528700D01*
X152254071Y-103492670D01*
X152374629Y-103423065D01*
X152473065Y-103324629D01*
X152542670Y-103204071D01*
X152578700Y-103069605D01*
X152578700Y-102930395D01*
X152542670Y-102795929D01*
X152473065Y-102675371D01*
X152374629Y-102576935D01*
X152254071Y-102507330D01*
X152119605Y-102471300D01*
X151980395Y-102471300D01*
X151845928Y-102507330D01*
X151725371Y-102576935D01*
X151725368Y-102576937D01*
X151626937Y-102675368D01*
X151626935Y-102675371D01*
X151557330Y-102795928D01*
X151543156Y-102848827D01*
X151521300Y-102930395D01*
X147418839Y-102930395D01*
X149212416Y-101136819D01*
X149273739Y-101103334D01*
X149300097Y-101100500D01*
X152420234Y-101100500D01*
X152487273Y-101120185D01*
X152489125Y-101121398D01*
X152620814Y-101209390D01*
X152620827Y-101209397D01*
X152766498Y-101269735D01*
X152766503Y-101269737D01*
X152912541Y-101298786D01*
X152921153Y-101300499D01*
X152921156Y-101300500D01*
X152921158Y-101300500D01*
X153078844Y-101300500D01*
X153078845Y-101300499D01*
X153233497Y-101269737D01*
X153379179Y-101209394D01*
X153510289Y-101121789D01*
X153621789Y-101010289D01*
X153709394Y-100879179D01*
X153769737Y-100733497D01*
X153800500Y-100578842D01*
X153800500Y-100421158D01*
X153800500Y-100421155D01*
X153800499Y-100421153D01*
X153780005Y-100318123D01*
X153769737Y-100266503D01*
X153728402Y-100166711D01*
X153709397Y-100120827D01*
X153709390Y-100120814D01*
X153621789Y-99989711D01*
X153621786Y-99989707D01*
X153510292Y-99878213D01*
X153510288Y-99878210D01*
X153379185Y-99790609D01*
X153379172Y-99790602D01*
X153233501Y-99730264D01*
X153233489Y-99730261D01*
X153078845Y-99699500D01*
X153078842Y-99699500D01*
X152921158Y-99699500D01*
X152921155Y-99699500D01*
X152766510Y-99730261D01*
X152766498Y-99730264D01*
X152620827Y-99790602D01*
X152620814Y-99790609D01*
X152489125Y-99878602D01*
X152422447Y-99899480D01*
X152420234Y-99899500D01*
X148920939Y-99899500D01*
X148891969Y-99907262D01*
X148891970Y-99907263D01*
X148768214Y-99940423D01*
X148768209Y-99940426D01*
X148631290Y-100019475D01*
X148631282Y-100019481D01*
X145485339Y-103165425D01*
X145424016Y-103198910D01*
X145421850Y-103199361D01*
X145266508Y-103230261D01*
X145266498Y-103230264D01*
X145120827Y-103290602D01*
X145120814Y-103290609D01*
X144989711Y-103378210D01*
X144989707Y-103378213D01*
X144878213Y-103489707D01*
X144878210Y-103489711D01*
X144790609Y-103620814D01*
X144790602Y-103620827D01*
X144730264Y-103766498D01*
X144730261Y-103766510D01*
X144699500Y-103921153D01*
X117140500Y-103921153D01*
X117140500Y-94421153D01*
X138699500Y-94421153D01*
X138699500Y-94578846D01*
X138730261Y-94733489D01*
X138730264Y-94733501D01*
X138790602Y-94879172D01*
X138790609Y-94879185D01*
X138878210Y-95010288D01*
X138878213Y-95010292D01*
X138989707Y-95121786D01*
X138989711Y-95121789D01*
X139120814Y-95209390D01*
X139120827Y-95209397D01*
X139264890Y-95269069D01*
X139266503Y-95269737D01*
X139373389Y-95290998D01*
X139421153Y-95300499D01*
X139421156Y-95300500D01*
X139421158Y-95300500D01*
X139578844Y-95300500D01*
X139578845Y-95300499D01*
X139733497Y-95269737D01*
X139879179Y-95209394D01*
X140010289Y-95121789D01*
X140121789Y-95010289D01*
X140209394Y-94879179D01*
X140269737Y-94733497D01*
X140294906Y-94606964D01*
X140300638Y-94578150D01*
X140333023Y-94516239D01*
X140334518Y-94514716D01*
X144428082Y-90421153D01*
X153199500Y-90421153D01*
X153199500Y-90578846D01*
X153230261Y-90733489D01*
X153230264Y-90733501D01*
X153290602Y-90879172D01*
X153290609Y-90879185D01*
X153378210Y-91010288D01*
X153378213Y-91010292D01*
X153489707Y-91121786D01*
X153489711Y-91121789D01*
X153620814Y-91209390D01*
X153620827Y-91209397D01*
X153766498Y-91269735D01*
X153766503Y-91269737D01*
X153921153Y-91300499D01*
X153921156Y-91300500D01*
X153921158Y-91300500D01*
X154078844Y-91300500D01*
X154078845Y-91300499D01*
X154233497Y-91269737D01*
X154379179Y-91209394D01*
X154402614Y-91193735D01*
X154510875Y-91121398D01*
X154577553Y-91100520D01*
X154579766Y-91100500D01*
X156420234Y-91100500D01*
X156487273Y-91120185D01*
X156489125Y-91121398D01*
X156620814Y-91209390D01*
X156620827Y-91209397D01*
X156766498Y-91269735D01*
X156766503Y-91269737D01*
X156921153Y-91300499D01*
X156921156Y-91300500D01*
X156921158Y-91300500D01*
X157078844Y-91300500D01*
X157078845Y-91300499D01*
X157233497Y-91269737D01*
X157379179Y-91209394D01*
X157510289Y-91121789D01*
X157621789Y-91010289D01*
X157709394Y-90879179D01*
X157769737Y-90733497D01*
X157800500Y-90578842D01*
X157800500Y-90421158D01*
X157800500Y-90421155D01*
X157800499Y-90421153D01*
X157769737Y-90266503D01*
X157715745Y-90136153D01*
X157709397Y-90120827D01*
X157709390Y-90120814D01*
X157621789Y-89989711D01*
X157621786Y-89989707D01*
X157510292Y-89878213D01*
X157510288Y-89878210D01*
X157379185Y-89790609D01*
X157379172Y-89790602D01*
X157233501Y-89730264D01*
X157233489Y-89730261D01*
X157078845Y-89699500D01*
X157078842Y-89699500D01*
X156921158Y-89699500D01*
X156921155Y-89699500D01*
X156766510Y-89730261D01*
X156766498Y-89730264D01*
X156620827Y-89790602D01*
X156620814Y-89790609D01*
X156489125Y-89878602D01*
X156422447Y-89899480D01*
X156420234Y-89899500D01*
X154579766Y-89899500D01*
X154512727Y-89879815D01*
X154510875Y-89878602D01*
X154379185Y-89790609D01*
X154379172Y-89790602D01*
X154233501Y-89730264D01*
X154233489Y-89730261D01*
X154078845Y-89699500D01*
X154078842Y-89699500D01*
X153921158Y-89699500D01*
X153921155Y-89699500D01*
X153766510Y-89730261D01*
X153766498Y-89730264D01*
X153620827Y-89790602D01*
X153620814Y-89790609D01*
X153489711Y-89878210D01*
X153489707Y-89878213D01*
X153378213Y-89989707D01*
X153378210Y-89989711D01*
X153290609Y-90120814D01*
X153290602Y-90120827D01*
X153230264Y-90266498D01*
X153230261Y-90266510D01*
X153199500Y-90421153D01*
X144428082Y-90421153D01*
X146212416Y-88636819D01*
X146273739Y-88603334D01*
X146300097Y-88600500D01*
X158079055Y-88600500D01*
X158079057Y-88600500D01*
X158231784Y-88559577D01*
X158368716Y-88480520D01*
X158480520Y-88368716D01*
X158559577Y-88231784D01*
X158600500Y-88079057D01*
X158600500Y-86800097D01*
X158620185Y-86733058D01*
X158636819Y-86712416D01*
X159998928Y-85350307D01*
X161480520Y-83868716D01*
X161559577Y-83731784D01*
X161600501Y-83579057D01*
X161600501Y-83420942D01*
X161600501Y-83413347D01*
X161600500Y-83413329D01*
X161600500Y-83079765D01*
X161620185Y-83012726D01*
X161621398Y-83010874D01*
X161709390Y-82879185D01*
X161709390Y-82879184D01*
X161709394Y-82879179D01*
X161769737Y-82733497D01*
X161800500Y-82578842D01*
X161800500Y-82421158D01*
X161800500Y-82421155D01*
X161800499Y-82421153D01*
X161795522Y-82396131D01*
X161769737Y-82266503D01*
X161769735Y-82266498D01*
X161709397Y-82120827D01*
X161709390Y-82120814D01*
X161621789Y-81989711D01*
X161621786Y-81989707D01*
X161510292Y-81878213D01*
X161510288Y-81878210D01*
X161379185Y-81790609D01*
X161379172Y-81790602D01*
X161233501Y-81730264D01*
X161233489Y-81730261D01*
X161078845Y-81699500D01*
X161078842Y-81699500D01*
X160921158Y-81699500D01*
X160921155Y-81699500D01*
X160766510Y-81730261D01*
X160766498Y-81730264D01*
X160620827Y-81790602D01*
X160620814Y-81790609D01*
X160489711Y-81878210D01*
X160489707Y-81878213D01*
X160378213Y-81989707D01*
X160378210Y-81989711D01*
X160290609Y-82120814D01*
X160290602Y-82120827D01*
X160230264Y-82266498D01*
X160230261Y-82266510D01*
X160199500Y-82421153D01*
X160199500Y-82578846D01*
X160230261Y-82733489D01*
X160230264Y-82733501D01*
X160290602Y-82879172D01*
X160290609Y-82879185D01*
X160378602Y-83010874D01*
X160384252Y-83028920D01*
X160394477Y-83044830D01*
X160398928Y-83075789D01*
X160399480Y-83077551D01*
X160399500Y-83079765D01*
X160399500Y-83199902D01*
X160379815Y-83266941D01*
X160363181Y-83287583D01*
X157519481Y-86131282D01*
X157519479Y-86131284D01*
X157497306Y-86169690D01*
X157487934Y-86185924D01*
X157440423Y-86268215D01*
X157399499Y-86420943D01*
X157399499Y-86420945D01*
X157399499Y-86589046D01*
X157399500Y-86589059D01*
X157399500Y-87275500D01*
X157379815Y-87342539D01*
X157327011Y-87388294D01*
X157275500Y-87399500D01*
X146079057Y-87399500D01*
X145920943Y-87399500D01*
X145768215Y-87440423D01*
X145768214Y-87440423D01*
X145768212Y-87440424D01*
X145768209Y-87440425D01*
X145732685Y-87460936D01*
X145732683Y-87460937D01*
X145631290Y-87519475D01*
X145631282Y-87519481D01*
X139485339Y-93665425D01*
X139424016Y-93698910D01*
X139421850Y-93699361D01*
X139266508Y-93730261D01*
X139266498Y-93730264D01*
X139120827Y-93790602D01*
X139120814Y-93790609D01*
X138989711Y-93878210D01*
X138989707Y-93878213D01*
X138878213Y-93989707D01*
X138878210Y-93989711D01*
X138790609Y-94120814D01*
X138790602Y-94120827D01*
X138730264Y-94266498D01*
X138730261Y-94266510D01*
X138699500Y-94421153D01*
X117140500Y-94421153D01*
X117140500Y-84000000D01*
X126500000Y-84000000D01*
X132450000Y-84000000D01*
X132450000Y-66000000D01*
X126500000Y-66000000D01*
X126500000Y-84000000D01*
X117140500Y-84000000D01*
X117140500Y-65108044D01*
X216504400Y-65108044D01*
X216504400Y-65447955D01*
X216537716Y-65786230D01*
X216537719Y-65786247D01*
X216604027Y-66119607D01*
X216604030Y-66119618D01*
X216702706Y-66444911D01*
X216832788Y-66758955D01*
X216832790Y-66758960D01*
X216993017Y-67058723D01*
X216993034Y-67058751D01*
X217181859Y-67341349D01*
X217181876Y-67341372D01*
X217397518Y-67604132D01*
X217637867Y-67844481D01*
X217637872Y-67844485D01*
X217637873Y-67844486D01*
X217900633Y-68060128D01*
X217900640Y-68060133D01*
X217900650Y-68060140D01*
X218183248Y-68248965D01*
X218183253Y-68248968D01*
X218183265Y-68248976D01*
X218183274Y-68248980D01*
X218183276Y-68248982D01*
X218483039Y-68409209D01*
X218483041Y-68409209D01*
X218483047Y-68409213D01*
X218797090Y-68539294D01*
X219122372Y-68637967D01*
X219122378Y-68637968D01*
X219122381Y-68637969D01*
X219122392Y-68637972D01*
X219331437Y-68679552D01*
X219455759Y-68704282D01*
X219794041Y-68737600D01*
X219794044Y-68737600D01*
X220133956Y-68737600D01*
X220133959Y-68737600D01*
X220472241Y-68704282D01*
X220637258Y-68671457D01*
X220805607Y-68637972D01*
X220805618Y-68637969D01*
X220805618Y-68637968D01*
X220805628Y-68637967D01*
X221130910Y-68539294D01*
X221444953Y-68409213D01*
X221744735Y-68248976D01*
X222027367Y-68060128D01*
X222290127Y-67844486D01*
X222530486Y-67604127D01*
X222746128Y-67341367D01*
X222934976Y-67058735D01*
X223095213Y-66758953D01*
X223225294Y-66444910D01*
X223323967Y-66119628D01*
X223323969Y-66119618D01*
X223323972Y-66119607D01*
X223386250Y-65806510D01*
X223390282Y-65786241D01*
X223423600Y-65447959D01*
X223423600Y-65108041D01*
X223390282Y-64769759D01*
X223365552Y-64645437D01*
X223323972Y-64436392D01*
X223323969Y-64436381D01*
X223323968Y-64436378D01*
X223323967Y-64436372D01*
X223225294Y-64111090D01*
X223095213Y-63797047D01*
X222934976Y-63497265D01*
X222934965Y-63497248D01*
X222746140Y-63214650D01*
X222746133Y-63214640D01*
X222746128Y-63214633D01*
X222530486Y-62951873D01*
X222530485Y-62951872D01*
X222530481Y-62951867D01*
X222290132Y-62711518D01*
X222027372Y-62495876D01*
X222027349Y-62495859D01*
X221744751Y-62307034D01*
X221744723Y-62307017D01*
X221444960Y-62146790D01*
X221444955Y-62146788D01*
X221130911Y-62016706D01*
X220805618Y-61918030D01*
X220805607Y-61918027D01*
X220472247Y-61851719D01*
X220472230Y-61851716D01*
X220216419Y-61826521D01*
X220133959Y-61818400D01*
X219794041Y-61818400D01*
X219717777Y-61825911D01*
X219455769Y-61851716D01*
X219455752Y-61851719D01*
X219122392Y-61918027D01*
X219122381Y-61918030D01*
X218797088Y-62016706D01*
X218483044Y-62146788D01*
X218483039Y-62146790D01*
X218183276Y-62307017D01*
X218183248Y-62307034D01*
X217900650Y-62495859D01*
X217900627Y-62495876D01*
X217637867Y-62711518D01*
X217397518Y-62951867D01*
X217181876Y-63214627D01*
X217181859Y-63214650D01*
X216993034Y-63497248D01*
X216993017Y-63497276D01*
X216832790Y-63797039D01*
X216832788Y-63797044D01*
X216702706Y-64111088D01*
X216604030Y-64436381D01*
X216604027Y-64436392D01*
X216537719Y-64769752D01*
X216537716Y-64769769D01*
X216504400Y-65108044D01*
X117140500Y-65108044D01*
X117140500Y-60062135D01*
X189149500Y-60062135D01*
X189149500Y-61857870D01*
X189149501Y-61857876D01*
X189155908Y-61917483D01*
X189206202Y-62052328D01*
X189206206Y-62052335D01*
X189292452Y-62167544D01*
X189292455Y-62167547D01*
X189407664Y-62253793D01*
X189407671Y-62253797D01*
X189542517Y-62304091D01*
X189542516Y-62304091D01*
X189549444Y-62304835D01*
X189602127Y-62310500D01*
X191397872Y-62310499D01*
X191457483Y-62304091D01*
X191592331Y-62253796D01*
X191707546Y-62167546D01*
X191793796Y-62052331D01*
X191844091Y-61917483D01*
X191850500Y-61857873D01*
X191850499Y-60853713D01*
X194229500Y-60853713D01*
X194229500Y-61066286D01*
X194262753Y-61276239D01*
X194328444Y-61478414D01*
X194424951Y-61667820D01*
X194549890Y-61839786D01*
X194700213Y-61990109D01*
X194872179Y-62115048D01*
X194872181Y-62115049D01*
X194872184Y-62115051D01*
X195061588Y-62211557D01*
X195263757Y-62277246D01*
X195473713Y-62310500D01*
X195473714Y-62310500D01*
X195686286Y-62310500D01*
X195686287Y-62310500D01*
X195896243Y-62277246D01*
X196098412Y-62211557D01*
X196287816Y-62115051D01*
X196374138Y-62052335D01*
X196459786Y-61990109D01*
X196459788Y-61990106D01*
X196459792Y-61990104D01*
X196610104Y-61839792D01*
X196610106Y-61839788D01*
X196610109Y-61839786D01*
X196735048Y-61667820D01*
X196735047Y-61667820D01*
X196735051Y-61667816D01*
X196831557Y-61478412D01*
X196897246Y-61276243D01*
X196930500Y-61066287D01*
X196930500Y-60853713D01*
X196897246Y-60643757D01*
X196831557Y-60441588D01*
X196735051Y-60252184D01*
X196735049Y-60252181D01*
X196735048Y-60252179D01*
X196610109Y-60080213D01*
X196459786Y-59929890D01*
X196287820Y-59804951D01*
X196098414Y-59708444D01*
X196098413Y-59708443D01*
X196098412Y-59708443D01*
X195896243Y-59642754D01*
X195896241Y-59642753D01*
X195896240Y-59642753D01*
X195734957Y-59617208D01*
X195686287Y-59609500D01*
X195473713Y-59609500D01*
X195425042Y-59617208D01*
X195263760Y-59642753D01*
X195061585Y-59708444D01*
X194872179Y-59804951D01*
X194700213Y-59929890D01*
X194549890Y-60080213D01*
X194424951Y-60252179D01*
X194328444Y-60441585D01*
X194262753Y-60643760D01*
X194229500Y-60853713D01*
X191850499Y-60853713D01*
X191850499Y-60062128D01*
X191844091Y-60002517D01*
X191793796Y-59867669D01*
X191793795Y-59867668D01*
X191793793Y-59867664D01*
X191707547Y-59752455D01*
X191707544Y-59752452D01*
X191592335Y-59666206D01*
X191592328Y-59666202D01*
X191457482Y-59615908D01*
X191457483Y-59615908D01*
X191397883Y-59609501D01*
X191397881Y-59609500D01*
X191397873Y-59609500D01*
X191397864Y-59609500D01*
X189602129Y-59609500D01*
X189602123Y-59609501D01*
X189542516Y-59615908D01*
X189407671Y-59666202D01*
X189407664Y-59666206D01*
X189292455Y-59752452D01*
X189292452Y-59752455D01*
X189206206Y-59867664D01*
X189206202Y-59867671D01*
X189155908Y-60002517D01*
X189149501Y-60062116D01*
X189149501Y-60062123D01*
X189149500Y-60062135D01*
X117140500Y-60062135D01*
X117140500Y-58342706D01*
X117140618Y-58337297D01*
X117142227Y-58300438D01*
X117158147Y-57935795D01*
X117159087Y-57925064D01*
X117211189Y-57529302D01*
X117213063Y-57518672D01*
X117299463Y-57128950D01*
X117302261Y-57118512D01*
X117422291Y-56737823D01*
X117425979Y-56727691D01*
X117578742Y-56358888D01*
X117583300Y-56349114D01*
X117767617Y-55995045D01*
X117773012Y-55985700D01*
X117987495Y-55649029D01*
X117993685Y-55640189D01*
X118236687Y-55323503D01*
X118243625Y-55315234D01*
X118513304Y-55020932D01*
X118520932Y-55013304D01*
X118815234Y-54743625D01*
X118823503Y-54736687D01*
X119140189Y-54493685D01*
X119149029Y-54487495D01*
X119485700Y-54273012D01*
X119495045Y-54267617D01*
X119849114Y-54083300D01*
X119858888Y-54078742D01*
X120227691Y-53925979D01*
X120237823Y-53922291D01*
X120618521Y-53802258D01*
X120628950Y-53799463D01*
X121018672Y-53713063D01*
X121029302Y-53711189D01*
X121425064Y-53659087D01*
X121435795Y-53658147D01*
X121837297Y-53640617D01*
X121842706Y-53640500D01*
X121887595Y-53640500D01*
X233712405Y-53640500D01*
X233757294Y-53640500D01*
X233762702Y-53640617D01*
G37*
%TD.AperFunction*%
%TD*%
M02*
