%TF.GenerationSoftware,KiCad,Pcbnew,9.0.1-1.fc41*%
%TF.CreationDate,2025-04-10T23:58:53-07:00*%
%TF.ProjectId,Potentiostat KiCAD Prohject,506f7465-6e74-4696-9f73-746174204b69,rev?*%
%TF.SameCoordinates,Original*%
%TF.FileFunction,Soldermask,Top*%
%TF.FilePolarity,Negative*%
%FSLAX46Y46*%
G04 Gerber Fmt 4.6, Leading zero omitted, Abs format (unit mm)*
G04 Created by KiCad (PCBNEW 9.0.1-1.fc41) date 2025-04-10 23:58:53*
%MOMM*%
%LPD*%
G01*
G04 APERTURE LIST*
G04 Aperture macros list*
%AMRoundRect*
0 Rectangle with rounded corners*
0 $1 Rounding radius*
0 $2 $3 $4 $5 $6 $7 $8 $9 X,Y pos of 4 corners*
0 Add a 4 corners polygon primitive as box body*
4,1,4,$2,$3,$4,$5,$6,$7,$8,$9,$2,$3,0*
0 Add four circle primitives for the rounded corners*
1,1,$1+$1,$2,$3*
1,1,$1+$1,$4,$5*
1,1,$1+$1,$6,$7*
1,1,$1+$1,$8,$9*
0 Add four rect primitives between the rounded corners*
20,1,$1+$1,$2,$3,$4,$5,0*
20,1,$1+$1,$4,$5,$6,$7,0*
20,1,$1+$1,$6,$7,$8,$9,0*
20,1,$1+$1,$8,$9,$2,$3,0*%
G04 Aperture macros list end*
%ADD10C,0.150000*%
%ADD11C,3.800000*%
%ADD12C,0.650000*%
%ADD13RoundRect,0.150000X-0.150000X-0.425000X0.150000X-0.425000X0.150000X0.425000X-0.150000X0.425000X0*%
%ADD14RoundRect,0.075000X-0.075000X-0.500000X0.075000X-0.500000X0.075000X0.500000X-0.075000X0.500000X0*%
%ADD15O,1.000000X2.100000*%
%ADD16O,1.000000X1.800000*%
%ADD17C,1.400000*%
%ADD18R,1.400000X1.400000*%
%ADD19R,1.000000X0.900000*%
%ADD20R,0.550000X1.700000*%
%ADD21R,0.900000X0.900000*%
%ADD22R,0.900000X1.500000*%
%ADD23R,1.500000X0.900000*%
%ADD24RoundRect,0.225000X0.225000X0.250000X-0.225000X0.250000X-0.225000X-0.250000X0.225000X-0.250000X0*%
%ADD25R,1.000000X1.000000*%
%ADD26RoundRect,0.200000X0.200000X0.275000X-0.200000X0.275000X-0.200000X-0.275000X0.200000X-0.275000X0*%
%ADD27RoundRect,0.218750X0.218750X0.256250X-0.218750X0.256250X-0.218750X-0.256250X0.218750X-0.256250X0*%
%ADD28RoundRect,0.200000X0.275000X-0.200000X0.275000X0.200000X-0.275000X0.200000X-0.275000X-0.200000X0*%
%ADD29RoundRect,0.200000X-0.200000X-0.275000X0.200000X-0.275000X0.200000X0.275000X-0.200000X0.275000X0*%
%ADD30RoundRect,0.200000X-0.275000X0.200000X-0.275000X-0.200000X0.275000X-0.200000X0.275000X0.200000X0*%
%ADD31C,5.918200*%
%ADD32R,1.700000X1.700000*%
%ADD33O,1.700000X1.700000*%
%ADD34RoundRect,0.150000X-0.825000X-0.150000X0.825000X-0.150000X0.825000X0.150000X-0.825000X0.150000X0*%
%ADD35RoundRect,0.150000X-0.512500X-0.150000X0.512500X-0.150000X0.512500X0.150000X-0.512500X0.150000X0*%
%ADD36RoundRect,0.225000X0.250000X-0.225000X0.250000X0.225000X-0.250000X0.225000X-0.250000X-0.225000X0*%
%ADD37R,2.200000X2.200000*%
%ADD38O,2.200000X2.200000*%
%ADD39RoundRect,0.102000X-1.250000X-4.425000X1.250000X-4.425000X1.250000X4.425000X-1.250000X4.425000X0*%
%ADD40RoundRect,0.150000X0.512500X0.150000X-0.512500X0.150000X-0.512500X-0.150000X0.512500X-0.150000X0*%
%ADD41RoundRect,0.150000X0.150000X-0.825000X0.150000X0.825000X-0.150000X0.825000X-0.150000X-0.825000X0*%
%ADD42RoundRect,0.150000X0.150000X-0.587500X0.150000X0.587500X-0.150000X0.587500X-0.150000X-0.587500X0*%
%ADD43RoundRect,0.375000X-0.625000X-0.375000X0.625000X-0.375000X0.625000X0.375000X-0.625000X0.375000X0*%
%ADD44RoundRect,0.500000X-0.500000X-1.400000X0.500000X-1.400000X0.500000X1.400000X-0.500000X1.400000X0*%
%ADD45RoundRect,0.225000X-0.225000X-0.250000X0.225000X-0.250000X0.225000X0.250000X-0.225000X0.250000X0*%
%ADD46RoundRect,0.150000X-0.150000X0.825000X-0.150000X-0.825000X0.150000X-0.825000X0.150000X0.825000X0*%
%ADD47R,1.100000X0.250000*%
%ADD48RoundRect,0.225000X-0.250000X0.225000X-0.250000X-0.225000X0.250000X-0.225000X0.250000X0.225000X0*%
G04 APERTURE END LIST*
D10*
X225693922Y-55369819D02*
X226932017Y-55369819D01*
X225836779Y-55131723D02*
X226789160Y-55131723D01*
X225932017Y-54417438D02*
X225693922Y-54655533D01*
X225932017Y-54417438D02*
X225932017Y-54988866D01*
X225979636Y-54226961D02*
X225884398Y-54512676D01*
X226027255Y-54655533D02*
X226884398Y-54655533D01*
X226170112Y-54512676D02*
X226789160Y-54512676D01*
X226170112Y-54274580D02*
X226170112Y-54512676D01*
X226312969Y-54988866D02*
X226312969Y-55369819D01*
X226455826Y-54512676D02*
X226455826Y-54988866D01*
X226170112Y-54274580D02*
X226789160Y-54274580D01*
X226789160Y-54274580D02*
X226789160Y-54512676D01*
X226408207Y-54655533D02*
X226217731Y-54846009D01*
X226217731Y-54846009D02*
X226027255Y-54941247D01*
X226503445Y-54655533D02*
X226646303Y-54846009D01*
X226646303Y-54846009D02*
X226932017Y-54941247D01*
X227170112Y-55369819D02*
X228408207Y-55369819D01*
X227170112Y-54846009D02*
X227551064Y-54846009D01*
X227312969Y-55131723D02*
X228265350Y-55131723D01*
X227360588Y-54846009D02*
X227646302Y-54846009D01*
X227360588Y-54512676D02*
X228074874Y-54512676D01*
X227408207Y-54607914D02*
X227170112Y-54846009D01*
X227598683Y-54655533D02*
X227693921Y-54893628D01*
X227789159Y-54941247D02*
X227789159Y-55369819D01*
X227836778Y-54846009D02*
X228217731Y-54846009D01*
X227979635Y-54846009D02*
X228360588Y-54846009D01*
X228027254Y-54607914D02*
X227789159Y-54846009D01*
X228122493Y-54369819D02*
X228312969Y-54560295D01*
X228170112Y-54465057D02*
X227979635Y-54465057D01*
X228217731Y-54655533D02*
X228360588Y-54846009D01*
X227693921Y-54226961D02*
X227551064Y-54369819D01*
X227551064Y-54369819D02*
X227312969Y-54465057D01*
X228884397Y-54941247D02*
X228693921Y-55322200D01*
X229265349Y-54226961D02*
X229265349Y-54512676D01*
X228741540Y-54560295D02*
X229789159Y-54560295D01*
X229789159Y-54560295D02*
X229265349Y-55084104D01*
X229265349Y-55084104D02*
X228979635Y-55179342D01*
X228836778Y-55084104D02*
X229074873Y-55322200D01*
X229074873Y-55322200D02*
X229503444Y-55369819D01*
X229503444Y-55369819D02*
X229932016Y-55369819D01*
X230170111Y-54417438D02*
X231312968Y-54417438D01*
X230408206Y-54655533D02*
X230408206Y-55369819D01*
X230741539Y-54226961D02*
X230741539Y-54417438D01*
X230884396Y-54750771D02*
X231027254Y-54893628D01*
X230455825Y-54465057D02*
X230360587Y-54703152D01*
X230360587Y-54703152D02*
X230122492Y-54893628D01*
X230836777Y-54465057D02*
X230741539Y-54703152D01*
X230741539Y-54703152D02*
X230551063Y-54893628D01*
X230693920Y-54750771D02*
X230789158Y-54941247D01*
X230789158Y-54941247D02*
X231027254Y-55226961D01*
X231027254Y-55226961D02*
X231360587Y-55369819D01*
X230789158Y-54655533D02*
X231265349Y-54655533D01*
X231265349Y-54655533D02*
X231122492Y-54941247D01*
X231122492Y-54941247D02*
X230884396Y-55179342D01*
X230884396Y-55179342D02*
X230503444Y-55369819D01*
X122869819Y-98163220D02*
X121869819Y-98163220D01*
X122346009Y-98163220D02*
X122346009Y-97591792D01*
X122869819Y-97591792D02*
X121869819Y-97591792D01*
X121869819Y-96925125D02*
X121869819Y-96734649D01*
X121869819Y-96734649D02*
X121917438Y-96639411D01*
X121917438Y-96639411D02*
X122012676Y-96544173D01*
X122012676Y-96544173D02*
X122203152Y-96496554D01*
X122203152Y-96496554D02*
X122536485Y-96496554D01*
X122536485Y-96496554D02*
X122726961Y-96544173D01*
X122726961Y-96544173D02*
X122822200Y-96639411D01*
X122822200Y-96639411D02*
X122869819Y-96734649D01*
X122869819Y-96734649D02*
X122869819Y-96925125D01*
X122869819Y-96925125D02*
X122822200Y-97020363D01*
X122822200Y-97020363D02*
X122726961Y-97115601D01*
X122726961Y-97115601D02*
X122536485Y-97163220D01*
X122536485Y-97163220D02*
X122203152Y-97163220D01*
X122203152Y-97163220D02*
X122012676Y-97115601D01*
X122012676Y-97115601D02*
X121917438Y-97020363D01*
X121917438Y-97020363D02*
X121869819Y-96925125D01*
X122869819Y-96067982D02*
X121869819Y-96067982D01*
X121869819Y-96067982D02*
X121869819Y-95687030D01*
X121869819Y-95687030D02*
X121917438Y-95591792D01*
X121917438Y-95591792D02*
X121965057Y-95544173D01*
X121965057Y-95544173D02*
X122060295Y-95496554D01*
X122060295Y-95496554D02*
X122203152Y-95496554D01*
X122203152Y-95496554D02*
X122298390Y-95544173D01*
X122298390Y-95544173D02*
X122346009Y-95591792D01*
X122346009Y-95591792D02*
X122393628Y-95687030D01*
X122393628Y-95687030D02*
X122393628Y-96067982D01*
X122346009Y-95067982D02*
X122346009Y-94734649D01*
X122869819Y-94591792D02*
X122869819Y-95067982D01*
X122869819Y-95067982D02*
X121869819Y-95067982D01*
X121869819Y-95067982D02*
X121869819Y-94591792D01*
X120346009Y-97829887D02*
X120393628Y-97687030D01*
X120393628Y-97687030D02*
X120441247Y-97639411D01*
X120441247Y-97639411D02*
X120536485Y-97591792D01*
X120536485Y-97591792D02*
X120679342Y-97591792D01*
X120679342Y-97591792D02*
X120774580Y-97639411D01*
X120774580Y-97639411D02*
X120822200Y-97687030D01*
X120822200Y-97687030D02*
X120869819Y-97782268D01*
X120869819Y-97782268D02*
X120869819Y-98163220D01*
X120869819Y-98163220D02*
X119869819Y-98163220D01*
X119869819Y-98163220D02*
X119869819Y-97829887D01*
X119869819Y-97829887D02*
X119917438Y-97734649D01*
X119917438Y-97734649D02*
X119965057Y-97687030D01*
X119965057Y-97687030D02*
X120060295Y-97639411D01*
X120060295Y-97639411D02*
X120155533Y-97639411D01*
X120155533Y-97639411D02*
X120250771Y-97687030D01*
X120250771Y-97687030D02*
X120298390Y-97734649D01*
X120298390Y-97734649D02*
X120346009Y-97829887D01*
X120346009Y-97829887D02*
X120346009Y-98163220D01*
X120822200Y-96782268D02*
X120869819Y-96877506D01*
X120869819Y-96877506D02*
X120869819Y-97067982D01*
X120869819Y-97067982D02*
X120822200Y-97163220D01*
X120822200Y-97163220D02*
X120726961Y-97210839D01*
X120726961Y-97210839D02*
X120346009Y-97210839D01*
X120346009Y-97210839D02*
X120250771Y-97163220D01*
X120250771Y-97163220D02*
X120203152Y-97067982D01*
X120203152Y-97067982D02*
X120203152Y-96877506D01*
X120203152Y-96877506D02*
X120250771Y-96782268D01*
X120250771Y-96782268D02*
X120346009Y-96734649D01*
X120346009Y-96734649D02*
X120441247Y-96734649D01*
X120441247Y-96734649D02*
X120536485Y-97210839D01*
X120203152Y-96306077D02*
X120869819Y-96306077D01*
X120298390Y-96306077D02*
X120250771Y-96258458D01*
X120250771Y-96258458D02*
X120203152Y-96163220D01*
X120203152Y-96163220D02*
X120203152Y-96020363D01*
X120203152Y-96020363D02*
X120250771Y-95925125D01*
X120250771Y-95925125D02*
X120346009Y-95877506D01*
X120346009Y-95877506D02*
X120869819Y-95877506D01*
X120822200Y-95020363D02*
X120869819Y-95115601D01*
X120869819Y-95115601D02*
X120869819Y-95306077D01*
X120869819Y-95306077D02*
X120822200Y-95401315D01*
X120822200Y-95401315D02*
X120726961Y-95448934D01*
X120726961Y-95448934D02*
X120346009Y-95448934D01*
X120346009Y-95448934D02*
X120250771Y-95401315D01*
X120250771Y-95401315D02*
X120203152Y-95306077D01*
X120203152Y-95306077D02*
X120203152Y-95115601D01*
X120203152Y-95115601D02*
X120250771Y-95020363D01*
X120250771Y-95020363D02*
X120346009Y-94972744D01*
X120346009Y-94972744D02*
X120441247Y-94972744D01*
X120441247Y-94972744D02*
X120536485Y-95448934D01*
X120869819Y-94115601D02*
X119869819Y-94115601D01*
X120822200Y-94115601D02*
X120869819Y-94210839D01*
X120869819Y-94210839D02*
X120869819Y-94401315D01*
X120869819Y-94401315D02*
X120822200Y-94496553D01*
X120822200Y-94496553D02*
X120774580Y-94544172D01*
X120774580Y-94544172D02*
X120679342Y-94591791D01*
X120679342Y-94591791D02*
X120393628Y-94591791D01*
X120393628Y-94591791D02*
X120298390Y-94544172D01*
X120298390Y-94544172D02*
X120250771Y-94496553D01*
X120250771Y-94496553D02*
X120203152Y-94401315D01*
X120203152Y-94401315D02*
X120203152Y-94210839D01*
X120203152Y-94210839D02*
X120250771Y-94115601D01*
X120869819Y-93639410D02*
X120203152Y-93639410D01*
X119869819Y-93639410D02*
X119917438Y-93687029D01*
X119917438Y-93687029D02*
X119965057Y-93639410D01*
X119965057Y-93639410D02*
X119917438Y-93591791D01*
X119917438Y-93591791D02*
X119869819Y-93639410D01*
X119869819Y-93639410D02*
X119965057Y-93639410D01*
X120822200Y-92734649D02*
X120869819Y-92829887D01*
X120869819Y-92829887D02*
X120869819Y-93020363D01*
X120869819Y-93020363D02*
X120822200Y-93115601D01*
X120822200Y-93115601D02*
X120774580Y-93163220D01*
X120774580Y-93163220D02*
X120679342Y-93210839D01*
X120679342Y-93210839D02*
X120393628Y-93210839D01*
X120393628Y-93210839D02*
X120298390Y-93163220D01*
X120298390Y-93163220D02*
X120250771Y-93115601D01*
X120250771Y-93115601D02*
X120203152Y-93020363D01*
X120203152Y-93020363D02*
X120203152Y-92829887D01*
X120203152Y-92829887D02*
X120250771Y-92734649D01*
X120203152Y-92448934D02*
X120203152Y-92067982D01*
X119869819Y-92306077D02*
X120726961Y-92306077D01*
X120726961Y-92306077D02*
X120822200Y-92258458D01*
X120822200Y-92258458D02*
X120869819Y-92163220D01*
X120869819Y-92163220D02*
X120869819Y-92067982D01*
X120774580Y-90401315D02*
X120822200Y-90448934D01*
X120822200Y-90448934D02*
X120869819Y-90591791D01*
X120869819Y-90591791D02*
X120869819Y-90687029D01*
X120869819Y-90687029D02*
X120822200Y-90829886D01*
X120822200Y-90829886D02*
X120726961Y-90925124D01*
X120726961Y-90925124D02*
X120631723Y-90972743D01*
X120631723Y-90972743D02*
X120441247Y-91020362D01*
X120441247Y-91020362D02*
X120298390Y-91020362D01*
X120298390Y-91020362D02*
X120107914Y-90972743D01*
X120107914Y-90972743D02*
X120012676Y-90925124D01*
X120012676Y-90925124D02*
X119917438Y-90829886D01*
X119917438Y-90829886D02*
X119869819Y-90687029D01*
X119869819Y-90687029D02*
X119869819Y-90591791D01*
X119869819Y-90591791D02*
X119917438Y-90448934D01*
X119917438Y-90448934D02*
X119965057Y-90401315D01*
X120822200Y-89591791D02*
X120869819Y-89687029D01*
X120869819Y-89687029D02*
X120869819Y-89877505D01*
X120869819Y-89877505D02*
X120822200Y-89972743D01*
X120822200Y-89972743D02*
X120726961Y-90020362D01*
X120726961Y-90020362D02*
X120346009Y-90020362D01*
X120346009Y-90020362D02*
X120250771Y-89972743D01*
X120250771Y-89972743D02*
X120203152Y-89877505D01*
X120203152Y-89877505D02*
X120203152Y-89687029D01*
X120203152Y-89687029D02*
X120250771Y-89591791D01*
X120250771Y-89591791D02*
X120346009Y-89544172D01*
X120346009Y-89544172D02*
X120441247Y-89544172D01*
X120441247Y-89544172D02*
X120536485Y-90020362D01*
X120822200Y-88687029D02*
X120869819Y-88782267D01*
X120869819Y-88782267D02*
X120869819Y-88972743D01*
X120869819Y-88972743D02*
X120822200Y-89067981D01*
X120822200Y-89067981D02*
X120774580Y-89115600D01*
X120774580Y-89115600D02*
X120679342Y-89163219D01*
X120679342Y-89163219D02*
X120393628Y-89163219D01*
X120393628Y-89163219D02*
X120298390Y-89115600D01*
X120298390Y-89115600D02*
X120250771Y-89067981D01*
X120250771Y-89067981D02*
X120203152Y-88972743D01*
X120203152Y-88972743D02*
X120203152Y-88782267D01*
X120203152Y-88782267D02*
X120250771Y-88687029D01*
X120869819Y-88258457D02*
X120203152Y-88258457D01*
X119869819Y-88258457D02*
X119917438Y-88306076D01*
X119917438Y-88306076D02*
X119965057Y-88258457D01*
X119965057Y-88258457D02*
X119917438Y-88210838D01*
X119917438Y-88210838D02*
X119869819Y-88258457D01*
X119869819Y-88258457D02*
X119965057Y-88258457D01*
X120869819Y-87639410D02*
X120822200Y-87734648D01*
X120822200Y-87734648D02*
X120726961Y-87782267D01*
X120726961Y-87782267D02*
X119869819Y-87782267D01*
X120869819Y-87258457D02*
X120203152Y-87258457D01*
X119869819Y-87258457D02*
X119917438Y-87306076D01*
X119917438Y-87306076D02*
X119965057Y-87258457D01*
X119965057Y-87258457D02*
X119917438Y-87210838D01*
X119917438Y-87210838D02*
X119869819Y-87258457D01*
X119869819Y-87258457D02*
X119965057Y-87258457D01*
X120869819Y-86639410D02*
X120822200Y-86734648D01*
X120822200Y-86734648D02*
X120774580Y-86782267D01*
X120774580Y-86782267D02*
X120679342Y-86829886D01*
X120679342Y-86829886D02*
X120393628Y-86829886D01*
X120393628Y-86829886D02*
X120298390Y-86782267D01*
X120298390Y-86782267D02*
X120250771Y-86734648D01*
X120250771Y-86734648D02*
X120203152Y-86639410D01*
X120203152Y-86639410D02*
X120203152Y-86496553D01*
X120203152Y-86496553D02*
X120250771Y-86401315D01*
X120250771Y-86401315D02*
X120298390Y-86353696D01*
X120298390Y-86353696D02*
X120393628Y-86306077D01*
X120393628Y-86306077D02*
X120679342Y-86306077D01*
X120679342Y-86306077D02*
X120774580Y-86353696D01*
X120774580Y-86353696D02*
X120822200Y-86401315D01*
X120822200Y-86401315D02*
X120869819Y-86496553D01*
X120869819Y-86496553D02*
X120869819Y-86639410D01*
X120822200Y-85829886D02*
X120869819Y-85829886D01*
X120869819Y-85829886D02*
X120965057Y-85877505D01*
X120965057Y-85877505D02*
X121012676Y-85925124D01*
X120822200Y-84687029D02*
X120869819Y-84544172D01*
X120869819Y-84544172D02*
X120869819Y-84306077D01*
X120869819Y-84306077D02*
X120822200Y-84210839D01*
X120822200Y-84210839D02*
X120774580Y-84163220D01*
X120774580Y-84163220D02*
X120679342Y-84115601D01*
X120679342Y-84115601D02*
X120584104Y-84115601D01*
X120584104Y-84115601D02*
X120488866Y-84163220D01*
X120488866Y-84163220D02*
X120441247Y-84210839D01*
X120441247Y-84210839D02*
X120393628Y-84306077D01*
X120393628Y-84306077D02*
X120346009Y-84496553D01*
X120346009Y-84496553D02*
X120298390Y-84591791D01*
X120298390Y-84591791D02*
X120250771Y-84639410D01*
X120250771Y-84639410D02*
X120155533Y-84687029D01*
X120155533Y-84687029D02*
X120060295Y-84687029D01*
X120060295Y-84687029D02*
X119965057Y-84639410D01*
X119965057Y-84639410D02*
X119917438Y-84591791D01*
X119917438Y-84591791D02*
X119869819Y-84496553D01*
X119869819Y-84496553D02*
X119869819Y-84258458D01*
X119869819Y-84258458D02*
X119917438Y-84115601D01*
X120869819Y-83544172D02*
X120822200Y-83639410D01*
X120822200Y-83639410D02*
X120774580Y-83687029D01*
X120774580Y-83687029D02*
X120679342Y-83734648D01*
X120679342Y-83734648D02*
X120393628Y-83734648D01*
X120393628Y-83734648D02*
X120298390Y-83687029D01*
X120298390Y-83687029D02*
X120250771Y-83639410D01*
X120250771Y-83639410D02*
X120203152Y-83544172D01*
X120203152Y-83544172D02*
X120203152Y-83401315D01*
X120203152Y-83401315D02*
X120250771Y-83306077D01*
X120250771Y-83306077D02*
X120298390Y-83258458D01*
X120298390Y-83258458D02*
X120393628Y-83210839D01*
X120393628Y-83210839D02*
X120679342Y-83210839D01*
X120679342Y-83210839D02*
X120774580Y-83258458D01*
X120774580Y-83258458D02*
X120822200Y-83306077D01*
X120822200Y-83306077D02*
X120869819Y-83401315D01*
X120869819Y-83401315D02*
X120869819Y-83544172D01*
X120203152Y-82782267D02*
X121203152Y-82782267D01*
X120250771Y-82782267D02*
X120203152Y-82687029D01*
X120203152Y-82687029D02*
X120203152Y-82496553D01*
X120203152Y-82496553D02*
X120250771Y-82401315D01*
X120250771Y-82401315D02*
X120298390Y-82353696D01*
X120298390Y-82353696D02*
X120393628Y-82306077D01*
X120393628Y-82306077D02*
X120679342Y-82306077D01*
X120679342Y-82306077D02*
X120774580Y-82353696D01*
X120774580Y-82353696D02*
X120822200Y-82401315D01*
X120822200Y-82401315D02*
X120869819Y-82496553D01*
X120869819Y-82496553D02*
X120869819Y-82687029D01*
X120869819Y-82687029D02*
X120822200Y-82782267D01*
X120869819Y-81877505D02*
X119869819Y-81877505D01*
X120869819Y-81448934D02*
X120346009Y-81448934D01*
X120346009Y-81448934D02*
X120250771Y-81496553D01*
X120250771Y-81496553D02*
X120203152Y-81591791D01*
X120203152Y-81591791D02*
X120203152Y-81734648D01*
X120203152Y-81734648D02*
X120250771Y-81829886D01*
X120250771Y-81829886D02*
X120298390Y-81877505D01*
X120869819Y-80972743D02*
X120203152Y-80972743D01*
X119869819Y-80972743D02*
X119917438Y-81020362D01*
X119917438Y-81020362D02*
X119965057Y-80972743D01*
X119965057Y-80972743D02*
X119917438Y-80925124D01*
X119917438Y-80925124D02*
X119869819Y-80972743D01*
X119869819Y-80972743D02*
X119965057Y-80972743D01*
X120822200Y-80115601D02*
X120869819Y-80210839D01*
X120869819Y-80210839D02*
X120869819Y-80401315D01*
X120869819Y-80401315D02*
X120822200Y-80496553D01*
X120822200Y-80496553D02*
X120726961Y-80544172D01*
X120726961Y-80544172D02*
X120346009Y-80544172D01*
X120346009Y-80544172D02*
X120250771Y-80496553D01*
X120250771Y-80496553D02*
X120203152Y-80401315D01*
X120203152Y-80401315D02*
X120203152Y-80210839D01*
X120203152Y-80210839D02*
X120250771Y-80115601D01*
X120250771Y-80115601D02*
X120346009Y-80067982D01*
X120346009Y-80067982D02*
X120441247Y-80067982D01*
X120441247Y-80067982D02*
X120536485Y-80544172D01*
X120822200Y-78925124D02*
X120869819Y-78782267D01*
X120869819Y-78782267D02*
X120869819Y-78544172D01*
X120869819Y-78544172D02*
X120822200Y-78448934D01*
X120822200Y-78448934D02*
X120774580Y-78401315D01*
X120774580Y-78401315D02*
X120679342Y-78353696D01*
X120679342Y-78353696D02*
X120584104Y-78353696D01*
X120584104Y-78353696D02*
X120488866Y-78401315D01*
X120488866Y-78401315D02*
X120441247Y-78448934D01*
X120441247Y-78448934D02*
X120393628Y-78544172D01*
X120393628Y-78544172D02*
X120346009Y-78734648D01*
X120346009Y-78734648D02*
X120298390Y-78829886D01*
X120298390Y-78829886D02*
X120250771Y-78877505D01*
X120250771Y-78877505D02*
X120155533Y-78925124D01*
X120155533Y-78925124D02*
X120060295Y-78925124D01*
X120060295Y-78925124D02*
X119965057Y-78877505D01*
X119965057Y-78877505D02*
X119917438Y-78829886D01*
X119917438Y-78829886D02*
X119869819Y-78734648D01*
X119869819Y-78734648D02*
X119869819Y-78496553D01*
X119869819Y-78496553D02*
X119917438Y-78353696D01*
X120203152Y-77496553D02*
X120869819Y-77496553D01*
X120203152Y-77925124D02*
X120726961Y-77925124D01*
X120726961Y-77925124D02*
X120822200Y-77877505D01*
X120822200Y-77877505D02*
X120869819Y-77782267D01*
X120869819Y-77782267D02*
X120869819Y-77639410D01*
X120869819Y-77639410D02*
X120822200Y-77544172D01*
X120822200Y-77544172D02*
X120774580Y-77496553D01*
X120203152Y-77020362D02*
X120869819Y-77020362D01*
X120298390Y-77020362D02*
X120250771Y-76972743D01*
X120250771Y-76972743D02*
X120203152Y-76877505D01*
X120203152Y-76877505D02*
X120203152Y-76734648D01*
X120203152Y-76734648D02*
X120250771Y-76639410D01*
X120250771Y-76639410D02*
X120346009Y-76591791D01*
X120346009Y-76591791D02*
X120869819Y-76591791D01*
X120822200Y-76067981D02*
X120869819Y-76067981D01*
X120869819Y-76067981D02*
X120965057Y-76115600D01*
X120965057Y-76115600D02*
X121012676Y-76163219D01*
X120393628Y-74687029D02*
X120869819Y-74687029D01*
X119869819Y-75020362D02*
X120393628Y-74687029D01*
X120393628Y-74687029D02*
X119869819Y-74353696D01*
X120869819Y-73591791D02*
X120346009Y-73591791D01*
X120346009Y-73591791D02*
X120250771Y-73639410D01*
X120250771Y-73639410D02*
X120203152Y-73734648D01*
X120203152Y-73734648D02*
X120203152Y-73925124D01*
X120203152Y-73925124D02*
X120250771Y-74020362D01*
X120822200Y-73591791D02*
X120869819Y-73687029D01*
X120869819Y-73687029D02*
X120869819Y-73925124D01*
X120869819Y-73925124D02*
X120822200Y-74020362D01*
X120822200Y-74020362D02*
X120726961Y-74067981D01*
X120726961Y-74067981D02*
X120631723Y-74067981D01*
X120631723Y-74067981D02*
X120536485Y-74020362D01*
X120536485Y-74020362D02*
X120488866Y-73925124D01*
X120488866Y-73925124D02*
X120488866Y-73687029D01*
X120488866Y-73687029D02*
X120441247Y-73591791D01*
X120822200Y-73163219D02*
X120869819Y-73067981D01*
X120869819Y-73067981D02*
X120869819Y-72877505D01*
X120869819Y-72877505D02*
X120822200Y-72782267D01*
X120822200Y-72782267D02*
X120726961Y-72734648D01*
X120726961Y-72734648D02*
X120679342Y-72734648D01*
X120679342Y-72734648D02*
X120584104Y-72782267D01*
X120584104Y-72782267D02*
X120536485Y-72877505D01*
X120536485Y-72877505D02*
X120536485Y-73020362D01*
X120536485Y-73020362D02*
X120488866Y-73115600D01*
X120488866Y-73115600D02*
X120393628Y-73163219D01*
X120393628Y-73163219D02*
X120346009Y-73163219D01*
X120346009Y-73163219D02*
X120250771Y-73115600D01*
X120250771Y-73115600D02*
X120203152Y-73020362D01*
X120203152Y-73020362D02*
X120203152Y-72877505D01*
X120203152Y-72877505D02*
X120250771Y-72782267D01*
X120869819Y-72306076D02*
X119869819Y-72306076D01*
X120869819Y-71877505D02*
X120346009Y-71877505D01*
X120346009Y-71877505D02*
X120250771Y-71925124D01*
X120250771Y-71925124D02*
X120203152Y-72020362D01*
X120203152Y-72020362D02*
X120203152Y-72163219D01*
X120203152Y-72163219D02*
X120250771Y-72258457D01*
X120250771Y-72258457D02*
X120298390Y-72306076D01*
X120869819Y-71401314D02*
X120203152Y-71401314D01*
X119869819Y-71401314D02*
X119917438Y-71448933D01*
X119917438Y-71448933D02*
X119965057Y-71401314D01*
X119965057Y-71401314D02*
X119917438Y-71353695D01*
X119917438Y-71353695D02*
X119869819Y-71401314D01*
X119869819Y-71401314D02*
X119965057Y-71401314D01*
X120869819Y-70782267D02*
X120822200Y-70877505D01*
X120822200Y-70877505D02*
X120726961Y-70925124D01*
X120726961Y-70925124D02*
X119869819Y-70925124D01*
X119869819Y-69782266D02*
X119869819Y-69210838D01*
X120869819Y-69496552D02*
X119869819Y-69496552D01*
X120869819Y-68877504D02*
X120203152Y-68877504D01*
X120393628Y-68877504D02*
X120298390Y-68829885D01*
X120298390Y-68829885D02*
X120250771Y-68782266D01*
X120250771Y-68782266D02*
X120203152Y-68687028D01*
X120203152Y-68687028D02*
X120203152Y-68591790D01*
X120869819Y-68258456D02*
X120203152Y-68258456D01*
X119869819Y-68258456D02*
X119917438Y-68306075D01*
X119917438Y-68306075D02*
X119965057Y-68258456D01*
X119965057Y-68258456D02*
X119917438Y-68210837D01*
X119917438Y-68210837D02*
X119869819Y-68258456D01*
X119869819Y-68258456D02*
X119965057Y-68258456D01*
X120203152Y-67877504D02*
X120869819Y-67639409D01*
X120869819Y-67639409D02*
X120203152Y-67401314D01*
X120822200Y-66639409D02*
X120869819Y-66734647D01*
X120869819Y-66734647D02*
X120869819Y-66925123D01*
X120869819Y-66925123D02*
X120822200Y-67020361D01*
X120822200Y-67020361D02*
X120726961Y-67067980D01*
X120726961Y-67067980D02*
X120346009Y-67067980D01*
X120346009Y-67067980D02*
X120250771Y-67020361D01*
X120250771Y-67020361D02*
X120203152Y-66925123D01*
X120203152Y-66925123D02*
X120203152Y-66734647D01*
X120203152Y-66734647D02*
X120250771Y-66639409D01*
X120250771Y-66639409D02*
X120346009Y-66591790D01*
X120346009Y-66591790D02*
X120441247Y-66591790D01*
X120441247Y-66591790D02*
X120536485Y-67067980D01*
X120869819Y-65734647D02*
X119869819Y-65734647D01*
X120822200Y-65734647D02*
X120869819Y-65829885D01*
X120869819Y-65829885D02*
X120869819Y-66020361D01*
X120869819Y-66020361D02*
X120822200Y-66115599D01*
X120822200Y-66115599D02*
X120774580Y-66163218D01*
X120774580Y-66163218D02*
X120679342Y-66210837D01*
X120679342Y-66210837D02*
X120393628Y-66210837D01*
X120393628Y-66210837D02*
X120298390Y-66163218D01*
X120298390Y-66163218D02*
X120250771Y-66115599D01*
X120250771Y-66115599D02*
X120203152Y-66020361D01*
X120203152Y-66020361D02*
X120203152Y-65829885D01*
X120203152Y-65829885D02*
X120250771Y-65734647D01*
X120869819Y-65258456D02*
X120203152Y-65258456D01*
X119869819Y-65258456D02*
X119917438Y-65306075D01*
X119917438Y-65306075D02*
X119965057Y-65258456D01*
X119965057Y-65258456D02*
X119917438Y-65210837D01*
X119917438Y-65210837D02*
X119869819Y-65258456D01*
X119869819Y-65258456D02*
X119965057Y-65258456D01*
X118869819Y-98163220D02*
X117869819Y-98163220D01*
X117869819Y-98163220D02*
X117869819Y-97782268D01*
X117869819Y-97782268D02*
X117917438Y-97687030D01*
X117917438Y-97687030D02*
X117965057Y-97639411D01*
X117965057Y-97639411D02*
X118060295Y-97591792D01*
X118060295Y-97591792D02*
X118203152Y-97591792D01*
X118203152Y-97591792D02*
X118298390Y-97639411D01*
X118298390Y-97639411D02*
X118346009Y-97687030D01*
X118346009Y-97687030D02*
X118393628Y-97782268D01*
X118393628Y-97782268D02*
X118393628Y-98163220D01*
X118869819Y-97020363D02*
X118822200Y-97115601D01*
X118822200Y-97115601D02*
X118774580Y-97163220D01*
X118774580Y-97163220D02*
X118679342Y-97210839D01*
X118679342Y-97210839D02*
X118393628Y-97210839D01*
X118393628Y-97210839D02*
X118298390Y-97163220D01*
X118298390Y-97163220D02*
X118250771Y-97115601D01*
X118250771Y-97115601D02*
X118203152Y-97020363D01*
X118203152Y-97020363D02*
X118203152Y-96877506D01*
X118203152Y-96877506D02*
X118250771Y-96782268D01*
X118250771Y-96782268D02*
X118298390Y-96734649D01*
X118298390Y-96734649D02*
X118393628Y-96687030D01*
X118393628Y-96687030D02*
X118679342Y-96687030D01*
X118679342Y-96687030D02*
X118774580Y-96734649D01*
X118774580Y-96734649D02*
X118822200Y-96782268D01*
X118822200Y-96782268D02*
X118869819Y-96877506D01*
X118869819Y-96877506D02*
X118869819Y-97020363D01*
X118822200Y-95829887D02*
X118869819Y-95925125D01*
X118869819Y-95925125D02*
X118869819Y-96115601D01*
X118869819Y-96115601D02*
X118822200Y-96210839D01*
X118822200Y-96210839D02*
X118774580Y-96258458D01*
X118774580Y-96258458D02*
X118679342Y-96306077D01*
X118679342Y-96306077D02*
X118393628Y-96306077D01*
X118393628Y-96306077D02*
X118298390Y-96258458D01*
X118298390Y-96258458D02*
X118250771Y-96210839D01*
X118250771Y-96210839D02*
X118203152Y-96115601D01*
X118203152Y-96115601D02*
X118203152Y-95925125D01*
X118203152Y-95925125D02*
X118250771Y-95829887D01*
X118869819Y-95401315D02*
X117869819Y-95401315D01*
X118488866Y-95306077D02*
X118869819Y-95020363D01*
X118203152Y-95020363D02*
X118584104Y-95401315D01*
X118822200Y-94210839D02*
X118869819Y-94306077D01*
X118869819Y-94306077D02*
X118869819Y-94496553D01*
X118869819Y-94496553D02*
X118822200Y-94591791D01*
X118822200Y-94591791D02*
X118726961Y-94639410D01*
X118726961Y-94639410D02*
X118346009Y-94639410D01*
X118346009Y-94639410D02*
X118250771Y-94591791D01*
X118250771Y-94591791D02*
X118203152Y-94496553D01*
X118203152Y-94496553D02*
X118203152Y-94306077D01*
X118203152Y-94306077D02*
X118250771Y-94210839D01*
X118250771Y-94210839D02*
X118346009Y-94163220D01*
X118346009Y-94163220D02*
X118441247Y-94163220D01*
X118441247Y-94163220D02*
X118536485Y-94639410D01*
X118203152Y-93877505D02*
X118203152Y-93496553D01*
X117869819Y-93734648D02*
X118726961Y-93734648D01*
X118726961Y-93734648D02*
X118822200Y-93687029D01*
X118822200Y-93687029D02*
X118869819Y-93591791D01*
X118869819Y-93591791D02*
X118869819Y-93496553D01*
X118869819Y-92401314D02*
X117869819Y-92401314D01*
X117869819Y-92401314D02*
X117869819Y-92020362D01*
X117869819Y-92020362D02*
X117917438Y-91925124D01*
X117917438Y-91925124D02*
X117965057Y-91877505D01*
X117965057Y-91877505D02*
X118060295Y-91829886D01*
X118060295Y-91829886D02*
X118203152Y-91829886D01*
X118203152Y-91829886D02*
X118298390Y-91877505D01*
X118298390Y-91877505D02*
X118346009Y-91925124D01*
X118346009Y-91925124D02*
X118393628Y-92020362D01*
X118393628Y-92020362D02*
X118393628Y-92401314D01*
X118869819Y-91258457D02*
X118822200Y-91353695D01*
X118822200Y-91353695D02*
X118774580Y-91401314D01*
X118774580Y-91401314D02*
X118679342Y-91448933D01*
X118679342Y-91448933D02*
X118393628Y-91448933D01*
X118393628Y-91448933D02*
X118298390Y-91401314D01*
X118298390Y-91401314D02*
X118250771Y-91353695D01*
X118250771Y-91353695D02*
X118203152Y-91258457D01*
X118203152Y-91258457D02*
X118203152Y-91115600D01*
X118203152Y-91115600D02*
X118250771Y-91020362D01*
X118250771Y-91020362D02*
X118298390Y-90972743D01*
X118298390Y-90972743D02*
X118393628Y-90925124D01*
X118393628Y-90925124D02*
X118679342Y-90925124D01*
X118679342Y-90925124D02*
X118774580Y-90972743D01*
X118774580Y-90972743D02*
X118822200Y-91020362D01*
X118822200Y-91020362D02*
X118869819Y-91115600D01*
X118869819Y-91115600D02*
X118869819Y-91258457D01*
X118203152Y-90639409D02*
X118203152Y-90258457D01*
X117869819Y-90496552D02*
X118726961Y-90496552D01*
X118726961Y-90496552D02*
X118822200Y-90448933D01*
X118822200Y-90448933D02*
X118869819Y-90353695D01*
X118869819Y-90353695D02*
X118869819Y-90258457D01*
X118822200Y-89544171D02*
X118869819Y-89639409D01*
X118869819Y-89639409D02*
X118869819Y-89829885D01*
X118869819Y-89829885D02*
X118822200Y-89925123D01*
X118822200Y-89925123D02*
X118726961Y-89972742D01*
X118726961Y-89972742D02*
X118346009Y-89972742D01*
X118346009Y-89972742D02*
X118250771Y-89925123D01*
X118250771Y-89925123D02*
X118203152Y-89829885D01*
X118203152Y-89829885D02*
X118203152Y-89639409D01*
X118203152Y-89639409D02*
X118250771Y-89544171D01*
X118250771Y-89544171D02*
X118346009Y-89496552D01*
X118346009Y-89496552D02*
X118441247Y-89496552D01*
X118441247Y-89496552D02*
X118536485Y-89972742D01*
X118203152Y-89067980D02*
X118869819Y-89067980D01*
X118298390Y-89067980D02*
X118250771Y-89020361D01*
X118250771Y-89020361D02*
X118203152Y-88925123D01*
X118203152Y-88925123D02*
X118203152Y-88782266D01*
X118203152Y-88782266D02*
X118250771Y-88687028D01*
X118250771Y-88687028D02*
X118346009Y-88639409D01*
X118346009Y-88639409D02*
X118869819Y-88639409D01*
X118203152Y-88306075D02*
X118203152Y-87925123D01*
X117869819Y-88163218D02*
X118726961Y-88163218D01*
X118726961Y-88163218D02*
X118822200Y-88115599D01*
X118822200Y-88115599D02*
X118869819Y-88020361D01*
X118869819Y-88020361D02*
X118869819Y-87925123D01*
X118869819Y-87591789D02*
X118203152Y-87591789D01*
X117869819Y-87591789D02*
X117917438Y-87639408D01*
X117917438Y-87639408D02*
X117965057Y-87591789D01*
X117965057Y-87591789D02*
X117917438Y-87544170D01*
X117917438Y-87544170D02*
X117869819Y-87591789D01*
X117869819Y-87591789D02*
X117965057Y-87591789D01*
X118869819Y-86972742D02*
X118822200Y-87067980D01*
X118822200Y-87067980D02*
X118774580Y-87115599D01*
X118774580Y-87115599D02*
X118679342Y-87163218D01*
X118679342Y-87163218D02*
X118393628Y-87163218D01*
X118393628Y-87163218D02*
X118298390Y-87115599D01*
X118298390Y-87115599D02*
X118250771Y-87067980D01*
X118250771Y-87067980D02*
X118203152Y-86972742D01*
X118203152Y-86972742D02*
X118203152Y-86829885D01*
X118203152Y-86829885D02*
X118250771Y-86734647D01*
X118250771Y-86734647D02*
X118298390Y-86687028D01*
X118298390Y-86687028D02*
X118393628Y-86639409D01*
X118393628Y-86639409D02*
X118679342Y-86639409D01*
X118679342Y-86639409D02*
X118774580Y-86687028D01*
X118774580Y-86687028D02*
X118822200Y-86734647D01*
X118822200Y-86734647D02*
X118869819Y-86829885D01*
X118869819Y-86829885D02*
X118869819Y-86972742D01*
X118822200Y-86258456D02*
X118869819Y-86163218D01*
X118869819Y-86163218D02*
X118869819Y-85972742D01*
X118869819Y-85972742D02*
X118822200Y-85877504D01*
X118822200Y-85877504D02*
X118726961Y-85829885D01*
X118726961Y-85829885D02*
X118679342Y-85829885D01*
X118679342Y-85829885D02*
X118584104Y-85877504D01*
X118584104Y-85877504D02*
X118536485Y-85972742D01*
X118536485Y-85972742D02*
X118536485Y-86115599D01*
X118536485Y-86115599D02*
X118488866Y-86210837D01*
X118488866Y-86210837D02*
X118393628Y-86258456D01*
X118393628Y-86258456D02*
X118346009Y-86258456D01*
X118346009Y-86258456D02*
X118250771Y-86210837D01*
X118250771Y-86210837D02*
X118203152Y-86115599D01*
X118203152Y-86115599D02*
X118203152Y-85972742D01*
X118203152Y-85972742D02*
X118250771Y-85877504D01*
X118203152Y-85544170D02*
X118203152Y-85163218D01*
X117869819Y-85401313D02*
X118726961Y-85401313D01*
X118726961Y-85401313D02*
X118822200Y-85353694D01*
X118822200Y-85353694D02*
X118869819Y-85258456D01*
X118869819Y-85258456D02*
X118869819Y-85163218D01*
X118869819Y-84401313D02*
X118346009Y-84401313D01*
X118346009Y-84401313D02*
X118250771Y-84448932D01*
X118250771Y-84448932D02*
X118203152Y-84544170D01*
X118203152Y-84544170D02*
X118203152Y-84734646D01*
X118203152Y-84734646D02*
X118250771Y-84829884D01*
X118822200Y-84401313D02*
X118869819Y-84496551D01*
X118869819Y-84496551D02*
X118869819Y-84734646D01*
X118869819Y-84734646D02*
X118822200Y-84829884D01*
X118822200Y-84829884D02*
X118726961Y-84877503D01*
X118726961Y-84877503D02*
X118631723Y-84877503D01*
X118631723Y-84877503D02*
X118536485Y-84829884D01*
X118536485Y-84829884D02*
X118488866Y-84734646D01*
X118488866Y-84734646D02*
X118488866Y-84496551D01*
X118488866Y-84496551D02*
X118441247Y-84401313D01*
X118203152Y-84067979D02*
X118203152Y-83687027D01*
X117869819Y-83925122D02*
X118726961Y-83925122D01*
X118726961Y-83925122D02*
X118822200Y-83877503D01*
X118822200Y-83877503D02*
X118869819Y-83782265D01*
X118869819Y-83782265D02*
X118869819Y-83687027D01*
D11*
%TO.C,H4*%
X121000000Y-57500000D03*
%TD*%
%TO.C,H3*%
X121000000Y-105500000D03*
%TD*%
%TO.C,H2*%
X234500000Y-105500000D03*
%TD*%
%TO.C,H1*%
X234500000Y-57500000D03*
%TD*%
D12*
%TO.C,J2*%
X152050000Y-103000000D03*
X157830000Y-103000000D03*
D13*
X151740000Y-101925000D03*
X152540000Y-101925000D03*
D14*
X153690000Y-101925000D03*
X154690000Y-101925000D03*
X155190000Y-101925000D03*
X156190000Y-101925000D03*
D13*
X157340000Y-101925000D03*
X158140000Y-101925000D03*
X158140000Y-101925000D03*
X157340000Y-101925000D03*
D14*
X156690000Y-101925000D03*
X155690000Y-101925000D03*
X154190000Y-101925000D03*
X153190000Y-101925000D03*
D13*
X152540000Y-101925000D03*
X151740000Y-101925000D03*
D15*
X150620000Y-102500000D03*
D16*
X150620000Y-106680000D03*
D15*
X159260000Y-102500000D03*
D16*
X159260000Y-106680000D03*
%TD*%
D17*
%TO.C,K1*%
X207020000Y-68580000D03*
X207020000Y-71120000D03*
X207020000Y-81380000D03*
X207020000Y-83820000D03*
X199400000Y-83820000D03*
X199400000Y-81380000D03*
X199400000Y-71120000D03*
D18*
X199400000Y-68580000D03*
%TD*%
D19*
%TO.C,SW1*%
X143660000Y-87385000D03*
X143660000Y-91485000D03*
X142060000Y-87385000D03*
X142060000Y-91485000D03*
D20*
X144285000Y-89435000D03*
%TD*%
%TO.C,SW2*%
X149055000Y-61495000D03*
D19*
X151280000Y-59445000D03*
X151280000Y-63545000D03*
X149680000Y-59445000D03*
X149680000Y-63545000D03*
%TD*%
D21*
%TO.C,U14*%
X143110000Y-75100000D03*
X141710000Y-75100000D03*
X140310000Y-75100000D03*
X143110000Y-76500000D03*
X141710000Y-76500000D03*
X140310000Y-76500000D03*
X143110000Y-77900000D03*
X141710000Y-77900000D03*
X140310000Y-77900000D03*
D22*
X133990000Y-66250000D03*
X135260000Y-66250000D03*
X136530000Y-66250000D03*
X137800000Y-66250000D03*
X139070000Y-66250000D03*
X140340000Y-66250000D03*
X141610000Y-66250000D03*
X142880000Y-66250000D03*
X144150000Y-66250000D03*
X145420000Y-66250000D03*
X146690000Y-66250000D03*
X147960000Y-66250000D03*
X149230000Y-66250000D03*
X150500000Y-66250000D03*
D23*
X151750000Y-68015000D03*
X151750000Y-69285000D03*
X151750000Y-70555000D03*
X151750000Y-71825000D03*
X151750000Y-73095000D03*
X151750000Y-74365000D03*
X151750000Y-75635000D03*
X151750000Y-76905000D03*
X151750000Y-78175000D03*
X151750000Y-79445000D03*
X151750000Y-80715000D03*
X151750000Y-81985000D03*
D22*
X150500000Y-83750000D03*
X149230000Y-83750000D03*
X147960000Y-83750000D03*
X146690000Y-83750000D03*
X145420000Y-83750000D03*
X144150000Y-83750000D03*
X142880000Y-83750000D03*
X141610000Y-83750000D03*
X140340000Y-83750000D03*
X139070000Y-83750000D03*
X137800000Y-83750000D03*
X136530000Y-83750000D03*
X135260000Y-83750000D03*
X133990000Y-83750000D03*
%TD*%
D24*
%TO.C,C5*%
X134465000Y-89435000D03*
X136015000Y-89435000D03*
%TD*%
D25*
%TO.C,TP10*%
X149180000Y-87877000D03*
%TD*%
D24*
%TO.C,C6*%
X134465000Y-86895000D03*
X136015000Y-86895000D03*
%TD*%
D26*
%TO.C,R12*%
X157060000Y-75425000D03*
X158710000Y-75425000D03*
%TD*%
D27*
%TO.C,D1*%
X161390000Y-75425000D03*
X162965000Y-75425000D03*
%TD*%
D24*
%TO.C,C4*%
X142085000Y-93740000D03*
X143635000Y-93740000D03*
%TD*%
D25*
%TO.C,TP11*%
X155460000Y-79885000D03*
%TD*%
D28*
%TO.C,R21*%
X137780000Y-91150000D03*
X137780000Y-92800000D03*
%TD*%
D25*
%TO.C,TP17*%
X200500000Y-97500000D03*
%TD*%
%TO.C,TP21*%
X171500000Y-90000000D03*
%TD*%
%TO.C,TP25*%
X184500000Y-100000000D03*
%TD*%
D29*
%TO.C,R11*%
X185514000Y-76897500D03*
X187164000Y-76897500D03*
%TD*%
D26*
%TO.C,R5*%
X169735000Y-88900000D03*
X168085000Y-88900000D03*
%TD*%
D30*
%TO.C,R18*%
X185420000Y-95695000D03*
X185420000Y-97345000D03*
%TD*%
D31*
%TO.C,J5*%
X219964000Y-81026000D03*
%TD*%
D25*
%TO.C,TP7*%
X159512000Y-92964000D03*
%TD*%
D32*
%TO.C,J1*%
X190500000Y-60960000D03*
D33*
X190500000Y-58420000D03*
%TD*%
D26*
%TO.C,R13*%
X180355000Y-102410000D03*
X178705000Y-102410000D03*
%TD*%
D25*
%TO.C,TP4*%
X187500000Y-63500000D03*
%TD*%
%TO.C,TP9*%
X141000000Y-101000000D03*
%TD*%
%TO.C,TP26*%
X194500000Y-100000000D03*
%TD*%
D34*
%TO.C,U7*%
X177055000Y-95425000D03*
X177055000Y-96695000D03*
X177055000Y-97965000D03*
X177055000Y-99235000D03*
X182005000Y-99235000D03*
X182005000Y-97965000D03*
X182005000Y-96695000D03*
X182005000Y-95425000D03*
%TD*%
D26*
%TO.C,R15*%
X174450000Y-97330000D03*
X172800000Y-97330000D03*
%TD*%
D25*
%TO.C,TP3*%
X186944000Y-58420000D03*
%TD*%
D29*
%TO.C,R16*%
X172800000Y-94790000D03*
X174450000Y-94790000D03*
%TD*%
D35*
%TO.C,U6*%
X167905000Y-101600000D03*
X167905000Y-102550000D03*
X167905000Y-103500000D03*
X170180000Y-103500000D03*
X170180000Y-102550000D03*
X170180000Y-101600000D03*
%TD*%
D34*
%TO.C,U2*%
X203200000Y-90170000D03*
X203200000Y-91440000D03*
X203200000Y-92710000D03*
X203200000Y-93980000D03*
X203200000Y-95250000D03*
X203200000Y-96520000D03*
X203200000Y-97790000D03*
X208150000Y-97790000D03*
X208150000Y-96520000D03*
X208150000Y-95250000D03*
X208150000Y-93980000D03*
X208150000Y-92710000D03*
X208150000Y-91440000D03*
X208150000Y-90170000D03*
%TD*%
D36*
%TO.C,C2*%
X172110000Y-83580000D03*
X172110000Y-82030000D03*
%TD*%
D28*
%TO.C,R20*%
X147500000Y-106825000D03*
X147500000Y-105175000D03*
%TD*%
D25*
%TO.C,TP16*%
X197000000Y-78500000D03*
%TD*%
%TO.C,TP20*%
X164000000Y-100000000D03*
%TD*%
%TO.C,TP23*%
X185000000Y-106000000D03*
%TD*%
D29*
%TO.C,R6*%
X196470000Y-88960000D03*
X198120000Y-88960000D03*
%TD*%
D26*
%TO.C,R3*%
X180355000Y-92250000D03*
X178705000Y-92250000D03*
%TD*%
D28*
%TO.C,R9*%
X200660000Y-92265000D03*
X200660000Y-90615000D03*
%TD*%
D37*
%TO.C,D2*%
X186339000Y-81280000D03*
D38*
X186339000Y-91440000D03*
%TD*%
D25*
%TO.C,TP5*%
X170688000Y-107188000D03*
%TD*%
D31*
%TO.C,J6*%
X219710000Y-97536000D03*
%TD*%
D39*
%TO.C,C1*%
X173000000Y-71120000D03*
X182500000Y-71120000D03*
%TD*%
D25*
%TO.C,TP15*%
X188000000Y-65494819D03*
%TD*%
D40*
%TO.C,U11*%
X164835000Y-91440000D03*
X164835000Y-90490000D03*
X164835000Y-89540000D03*
X162560000Y-89540000D03*
X162560000Y-90490000D03*
X162560000Y-91440000D03*
%TD*%
D29*
%TO.C,R1*%
X196405000Y-103505000D03*
X198055000Y-103505000D03*
%TD*%
D41*
%TO.C,U4*%
X191135000Y-71055000D03*
X192405000Y-71055000D03*
X193675000Y-71055000D03*
X194945000Y-71055000D03*
X194945000Y-66105000D03*
X193675000Y-66105000D03*
X192405000Y-66105000D03*
X191135000Y-66105000D03*
%TD*%
D25*
%TO.C,TP14*%
X185500000Y-64500000D03*
%TD*%
D29*
%TO.C,R7*%
X196470000Y-91470000D03*
X198120000Y-91470000D03*
%TD*%
D32*
%TO.C,J3*%
X195580000Y-58420000D03*
D33*
X195580000Y-60960000D03*
%TD*%
D25*
%TO.C,TP1*%
X212852000Y-100584000D03*
%TD*%
D42*
%TO.C,U8*%
X186072500Y-69517500D03*
X187972500Y-69517500D03*
X187022500Y-67642500D03*
%TD*%
D25*
%TO.C,TP18*%
X203000000Y-88000000D03*
%TD*%
D41*
%TO.C,U9*%
X188595000Y-98995000D03*
X189865000Y-98995000D03*
X191135000Y-98995000D03*
X192405000Y-98995000D03*
X192405000Y-94045000D03*
X191135000Y-94045000D03*
X189865000Y-94045000D03*
X188595000Y-94045000D03*
%TD*%
D43*
%TO.C,U13*%
X174650000Y-78980000D03*
X174650000Y-81280000D03*
D44*
X180950000Y-81280000D03*
D43*
X174650000Y-83580000D03*
%TD*%
D29*
%TO.C,R2*%
X183705000Y-103505000D03*
X185355000Y-103505000D03*
%TD*%
D31*
%TO.C,J4*%
X219964000Y-65278000D03*
%TD*%
D25*
%TO.C,TP24*%
X176500000Y-101500000D03*
%TD*%
%TO.C,TP13*%
X211500000Y-79000000D03*
%TD*%
D29*
%TO.C,R17*%
X172800000Y-92250000D03*
X174450000Y-92250000D03*
%TD*%
D25*
%TO.C,TP2*%
X198120000Y-64008000D03*
%TD*%
%TO.C,TP6*%
X166624000Y-107188000D03*
%TD*%
D29*
%TO.C,R8*%
X196470000Y-93980000D03*
X198120000Y-93980000D03*
%TD*%
D25*
%TO.C,TP22*%
X173500000Y-90000000D03*
%TD*%
D34*
%TO.C,U5*%
X188025000Y-102235000D03*
X188025000Y-103505000D03*
X188025000Y-104775000D03*
X188025000Y-106045000D03*
X192975000Y-106045000D03*
X192975000Y-104775000D03*
X192975000Y-103505000D03*
X192975000Y-102235000D03*
%TD*%
D25*
%TO.C,TP8*%
X164592000Y-87376000D03*
%TD*%
D45*
%TO.C,C7*%
X149705000Y-56415000D03*
X151255000Y-56415000D03*
%TD*%
D25*
%TO.C,TP12*%
X220000000Y-71500000D03*
%TD*%
%TO.C,TP19*%
X166000000Y-101500000D03*
%TD*%
D46*
%TO.C,U1*%
X170180000Y-94110000D03*
X168910000Y-94110000D03*
X167640000Y-94110000D03*
X166370000Y-94110000D03*
X166370000Y-99060000D03*
X167640000Y-99060000D03*
X168910000Y-99060000D03*
X170180000Y-99060000D03*
%TD*%
D26*
%TO.C,R10*%
X187164000Y-73660000D03*
X185514000Y-73660000D03*
%TD*%
D30*
%TO.C,R19*%
X144000000Y-105000000D03*
X144000000Y-106650000D03*
%TD*%
D29*
%TO.C,R14*%
X178705000Y-104950000D03*
X180355000Y-104950000D03*
%TD*%
%TO.C,R4*%
X168085000Y-91440000D03*
X169735000Y-91440000D03*
%TD*%
D47*
%TO.C,U10*%
X195190000Y-77200000D03*
X195190000Y-76700000D03*
X195190000Y-76200000D03*
X195190000Y-75700000D03*
X195190000Y-75200000D03*
X190890000Y-75200000D03*
X190890000Y-75700000D03*
X190890000Y-76200000D03*
X190890000Y-76700000D03*
X190890000Y-77200000D03*
%TD*%
D48*
%TO.C,C3*%
X172110000Y-78715000D03*
X172110000Y-80265000D03*
%TD*%
M02*
