%TF.GenerationSoftware,KiCad,Pcbnew,9.0.1-1.fc41*%
%TF.CreationDate,2025-04-11T00:28:42-07:00*%
%TF.ProjectId,Potentiostat KiCAD Prohject,506f7465-6e74-4696-9f73-746174204b69,rev?*%
%TF.SameCoordinates,Original*%
%TF.FileFunction,Drillmap*%
%TF.FilePolarity,Positive*%
%FSLAX45Y45*%
G04 Gerber Fmt 4.5, Leading zero omitted, Abs format (unit mm)*
G04 Created by KiCad (PCBNEW 9.0.1-1.fc41) date 2025-04-11 00:28:42*
%MOMM*%
%LPD*%
G01*
G04 APERTURE LIST*
%ADD10C,0.050000*%
%ADD11C,0.200000*%
%ADD12C,0.100000*%
G04 APERTURE END LIST*
D10*
X23376000Y-10922000D02*
X12184000Y-10922000D01*
X11684000Y-10422000D02*
X11684000Y-5834000D01*
X23376000Y-5334000D02*
G75*
G02*
X23876000Y-5834000I0J-500000D01*
G01*
X23876000Y-5834000D02*
X23876000Y-10422000D01*
X12184000Y-10922000D02*
G75*
G02*
X11684000Y-10422000I0J500000D01*
G01*
X12184000Y-5334000D02*
X23376000Y-5334000D01*
X23876000Y-10422000D02*
G75*
G02*
X23376000Y-10922000I-500000J0D01*
G01*
X11684000Y-5834000D02*
G75*
G02*
X12184000Y-5334000I500000J0D01*
G01*
D11*
D12*
X15172500Y-10267500D02*
X15237500Y-10332500D01*
X15237500Y-10267500D02*
X15172500Y-10332500D01*
X15750500Y-10267500D02*
X15815500Y-10332500D01*
X15815500Y-10267500D02*
X15750500Y-10332500D01*
D11*
X11942277Y-11235984D02*
X11942277Y-11035984D01*
X11942277Y-11035984D02*
X11989896Y-11035984D01*
X11989896Y-11035984D02*
X12018467Y-11045508D01*
X12018467Y-11045508D02*
X12037515Y-11064555D01*
X12037515Y-11064555D02*
X12047039Y-11083603D01*
X12047039Y-11083603D02*
X12056562Y-11121698D01*
X12056562Y-11121698D02*
X12056562Y-11150270D01*
X12056562Y-11150270D02*
X12047039Y-11188365D01*
X12047039Y-11188365D02*
X12037515Y-11207412D01*
X12037515Y-11207412D02*
X12018467Y-11226460D01*
X12018467Y-11226460D02*
X11989896Y-11235984D01*
X11989896Y-11235984D02*
X11942277Y-11235984D01*
X12142277Y-11235984D02*
X12142277Y-11102650D01*
X12142277Y-11140746D02*
X12151801Y-11121698D01*
X12151801Y-11121698D02*
X12161324Y-11112174D01*
X12161324Y-11112174D02*
X12180372Y-11102650D01*
X12180372Y-11102650D02*
X12199420Y-11102650D01*
X12266086Y-11235984D02*
X12266086Y-11102650D01*
X12266086Y-11035984D02*
X12256562Y-11045508D01*
X12256562Y-11045508D02*
X12266086Y-11055031D01*
X12266086Y-11055031D02*
X12275610Y-11045508D01*
X12275610Y-11045508D02*
X12266086Y-11035984D01*
X12266086Y-11035984D02*
X12266086Y-11055031D01*
X12389896Y-11235984D02*
X12370848Y-11226460D01*
X12370848Y-11226460D02*
X12361324Y-11207412D01*
X12361324Y-11207412D02*
X12361324Y-11035984D01*
X12494658Y-11235984D02*
X12475610Y-11226460D01*
X12475610Y-11226460D02*
X12466086Y-11207412D01*
X12466086Y-11207412D02*
X12466086Y-11035984D01*
X12723229Y-11235984D02*
X12723229Y-11035984D01*
X12723229Y-11035984D02*
X12789896Y-11178841D01*
X12789896Y-11178841D02*
X12856562Y-11035984D01*
X12856562Y-11035984D02*
X12856562Y-11235984D01*
X13037515Y-11235984D02*
X13037515Y-11131222D01*
X13037515Y-11131222D02*
X13027991Y-11112174D01*
X13027991Y-11112174D02*
X13008943Y-11102650D01*
X13008943Y-11102650D02*
X12970848Y-11102650D01*
X12970848Y-11102650D02*
X12951801Y-11112174D01*
X13037515Y-11226460D02*
X13018467Y-11235984D01*
X13018467Y-11235984D02*
X12970848Y-11235984D01*
X12970848Y-11235984D02*
X12951801Y-11226460D01*
X12951801Y-11226460D02*
X12942277Y-11207412D01*
X12942277Y-11207412D02*
X12942277Y-11188365D01*
X12942277Y-11188365D02*
X12951801Y-11169317D01*
X12951801Y-11169317D02*
X12970848Y-11159793D01*
X12970848Y-11159793D02*
X13018467Y-11159793D01*
X13018467Y-11159793D02*
X13037515Y-11150270D01*
X13132753Y-11102650D02*
X13132753Y-11302650D01*
X13132753Y-11112174D02*
X13151801Y-11102650D01*
X13151801Y-11102650D02*
X13189896Y-11102650D01*
X13189896Y-11102650D02*
X13208943Y-11112174D01*
X13208943Y-11112174D02*
X13218467Y-11121698D01*
X13218467Y-11121698D02*
X13227991Y-11140746D01*
X13227991Y-11140746D02*
X13227991Y-11197888D01*
X13227991Y-11197888D02*
X13218467Y-11216936D01*
X13218467Y-11216936D02*
X13208943Y-11226460D01*
X13208943Y-11226460D02*
X13189896Y-11235984D01*
X13189896Y-11235984D02*
X13151801Y-11235984D01*
X13151801Y-11235984D02*
X13132753Y-11226460D01*
X13313705Y-11216936D02*
X13323229Y-11226460D01*
X13323229Y-11226460D02*
X13313705Y-11235984D01*
X13313705Y-11235984D02*
X13304182Y-11226460D01*
X13304182Y-11226460D02*
X13313705Y-11216936D01*
X13313705Y-11216936D02*
X13313705Y-11235984D01*
X13313705Y-11112174D02*
X13323229Y-11121698D01*
X13323229Y-11121698D02*
X13313705Y-11131222D01*
X13313705Y-11131222D02*
X13304182Y-11121698D01*
X13304182Y-11121698D02*
X13313705Y-11112174D01*
X13313705Y-11112174D02*
X13313705Y-11131222D01*
D12*
X11616500Y-11532000D02*
X11681500Y-11597000D01*
X11681500Y-11532000D02*
X11616500Y-11597000D01*
D11*
X11980372Y-11455984D02*
X11999420Y-11455984D01*
X11999420Y-11455984D02*
X12018467Y-11465508D01*
X12018467Y-11465508D02*
X12027991Y-11475031D01*
X12027991Y-11475031D02*
X12037515Y-11494079D01*
X12037515Y-11494079D02*
X12047039Y-11532174D01*
X12047039Y-11532174D02*
X12047039Y-11579793D01*
X12047039Y-11579793D02*
X12037515Y-11617888D01*
X12037515Y-11617888D02*
X12027991Y-11636936D01*
X12027991Y-11636936D02*
X12018467Y-11646460D01*
X12018467Y-11646460D02*
X11999420Y-11655984D01*
X11999420Y-11655984D02*
X11980372Y-11655984D01*
X11980372Y-11655984D02*
X11961324Y-11646460D01*
X11961324Y-11646460D02*
X11951801Y-11636936D01*
X11951801Y-11636936D02*
X11942277Y-11617888D01*
X11942277Y-11617888D02*
X11932753Y-11579793D01*
X11932753Y-11579793D02*
X11932753Y-11532174D01*
X11932753Y-11532174D02*
X11942277Y-11494079D01*
X11942277Y-11494079D02*
X11951801Y-11475031D01*
X11951801Y-11475031D02*
X11961324Y-11465508D01*
X11961324Y-11465508D02*
X11980372Y-11455984D01*
X12132753Y-11636936D02*
X12142277Y-11646460D01*
X12142277Y-11646460D02*
X12132753Y-11655984D01*
X12132753Y-11655984D02*
X12123229Y-11646460D01*
X12123229Y-11646460D02*
X12132753Y-11636936D01*
X12132753Y-11636936D02*
X12132753Y-11655984D01*
X12313705Y-11455984D02*
X12275610Y-11455984D01*
X12275610Y-11455984D02*
X12256562Y-11465508D01*
X12256562Y-11465508D02*
X12247039Y-11475031D01*
X12247039Y-11475031D02*
X12227991Y-11503603D01*
X12227991Y-11503603D02*
X12218467Y-11541698D01*
X12218467Y-11541698D02*
X12218467Y-11617888D01*
X12218467Y-11617888D02*
X12227991Y-11636936D01*
X12227991Y-11636936D02*
X12237515Y-11646460D01*
X12237515Y-11646460D02*
X12256562Y-11655984D01*
X12256562Y-11655984D02*
X12294658Y-11655984D01*
X12294658Y-11655984D02*
X12313705Y-11646460D01*
X12313705Y-11646460D02*
X12323229Y-11636936D01*
X12323229Y-11636936D02*
X12332753Y-11617888D01*
X12332753Y-11617888D02*
X12332753Y-11570269D01*
X12332753Y-11570269D02*
X12323229Y-11551222D01*
X12323229Y-11551222D02*
X12313705Y-11541698D01*
X12313705Y-11541698D02*
X12294658Y-11532174D01*
X12294658Y-11532174D02*
X12256562Y-11532174D01*
X12256562Y-11532174D02*
X12237515Y-11541698D01*
X12237515Y-11541698D02*
X12227991Y-11551222D01*
X12227991Y-11551222D02*
X12218467Y-11570269D01*
X12513705Y-11455984D02*
X12418467Y-11455984D01*
X12418467Y-11455984D02*
X12408943Y-11551222D01*
X12408943Y-11551222D02*
X12418467Y-11541698D01*
X12418467Y-11541698D02*
X12437515Y-11532174D01*
X12437515Y-11532174D02*
X12485134Y-11532174D01*
X12485134Y-11532174D02*
X12504182Y-11541698D01*
X12504182Y-11541698D02*
X12513705Y-11551222D01*
X12513705Y-11551222D02*
X12523229Y-11570269D01*
X12523229Y-11570269D02*
X12523229Y-11617888D01*
X12523229Y-11617888D02*
X12513705Y-11636936D01*
X12513705Y-11636936D02*
X12504182Y-11646460D01*
X12504182Y-11646460D02*
X12485134Y-11655984D01*
X12485134Y-11655984D02*
X12437515Y-11655984D01*
X12437515Y-11655984D02*
X12418467Y-11646460D01*
X12418467Y-11646460D02*
X12408943Y-11636936D01*
X12647039Y-11455984D02*
X12666086Y-11455984D01*
X12666086Y-11455984D02*
X12685134Y-11465508D01*
X12685134Y-11465508D02*
X12694658Y-11475031D01*
X12694658Y-11475031D02*
X12704182Y-11494079D01*
X12704182Y-11494079D02*
X12713705Y-11532174D01*
X12713705Y-11532174D02*
X12713705Y-11579793D01*
X12713705Y-11579793D02*
X12704182Y-11617888D01*
X12704182Y-11617888D02*
X12694658Y-11636936D01*
X12694658Y-11636936D02*
X12685134Y-11646460D01*
X12685134Y-11646460D02*
X12666086Y-11655984D01*
X12666086Y-11655984D02*
X12647039Y-11655984D01*
X12647039Y-11655984D02*
X12627991Y-11646460D01*
X12627991Y-11646460D02*
X12618467Y-11636936D01*
X12618467Y-11636936D02*
X12608943Y-11617888D01*
X12608943Y-11617888D02*
X12599420Y-11579793D01*
X12599420Y-11579793D02*
X12599420Y-11532174D01*
X12599420Y-11532174D02*
X12608943Y-11494079D01*
X12608943Y-11494079D02*
X12618467Y-11475031D01*
X12618467Y-11475031D02*
X12627991Y-11465508D01*
X12627991Y-11465508D02*
X12647039Y-11455984D01*
X12799420Y-11655984D02*
X12799420Y-11522650D01*
X12799420Y-11541698D02*
X12808943Y-11532174D01*
X12808943Y-11532174D02*
X12827991Y-11522650D01*
X12827991Y-11522650D02*
X12856563Y-11522650D01*
X12856563Y-11522650D02*
X12875610Y-11532174D01*
X12875610Y-11532174D02*
X12885134Y-11551222D01*
X12885134Y-11551222D02*
X12885134Y-11655984D01*
X12885134Y-11551222D02*
X12894658Y-11532174D01*
X12894658Y-11532174D02*
X12913705Y-11522650D01*
X12913705Y-11522650D02*
X12942277Y-11522650D01*
X12942277Y-11522650D02*
X12961324Y-11532174D01*
X12961324Y-11532174D02*
X12970848Y-11551222D01*
X12970848Y-11551222D02*
X12970848Y-11655984D01*
X13066086Y-11655984D02*
X13066086Y-11522650D01*
X13066086Y-11541698D02*
X13075610Y-11532174D01*
X13075610Y-11532174D02*
X13094658Y-11522650D01*
X13094658Y-11522650D02*
X13123229Y-11522650D01*
X13123229Y-11522650D02*
X13142277Y-11532174D01*
X13142277Y-11532174D02*
X13151801Y-11551222D01*
X13151801Y-11551222D02*
X13151801Y-11655984D01*
X13151801Y-11551222D02*
X13161324Y-11532174D01*
X13161324Y-11532174D02*
X13180372Y-11522650D01*
X13180372Y-11522650D02*
X13208943Y-11522650D01*
X13208943Y-11522650D02*
X13227991Y-11532174D01*
X13227991Y-11532174D02*
X13237515Y-11551222D01*
X13237515Y-11551222D02*
X13237515Y-11655984D01*
X13627991Y-11446460D02*
X13456563Y-11703603D01*
X13885134Y-11455984D02*
X13904182Y-11455984D01*
X13904182Y-11455984D02*
X13923229Y-11465508D01*
X13923229Y-11465508D02*
X13932753Y-11475031D01*
X13932753Y-11475031D02*
X13942277Y-11494079D01*
X13942277Y-11494079D02*
X13951801Y-11532174D01*
X13951801Y-11532174D02*
X13951801Y-11579793D01*
X13951801Y-11579793D02*
X13942277Y-11617888D01*
X13942277Y-11617888D02*
X13932753Y-11636936D01*
X13932753Y-11636936D02*
X13923229Y-11646460D01*
X13923229Y-11646460D02*
X13904182Y-11655984D01*
X13904182Y-11655984D02*
X13885134Y-11655984D01*
X13885134Y-11655984D02*
X13866086Y-11646460D01*
X13866086Y-11646460D02*
X13856563Y-11636936D01*
X13856563Y-11636936D02*
X13847039Y-11617888D01*
X13847039Y-11617888D02*
X13837515Y-11579793D01*
X13837515Y-11579793D02*
X13837515Y-11532174D01*
X13837515Y-11532174D02*
X13847039Y-11494079D01*
X13847039Y-11494079D02*
X13856563Y-11475031D01*
X13856563Y-11475031D02*
X13866086Y-11465508D01*
X13866086Y-11465508D02*
X13885134Y-11455984D01*
X14037515Y-11636936D02*
X14047039Y-11646460D01*
X14047039Y-11646460D02*
X14037515Y-11655984D01*
X14037515Y-11655984D02*
X14027991Y-11646460D01*
X14027991Y-11646460D02*
X14037515Y-11636936D01*
X14037515Y-11636936D02*
X14037515Y-11655984D01*
X14170848Y-11455984D02*
X14189896Y-11455984D01*
X14189896Y-11455984D02*
X14208944Y-11465508D01*
X14208944Y-11465508D02*
X14218467Y-11475031D01*
X14218467Y-11475031D02*
X14227991Y-11494079D01*
X14227991Y-11494079D02*
X14237515Y-11532174D01*
X14237515Y-11532174D02*
X14237515Y-11579793D01*
X14237515Y-11579793D02*
X14227991Y-11617888D01*
X14227991Y-11617888D02*
X14218467Y-11636936D01*
X14218467Y-11636936D02*
X14208944Y-11646460D01*
X14208944Y-11646460D02*
X14189896Y-11655984D01*
X14189896Y-11655984D02*
X14170848Y-11655984D01*
X14170848Y-11655984D02*
X14151801Y-11646460D01*
X14151801Y-11646460D02*
X14142277Y-11636936D01*
X14142277Y-11636936D02*
X14132753Y-11617888D01*
X14132753Y-11617888D02*
X14123229Y-11579793D01*
X14123229Y-11579793D02*
X14123229Y-11532174D01*
X14123229Y-11532174D02*
X14132753Y-11494079D01*
X14132753Y-11494079D02*
X14142277Y-11475031D01*
X14142277Y-11475031D02*
X14151801Y-11465508D01*
X14151801Y-11465508D02*
X14170848Y-11455984D01*
X14313706Y-11475031D02*
X14323229Y-11465508D01*
X14323229Y-11465508D02*
X14342277Y-11455984D01*
X14342277Y-11455984D02*
X14389896Y-11455984D01*
X14389896Y-11455984D02*
X14408944Y-11465508D01*
X14408944Y-11465508D02*
X14418467Y-11475031D01*
X14418467Y-11475031D02*
X14427991Y-11494079D01*
X14427991Y-11494079D02*
X14427991Y-11513127D01*
X14427991Y-11513127D02*
X14418467Y-11541698D01*
X14418467Y-11541698D02*
X14304182Y-11655984D01*
X14304182Y-11655984D02*
X14427991Y-11655984D01*
X14608944Y-11455984D02*
X14513706Y-11455984D01*
X14513706Y-11455984D02*
X14504182Y-11551222D01*
X14504182Y-11551222D02*
X14513706Y-11541698D01*
X14513706Y-11541698D02*
X14532753Y-11532174D01*
X14532753Y-11532174D02*
X14580372Y-11532174D01*
X14580372Y-11532174D02*
X14599420Y-11541698D01*
X14599420Y-11541698D02*
X14608944Y-11551222D01*
X14608944Y-11551222D02*
X14618467Y-11570269D01*
X14618467Y-11570269D02*
X14618467Y-11617888D01*
X14618467Y-11617888D02*
X14608944Y-11636936D01*
X14608944Y-11636936D02*
X14599420Y-11646460D01*
X14599420Y-11646460D02*
X14580372Y-11655984D01*
X14580372Y-11655984D02*
X14532753Y-11655984D01*
X14532753Y-11655984D02*
X14513706Y-11646460D01*
X14513706Y-11646460D02*
X14504182Y-11636936D01*
X14789896Y-11455984D02*
X14751801Y-11455984D01*
X14751801Y-11455984D02*
X14732753Y-11465508D01*
X14732753Y-11465508D02*
X14723229Y-11475031D01*
X14723229Y-11475031D02*
X14704182Y-11503603D01*
X14704182Y-11503603D02*
X14694658Y-11541698D01*
X14694658Y-11541698D02*
X14694658Y-11617888D01*
X14694658Y-11617888D02*
X14704182Y-11636936D01*
X14704182Y-11636936D02*
X14713706Y-11646460D01*
X14713706Y-11646460D02*
X14732753Y-11655984D01*
X14732753Y-11655984D02*
X14770848Y-11655984D01*
X14770848Y-11655984D02*
X14789896Y-11646460D01*
X14789896Y-11646460D02*
X14799420Y-11636936D01*
X14799420Y-11636936D02*
X14808944Y-11617888D01*
X14808944Y-11617888D02*
X14808944Y-11570269D01*
X14808944Y-11570269D02*
X14799420Y-11551222D01*
X14799420Y-11551222D02*
X14789896Y-11541698D01*
X14789896Y-11541698D02*
X14770848Y-11532174D01*
X14770848Y-11532174D02*
X14732753Y-11532174D01*
X14732753Y-11532174D02*
X14713706Y-11541698D01*
X14713706Y-11541698D02*
X14704182Y-11551222D01*
X14704182Y-11551222D02*
X14694658Y-11570269D01*
X14885134Y-11455984D02*
X14885134Y-11494079D01*
X14961325Y-11455984D02*
X14961325Y-11494079D01*
X15256563Y-11732174D02*
X15247039Y-11722650D01*
X15247039Y-11722650D02*
X15227991Y-11694079D01*
X15227991Y-11694079D02*
X15218468Y-11675031D01*
X15218468Y-11675031D02*
X15208944Y-11646460D01*
X15208944Y-11646460D02*
X15199420Y-11598841D01*
X15199420Y-11598841D02*
X15199420Y-11560746D01*
X15199420Y-11560746D02*
X15208944Y-11513127D01*
X15208944Y-11513127D02*
X15218468Y-11484555D01*
X15218468Y-11484555D02*
X15227991Y-11465508D01*
X15227991Y-11465508D02*
X15247039Y-11436936D01*
X15247039Y-11436936D02*
X15256563Y-11427412D01*
X15323229Y-11475031D02*
X15332753Y-11465508D01*
X15332753Y-11465508D02*
X15351801Y-11455984D01*
X15351801Y-11455984D02*
X15399420Y-11455984D01*
X15399420Y-11455984D02*
X15418468Y-11465508D01*
X15418468Y-11465508D02*
X15427991Y-11475031D01*
X15427991Y-11475031D02*
X15437515Y-11494079D01*
X15437515Y-11494079D02*
X15437515Y-11513127D01*
X15437515Y-11513127D02*
X15427991Y-11541698D01*
X15427991Y-11541698D02*
X15313706Y-11655984D01*
X15313706Y-11655984D02*
X15437515Y-11655984D01*
X15675610Y-11655984D02*
X15675610Y-11455984D01*
X15761325Y-11655984D02*
X15761325Y-11551222D01*
X15761325Y-11551222D02*
X15751801Y-11532174D01*
X15751801Y-11532174D02*
X15732753Y-11522650D01*
X15732753Y-11522650D02*
X15704182Y-11522650D01*
X15704182Y-11522650D02*
X15685134Y-11532174D01*
X15685134Y-11532174D02*
X15675610Y-11541698D01*
X15885134Y-11655984D02*
X15866087Y-11646460D01*
X15866087Y-11646460D02*
X15856563Y-11636936D01*
X15856563Y-11636936D02*
X15847039Y-11617888D01*
X15847039Y-11617888D02*
X15847039Y-11560746D01*
X15847039Y-11560746D02*
X15856563Y-11541698D01*
X15856563Y-11541698D02*
X15866087Y-11532174D01*
X15866087Y-11532174D02*
X15885134Y-11522650D01*
X15885134Y-11522650D02*
X15913706Y-11522650D01*
X15913706Y-11522650D02*
X15932753Y-11532174D01*
X15932753Y-11532174D02*
X15942277Y-11541698D01*
X15942277Y-11541698D02*
X15951801Y-11560746D01*
X15951801Y-11560746D02*
X15951801Y-11617888D01*
X15951801Y-11617888D02*
X15942277Y-11636936D01*
X15942277Y-11636936D02*
X15932753Y-11646460D01*
X15932753Y-11646460D02*
X15913706Y-11655984D01*
X15913706Y-11655984D02*
X15885134Y-11655984D01*
X16066087Y-11655984D02*
X16047039Y-11646460D01*
X16047039Y-11646460D02*
X16037515Y-11627412D01*
X16037515Y-11627412D02*
X16037515Y-11455984D01*
X16218468Y-11646460D02*
X16199420Y-11655984D01*
X16199420Y-11655984D02*
X16161325Y-11655984D01*
X16161325Y-11655984D02*
X16142277Y-11646460D01*
X16142277Y-11646460D02*
X16132753Y-11627412D01*
X16132753Y-11627412D02*
X16132753Y-11551222D01*
X16132753Y-11551222D02*
X16142277Y-11532174D01*
X16142277Y-11532174D02*
X16161325Y-11522650D01*
X16161325Y-11522650D02*
X16199420Y-11522650D01*
X16199420Y-11522650D02*
X16218468Y-11532174D01*
X16218468Y-11532174D02*
X16227991Y-11551222D01*
X16227991Y-11551222D02*
X16227991Y-11570269D01*
X16227991Y-11570269D02*
X16132753Y-11589317D01*
X16304182Y-11646460D02*
X16323230Y-11655984D01*
X16323230Y-11655984D02*
X16361325Y-11655984D01*
X16361325Y-11655984D02*
X16380372Y-11646460D01*
X16380372Y-11646460D02*
X16389896Y-11627412D01*
X16389896Y-11627412D02*
X16389896Y-11617888D01*
X16389896Y-11617888D02*
X16380372Y-11598841D01*
X16380372Y-11598841D02*
X16361325Y-11589317D01*
X16361325Y-11589317D02*
X16332753Y-11589317D01*
X16332753Y-11589317D02*
X16313706Y-11579793D01*
X16313706Y-11579793D02*
X16304182Y-11560746D01*
X16304182Y-11560746D02*
X16304182Y-11551222D01*
X16304182Y-11551222D02*
X16313706Y-11532174D01*
X16313706Y-11532174D02*
X16332753Y-11522650D01*
X16332753Y-11522650D02*
X16361325Y-11522650D01*
X16361325Y-11522650D02*
X16380372Y-11532174D01*
X16456563Y-11732174D02*
X16466087Y-11722650D01*
X16466087Y-11722650D02*
X16485134Y-11694079D01*
X16485134Y-11694079D02*
X16494658Y-11675031D01*
X16494658Y-11675031D02*
X16504182Y-11646460D01*
X16504182Y-11646460D02*
X16513706Y-11598841D01*
X16513706Y-11598841D02*
X16513706Y-11560746D01*
X16513706Y-11560746D02*
X16504182Y-11513127D01*
X16504182Y-11513127D02*
X16494658Y-11484555D01*
X16494658Y-11484555D02*
X16485134Y-11465508D01*
X16485134Y-11465508D02*
X16466087Y-11436936D01*
X16466087Y-11436936D02*
X16456563Y-11427412D01*
X16818468Y-11732174D02*
X16808944Y-11722650D01*
X16808944Y-11722650D02*
X16789896Y-11694079D01*
X16789896Y-11694079D02*
X16780373Y-11675031D01*
X16780373Y-11675031D02*
X16770849Y-11646460D01*
X16770849Y-11646460D02*
X16761325Y-11598841D01*
X16761325Y-11598841D02*
X16761325Y-11560746D01*
X16761325Y-11560746D02*
X16770849Y-11513127D01*
X16770849Y-11513127D02*
X16780373Y-11484555D01*
X16780373Y-11484555D02*
X16789896Y-11465508D01*
X16789896Y-11465508D02*
X16808944Y-11436936D01*
X16808944Y-11436936D02*
X16818468Y-11427412D01*
X16894658Y-11522650D02*
X16894658Y-11655984D01*
X16894658Y-11541698D02*
X16904182Y-11532174D01*
X16904182Y-11532174D02*
X16923230Y-11522650D01*
X16923230Y-11522650D02*
X16951801Y-11522650D01*
X16951801Y-11522650D02*
X16970849Y-11532174D01*
X16970849Y-11532174D02*
X16980373Y-11551222D01*
X16980373Y-11551222D02*
X16980373Y-11655984D01*
X17104182Y-11655984D02*
X17085134Y-11646460D01*
X17085134Y-11646460D02*
X17075611Y-11636936D01*
X17075611Y-11636936D02*
X17066087Y-11617888D01*
X17066087Y-11617888D02*
X17066087Y-11560746D01*
X17066087Y-11560746D02*
X17075611Y-11541698D01*
X17075611Y-11541698D02*
X17085134Y-11532174D01*
X17085134Y-11532174D02*
X17104182Y-11522650D01*
X17104182Y-11522650D02*
X17132754Y-11522650D01*
X17132754Y-11522650D02*
X17151801Y-11532174D01*
X17151801Y-11532174D02*
X17161325Y-11541698D01*
X17161325Y-11541698D02*
X17170849Y-11560746D01*
X17170849Y-11560746D02*
X17170849Y-11617888D01*
X17170849Y-11617888D02*
X17161325Y-11636936D01*
X17161325Y-11636936D02*
X17151801Y-11646460D01*
X17151801Y-11646460D02*
X17132754Y-11655984D01*
X17132754Y-11655984D02*
X17104182Y-11655984D01*
X17227992Y-11522650D02*
X17304182Y-11522650D01*
X17256563Y-11455984D02*
X17256563Y-11627412D01*
X17256563Y-11627412D02*
X17266087Y-11646460D01*
X17266087Y-11646460D02*
X17285134Y-11655984D01*
X17285134Y-11655984D02*
X17304182Y-11655984D01*
X17523230Y-11522650D02*
X17523230Y-11722650D01*
X17523230Y-11532174D02*
X17542277Y-11522650D01*
X17542277Y-11522650D02*
X17580373Y-11522650D01*
X17580373Y-11522650D02*
X17599420Y-11532174D01*
X17599420Y-11532174D02*
X17608944Y-11541698D01*
X17608944Y-11541698D02*
X17618468Y-11560746D01*
X17618468Y-11560746D02*
X17618468Y-11617888D01*
X17618468Y-11617888D02*
X17608944Y-11636936D01*
X17608944Y-11636936D02*
X17599420Y-11646460D01*
X17599420Y-11646460D02*
X17580373Y-11655984D01*
X17580373Y-11655984D02*
X17542277Y-11655984D01*
X17542277Y-11655984D02*
X17523230Y-11646460D01*
X17732754Y-11655984D02*
X17713706Y-11646460D01*
X17713706Y-11646460D02*
X17704182Y-11627412D01*
X17704182Y-11627412D02*
X17704182Y-11455984D01*
X17894658Y-11655984D02*
X17894658Y-11551222D01*
X17894658Y-11551222D02*
X17885135Y-11532174D01*
X17885135Y-11532174D02*
X17866087Y-11522650D01*
X17866087Y-11522650D02*
X17827992Y-11522650D01*
X17827992Y-11522650D02*
X17808944Y-11532174D01*
X17894658Y-11646460D02*
X17875611Y-11655984D01*
X17875611Y-11655984D02*
X17827992Y-11655984D01*
X17827992Y-11655984D02*
X17808944Y-11646460D01*
X17808944Y-11646460D02*
X17799420Y-11627412D01*
X17799420Y-11627412D02*
X17799420Y-11608365D01*
X17799420Y-11608365D02*
X17808944Y-11589317D01*
X17808944Y-11589317D02*
X17827992Y-11579793D01*
X17827992Y-11579793D02*
X17875611Y-11579793D01*
X17875611Y-11579793D02*
X17894658Y-11570269D01*
X17961325Y-11522650D02*
X18037515Y-11522650D01*
X17989896Y-11455984D02*
X17989896Y-11627412D01*
X17989896Y-11627412D02*
X17999420Y-11646460D01*
X17999420Y-11646460D02*
X18018468Y-11655984D01*
X18018468Y-11655984D02*
X18037515Y-11655984D01*
X18180373Y-11646460D02*
X18161325Y-11655984D01*
X18161325Y-11655984D02*
X18123230Y-11655984D01*
X18123230Y-11655984D02*
X18104182Y-11646460D01*
X18104182Y-11646460D02*
X18094658Y-11627412D01*
X18094658Y-11627412D02*
X18094658Y-11551222D01*
X18094658Y-11551222D02*
X18104182Y-11532174D01*
X18104182Y-11532174D02*
X18123230Y-11522650D01*
X18123230Y-11522650D02*
X18161325Y-11522650D01*
X18161325Y-11522650D02*
X18180373Y-11532174D01*
X18180373Y-11532174D02*
X18189896Y-11551222D01*
X18189896Y-11551222D02*
X18189896Y-11570269D01*
X18189896Y-11570269D02*
X18094658Y-11589317D01*
X18361325Y-11655984D02*
X18361325Y-11455984D01*
X18361325Y-11646460D02*
X18342277Y-11655984D01*
X18342277Y-11655984D02*
X18304182Y-11655984D01*
X18304182Y-11655984D02*
X18285135Y-11646460D01*
X18285135Y-11646460D02*
X18275611Y-11636936D01*
X18275611Y-11636936D02*
X18266087Y-11617888D01*
X18266087Y-11617888D02*
X18266087Y-11560746D01*
X18266087Y-11560746D02*
X18275611Y-11541698D01*
X18275611Y-11541698D02*
X18285135Y-11532174D01*
X18285135Y-11532174D02*
X18304182Y-11522650D01*
X18304182Y-11522650D02*
X18342277Y-11522650D01*
X18342277Y-11522650D02*
X18361325Y-11532174D01*
X18437516Y-11732174D02*
X18447039Y-11722650D01*
X18447039Y-11722650D02*
X18466087Y-11694079D01*
X18466087Y-11694079D02*
X18475611Y-11675031D01*
X18475611Y-11675031D02*
X18485135Y-11646460D01*
X18485135Y-11646460D02*
X18494658Y-11598841D01*
X18494658Y-11598841D02*
X18494658Y-11560746D01*
X18494658Y-11560746D02*
X18485135Y-11513127D01*
X18485135Y-11513127D02*
X18475611Y-11484555D01*
X18475611Y-11484555D02*
X18466087Y-11465508D01*
X18466087Y-11465508D02*
X18447039Y-11436936D01*
X18447039Y-11436936D02*
X18437516Y-11427412D01*
M02*
