M48
; DRILL file {KiCad 9.0.1-1.fc41} date 2025-04-11T00:28:42-0700
; FORMAT={-:-/ absolute / metric / decimal}
; #@! TF.CreationDate,2025-04-11T00:28:42-07:00
; #@! TF.GenerationSoftware,Kicad,Pcbnew,9.0.1-1.fc41
; #@! TF.FileFunction,Plated,1,2,PTH
FMAT,2
METRIC
; #@! TA.AperFunction,Plated,PTH,ViaDrill
T1C0.300
; #@! TA.AperFunction,Plated,PTH,ComponentDrill
T2C0.600
; #@! TA.AperFunction,Plated,PTH,ComponentDrill
T3C0.700
; #@! TA.AperFunction,Plated,PTH,ComponentDrill
T4C1.000
; #@! TA.AperFunction,Plated,PTH,ComponentDrill
T5C1.100
; #@! TA.AperFunction,Plated,PTH,ComponentDrill
T6C2.200
; #@! TA.AperFunction,Plated,PTH,ComponentDrill
T7C5.410
%
G90
G05
T1
X120.0Y-96.0
X120.5Y-86.5
X124.0Y-99.5
X124.5Y-101.0
X125.0Y-89.5
X125.0Y-99.0
X126.0Y-96.0
X126.5Y-102.0
X127.5Y-98.5
X128.0Y-102.5
X129.5Y-56.0
X129.5Y-57.5
X129.5Y-59.0
X129.5Y-60.5
X129.5Y-62.0
X129.5Y-63.5
X129.5Y-98.0
X129.5Y-103.0
X131.5Y-56.0
X131.5Y-57.5
X131.5Y-59.0
X131.5Y-60.5
X131.5Y-62.0
X131.5Y-63.5
X131.5Y-98.0
X132.0Y-103.0
X133.0Y-98.0
X133.0Y-102.5
X133.5Y-56.0
X133.5Y-57.5
X133.5Y-59.0
X133.5Y-60.5
X133.5Y-62.0
X133.5Y-63.5
X133.5Y-95.5
X134.0Y-98.0
X134.0Y-98.0
X134.5Y-100.5
X135.0Y-99.0
X135.5Y-56.0
X135.5Y-57.5
X135.5Y-59.0
X135.5Y-60.5
X135.5Y-62.0
X135.5Y-63.5
X137.5Y-56.0
X137.5Y-57.5
X137.5Y-59.0
X137.5Y-60.5
X137.5Y-62.0
X137.5Y-63.5
X139.5Y-56.0
X139.5Y-57.5
X139.5Y-59.0
X139.5Y-60.5
X139.5Y-62.0
X139.5Y-63.5
X139.5Y-94.5
X145.5Y-104.0
X149.0Y-105.5
X153.0Y-100.5
X154.0Y-90.5
X155.0Y-85.0
X156.5Y-83.5
X156.5Y-100.5
X157.0Y-61.5
X157.0Y-90.5
X157.5Y-62.5
X158.5Y-63.0
X159.5Y-58.5
X159.5Y-63.5
X160.0Y-64.0
X160.0Y-78.0
X160.71Y-100.677
X161.0Y-64.5
X161.0Y-82.5
X162.5Y-65.0
X164.0Y-64.5
X164.0Y-103.5
X164.5Y-63.5
X165.0Y-58.0
X165.0Y-62.5
X165.5Y-60.5
X165.5Y-61.5
X165.912Y-103.228
X166.116Y-89.662
X166.551Y-95.87
X166.551Y-97.556
X167.55Y-83.58
X169.267Y-87.467
X170.374Y-85.861
X170.619Y-104.314
X170.996Y-99.06
X171.0Y-64.5
X171.45Y-92.456
X173.533Y-93.331
X173.759Y-107.234
X173.794Y-99.235
X173.921Y-77.091
X178.0Y-83.0
X179.5Y-103.5
X180.0Y-99.5
X183.0Y-85.5
X184.0Y-83.5
X184.0Y-87.5
X184.109Y-97.33
X186.106Y-104.248
X186.339Y-75.2
X186.5Y-87.0
X188.0Y-72.0
X188.0Y-108.0
X188.227Y-77.329
X189.5Y-79.5
X189.5Y-89.0
X189.992Y-103.54
X190.0Y-66.5
X190.0Y-90.5
X190.274Y-74.229
X190.5Y-78.5
X190.5Y-83.5
X190.5Y-105.5
X190.938Y-86.691
X190.987Y-95.524
X191.5Y-81.5
X192.0Y-63.5
X192.847Y-88.573
X193.973Y-98.34
X194.385Y-93.171
X194.65Y-103.505
X195.758Y-71.055
X196.518Y-80.522
X196.518Y-90.215
X196.596Y-76.708
X196.934Y-67.995
X198.12Y-66.04
X199.5Y-94.0
X200.5Y-96.0
X202.692Y-103.124
X205.486Y-93.726
X211.836Y-90.424
X213.868Y-79.756
X230.0Y-62.0
X230.0Y-64.0
X230.0Y-66.0
X230.0Y-68.0
X230.0Y-70.0
X230.0Y-72.0
X230.0Y-73.5
X230.0Y-75.5
X230.0Y-77.5
X230.0Y-79.5
X230.0Y-81.5
X230.0Y-83.5
X230.0Y-85.0
X230.0Y-87.0
X230.0Y-89.0
X230.0Y-91.0
X230.0Y-93.0
X230.0Y-95.0
X230.0Y-97.0
X230.0Y-99.0
X230.0Y-101.0
X231.5Y-62.0
X231.5Y-64.0
X231.5Y-66.0
X231.5Y-68.0
X231.5Y-70.0
X231.5Y-72.0
X231.5Y-73.5
X231.5Y-75.5
X231.5Y-77.5
X231.5Y-79.5
X231.5Y-81.5
X231.5Y-83.5
X231.5Y-85.0
X231.5Y-87.0
X231.5Y-89.0
X231.5Y-91.0
X231.5Y-93.0
X231.5Y-95.0
X231.5Y-97.0
X231.5Y-99.0
X231.5Y-101.0
X233.0Y-62.0
X233.0Y-64.0
X233.0Y-66.0
X233.0Y-68.0
X233.0Y-70.0
X233.0Y-72.0
X233.0Y-73.5
X233.0Y-75.5
X233.0Y-77.5
X233.0Y-79.5
X233.0Y-81.5
X233.0Y-83.5
X233.0Y-85.0
X233.0Y-87.0
X233.0Y-89.0
X233.0Y-91.0
X233.0Y-93.0
X233.0Y-95.0
X233.0Y-97.0
X233.0Y-99.0
X233.0Y-101.0
X234.5Y-62.0
X234.5Y-64.0
X234.5Y-66.0
X234.5Y-68.0
X234.5Y-70.0
X234.5Y-72.0
X234.5Y-73.5
X234.5Y-75.5
X234.5Y-77.5
X234.5Y-79.5
X234.5Y-81.5
X234.5Y-83.5
X234.5Y-85.0
X234.5Y-87.0
X234.5Y-89.0
X234.5Y-91.0
X234.5Y-93.0
X234.5Y-95.0
X234.5Y-97.0
X234.5Y-99.0
X234.5Y-101.0
X236.0Y-62.0
X236.0Y-64.0
X236.0Y-66.0
X236.0Y-68.0
X236.0Y-70.0
X236.0Y-72.0
X236.0Y-73.5
X236.0Y-75.5
X236.0Y-77.5
X236.0Y-79.5
X236.0Y-81.5
X236.0Y-83.5
X236.0Y-85.0
X236.0Y-87.0
X236.0Y-89.0
X236.0Y-91.0
X236.0Y-93.0
X236.0Y-95.0
X236.0Y-97.0
X236.0Y-99.0
X236.0Y-101.0
X237.5Y-62.0
X237.5Y-64.0
X237.5Y-66.0
X237.5Y-68.0
X237.5Y-70.0
X237.5Y-72.0
X237.5Y-73.5
X237.5Y-75.5
X237.5Y-77.5
X237.5Y-79.5
X237.5Y-81.5
X237.5Y-83.5
X237.5Y-85.0
X237.5Y-87.0
X237.5Y-89.0
X237.5Y-91.0
X237.5Y-93.0
X237.5Y-95.0
X237.5Y-97.0
X237.5Y-99.0
X237.5Y-101.0
T3
X199.4Y-68.58
X199.4Y-71.12
X199.4Y-81.38
X199.4Y-83.82
X207.02Y-68.58
X207.02Y-71.12
X207.02Y-81.38
X207.02Y-83.82
T4
X190.5Y-58.42
X190.5Y-60.96
X195.58Y-58.42
X195.58Y-60.96
T5
X186.339Y-81.28
X186.339Y-91.44
T6
X121.0Y-57.5
X121.0Y-105.5
X234.5Y-57.5
X234.5Y-105.5
T7
X219.71Y-97.536
X219.964Y-65.278
X219.964Y-81.026
T2
X150.62Y-101.95G85X150.62Y-103.05
G05
X150.62Y-106.28G85X150.62Y-107.08
G05
X159.26Y-101.95G85X159.26Y-103.05
G05
X159.26Y-106.28G85X159.26Y-107.08
G05
M30
